G04 #@! TF.FileFunction,Legend,Top*
%FSLAX46Y46*%
G04 Gerber Fmt 4.6, Leading zero omitted, Abs format (unit mm)*
G04 Created by KiCad (PCBNEW 4.0.7) date 04/15/18 17:09:11*
%MOMM*%
%LPD*%
G01*
G04 APERTURE LIST*
%ADD10C,0.100000*%
%ADD11C,0.250000*%
%ADD12C,0.200000*%
%ADD13C,0.120000*%
%ADD14C,0.150000*%
%ADD15O,1.500000X2.800000*%
%ADD16R,2.800000X1.500000*%
%ADD17O,2.800000X1.500000*%
%ADD18R,1.650000X1.900000*%
%ADD19R,1.700000X1.900000*%
%ADD20R,0.900000X2.700000*%
%ADD21R,2.400000X2.900000*%
%ADD22C,1.300000*%
%ADD23R,1.950000X1.700000*%
%ADD24R,1.900000X1.650000*%
%ADD25C,3.900120*%
%ADD26R,2.100000X2.100000*%
%ADD27O,2.100000X2.100000*%
%ADD28R,1.900000X1.700000*%
G04 APERTURE END LIST*
D10*
D11*
X172275524Y-124420381D02*
X171799333Y-124420381D01*
X171751714Y-124896571D01*
X171799333Y-124848952D01*
X171894571Y-124801333D01*
X172132667Y-124801333D01*
X172227905Y-124848952D01*
X172275524Y-124896571D01*
X172323143Y-124991810D01*
X172323143Y-125229905D01*
X172275524Y-125325143D01*
X172227905Y-125372762D01*
X172132667Y-125420381D01*
X171894571Y-125420381D01*
X171799333Y-125372762D01*
X171751714Y-125325143D01*
X172608857Y-124420381D02*
X172942190Y-125420381D01*
X173275524Y-124420381D01*
X141597143Y-120245143D02*
X141549524Y-120292762D01*
X141406667Y-120340381D01*
X141311429Y-120340381D01*
X141168571Y-120292762D01*
X141073333Y-120197524D01*
X141025714Y-120102286D01*
X140978095Y-119911810D01*
X140978095Y-119768952D01*
X141025714Y-119578476D01*
X141073333Y-119483238D01*
X141168571Y-119388000D01*
X141311429Y-119340381D01*
X141406667Y-119340381D01*
X141549524Y-119388000D01*
X141597143Y-119435619D01*
X141978095Y-120292762D02*
X142120952Y-120340381D01*
X142359048Y-120340381D01*
X142454286Y-120292762D01*
X142501905Y-120245143D01*
X142549524Y-120149905D01*
X142549524Y-120054667D01*
X142501905Y-119959429D01*
X142454286Y-119911810D01*
X142359048Y-119864190D01*
X142168571Y-119816571D01*
X142073333Y-119768952D01*
X142025714Y-119721333D01*
X141978095Y-119626095D01*
X141978095Y-119530857D01*
X142025714Y-119435619D01*
X142073333Y-119388000D01*
X142168571Y-119340381D01*
X142406667Y-119340381D01*
X142549524Y-119388000D01*
X143168571Y-119340381D02*
X143263810Y-119340381D01*
X143359048Y-119388000D01*
X143406667Y-119435619D01*
X143454286Y-119530857D01*
X143501905Y-119721333D01*
X143501905Y-119959429D01*
X143454286Y-120149905D01*
X143406667Y-120245143D01*
X143359048Y-120292762D01*
X143263810Y-120340381D01*
X143168571Y-120340381D01*
X143073333Y-120292762D01*
X143025714Y-120245143D01*
X142978095Y-120149905D01*
X142930476Y-119959429D01*
X142930476Y-119721333D01*
X142978095Y-119530857D01*
X143025714Y-119435619D01*
X143073333Y-119388000D01*
X143168571Y-119340381D01*
X157916762Y-118197381D02*
X157916762Y-119006905D01*
X157964381Y-119102143D01*
X158012000Y-119149762D01*
X158107238Y-119197381D01*
X158297715Y-119197381D01*
X158392953Y-119149762D01*
X158440572Y-119102143D01*
X158488191Y-119006905D01*
X158488191Y-118197381D01*
X158916762Y-118911667D02*
X159392953Y-118911667D01*
X158821524Y-119197381D02*
X159154857Y-118197381D01*
X159488191Y-119197381D01*
X160392953Y-119197381D02*
X160059619Y-118721190D01*
X159821524Y-119197381D02*
X159821524Y-118197381D01*
X160202477Y-118197381D01*
X160297715Y-118245000D01*
X160345334Y-118292619D01*
X160392953Y-118387857D01*
X160392953Y-118530714D01*
X160345334Y-118625952D01*
X160297715Y-118673571D01*
X160202477Y-118721190D01*
X159821524Y-118721190D01*
X160678667Y-118197381D02*
X161250096Y-118197381D01*
X160964381Y-119197381D02*
X160964381Y-118197381D01*
X153003429Y-118673571D02*
X152670095Y-118673571D01*
X152670095Y-119197381D02*
X152670095Y-118197381D01*
X153146286Y-118197381D01*
X153670095Y-119197381D02*
X153574857Y-119149762D01*
X153527238Y-119054524D01*
X153527238Y-118197381D01*
X154479620Y-119197381D02*
X154479620Y-118673571D01*
X154432001Y-118578333D01*
X154336763Y-118530714D01*
X154146286Y-118530714D01*
X154051048Y-118578333D01*
X154479620Y-119149762D02*
X154384382Y-119197381D01*
X154146286Y-119197381D01*
X154051048Y-119149762D01*
X154003429Y-119054524D01*
X154003429Y-118959286D01*
X154051048Y-118864048D01*
X154146286Y-118816429D01*
X154384382Y-118816429D01*
X154479620Y-118768810D01*
X154908191Y-119149762D02*
X155003429Y-119197381D01*
X155193905Y-119197381D01*
X155289144Y-119149762D01*
X155336763Y-119054524D01*
X155336763Y-119006905D01*
X155289144Y-118911667D01*
X155193905Y-118864048D01*
X155051048Y-118864048D01*
X154955810Y-118816429D01*
X154908191Y-118721190D01*
X154908191Y-118673571D01*
X154955810Y-118578333D01*
X155051048Y-118530714D01*
X155193905Y-118530714D01*
X155289144Y-118578333D01*
X155765334Y-119197381D02*
X155765334Y-118197381D01*
X156193906Y-119197381D02*
X156193906Y-118673571D01*
X156146287Y-118578333D01*
X156051049Y-118530714D01*
X155908191Y-118530714D01*
X155812953Y-118578333D01*
X155765334Y-118625952D01*
X141176572Y-122880381D02*
X141176572Y-121880381D01*
X141509906Y-122594667D01*
X141843239Y-121880381D01*
X141843239Y-122880381D01*
X142319429Y-122880381D02*
X142319429Y-121880381D01*
X142748000Y-122832762D02*
X142890857Y-122880381D01*
X143128953Y-122880381D01*
X143224191Y-122832762D01*
X143271810Y-122785143D01*
X143319429Y-122689905D01*
X143319429Y-122594667D01*
X143271810Y-122499429D01*
X143224191Y-122451810D01*
X143128953Y-122404190D01*
X142938476Y-122356571D01*
X142843238Y-122308952D01*
X142795619Y-122261333D01*
X142748000Y-122166095D01*
X142748000Y-122070857D01*
X142795619Y-121975619D01*
X142843238Y-121928000D01*
X142938476Y-121880381D01*
X143176572Y-121880381D01*
X143319429Y-121928000D01*
X143938476Y-121880381D02*
X144128953Y-121880381D01*
X144224191Y-121928000D01*
X144319429Y-122023238D01*
X144367048Y-122213714D01*
X144367048Y-122547048D01*
X144319429Y-122737524D01*
X144224191Y-122832762D01*
X144128953Y-122880381D01*
X143938476Y-122880381D01*
X143843238Y-122832762D01*
X143748000Y-122737524D01*
X143700381Y-122547048D01*
X143700381Y-122213714D01*
X143748000Y-122023238D01*
X143843238Y-121928000D01*
X143938476Y-121880381D01*
X169719810Y-121928000D02*
X169624572Y-121880381D01*
X169481715Y-121880381D01*
X169338857Y-121928000D01*
X169243619Y-122023238D01*
X169196000Y-122118476D01*
X169148381Y-122308952D01*
X169148381Y-122451810D01*
X169196000Y-122642286D01*
X169243619Y-122737524D01*
X169338857Y-122832762D01*
X169481715Y-122880381D01*
X169576953Y-122880381D01*
X169719810Y-122832762D01*
X169767429Y-122785143D01*
X169767429Y-122451810D01*
X169576953Y-122451810D01*
X170196000Y-122880381D02*
X170196000Y-121880381D01*
X170576953Y-121880381D01*
X170672191Y-121928000D01*
X170719810Y-121975619D01*
X170767429Y-122070857D01*
X170767429Y-122213714D01*
X170719810Y-122308952D01*
X170672191Y-122356571D01*
X170576953Y-122404190D01*
X170196000Y-122404190D01*
X171196000Y-122880381D02*
X171196000Y-121880381D01*
X171862666Y-121880381D02*
X172053143Y-121880381D01*
X172148381Y-121928000D01*
X172243619Y-122023238D01*
X172291238Y-122213714D01*
X172291238Y-122547048D01*
X172243619Y-122737524D01*
X172148381Y-122832762D01*
X172053143Y-122880381D01*
X171862666Y-122880381D01*
X171767428Y-122832762D01*
X171672190Y-122737524D01*
X171624571Y-122547048D01*
X171624571Y-122213714D01*
X171672190Y-122023238D01*
X171767428Y-121928000D01*
X171862666Y-121880381D01*
X172767428Y-122880381D02*
X172957904Y-122880381D01*
X173053143Y-122832762D01*
X173100762Y-122785143D01*
X173196000Y-122642286D01*
X173243619Y-122451810D01*
X173243619Y-122070857D01*
X173196000Y-121975619D01*
X173148381Y-121928000D01*
X173053143Y-121880381D01*
X172862666Y-121880381D01*
X172767428Y-121928000D01*
X172719809Y-121975619D01*
X172672190Y-122070857D01*
X172672190Y-122308952D01*
X172719809Y-122404190D01*
X172767428Y-122451810D01*
X172862666Y-122499429D01*
X173053143Y-122499429D01*
X173148381Y-122451810D01*
X173196000Y-122404190D01*
X173243619Y-122308952D01*
X168735620Y-119388000D02*
X168640382Y-119340381D01*
X168497525Y-119340381D01*
X168354667Y-119388000D01*
X168259429Y-119483238D01*
X168211810Y-119578476D01*
X168164191Y-119768952D01*
X168164191Y-119911810D01*
X168211810Y-120102286D01*
X168259429Y-120197524D01*
X168354667Y-120292762D01*
X168497525Y-120340381D01*
X168592763Y-120340381D01*
X168735620Y-120292762D01*
X168783239Y-120245143D01*
X168783239Y-119911810D01*
X168592763Y-119911810D01*
X169211810Y-120340381D02*
X169211810Y-119340381D01*
X169592763Y-119340381D01*
X169688001Y-119388000D01*
X169735620Y-119435619D01*
X169783239Y-119530857D01*
X169783239Y-119673714D01*
X169735620Y-119768952D01*
X169688001Y-119816571D01*
X169592763Y-119864190D01*
X169211810Y-119864190D01*
X170211810Y-120340381D02*
X170211810Y-119340381D01*
X170878476Y-119340381D02*
X171068953Y-119340381D01*
X171164191Y-119388000D01*
X171259429Y-119483238D01*
X171307048Y-119673714D01*
X171307048Y-120007048D01*
X171259429Y-120197524D01*
X171164191Y-120292762D01*
X171068953Y-120340381D01*
X170878476Y-120340381D01*
X170783238Y-120292762D01*
X170688000Y-120197524D01*
X170640381Y-120007048D01*
X170640381Y-119673714D01*
X170688000Y-119483238D01*
X170783238Y-119388000D01*
X170878476Y-119340381D01*
X172259429Y-120340381D02*
X171688000Y-120340381D01*
X171973714Y-120340381D02*
X171973714Y-119340381D01*
X171878476Y-119483238D01*
X171783238Y-119578476D01*
X171688000Y-119626095D01*
X172878476Y-119340381D02*
X172973715Y-119340381D01*
X173068953Y-119388000D01*
X173116572Y-119435619D01*
X173164191Y-119530857D01*
X173211810Y-119721333D01*
X173211810Y-119959429D01*
X173164191Y-120149905D01*
X173116572Y-120245143D01*
X173068953Y-120292762D01*
X172973715Y-120340381D01*
X172878476Y-120340381D01*
X172783238Y-120292762D01*
X172735619Y-120245143D01*
X172688000Y-120149905D01*
X172640381Y-119959429D01*
X172640381Y-119721333D01*
X172688000Y-119530857D01*
X172735619Y-119435619D01*
X172783238Y-119388000D01*
X172878476Y-119340381D01*
X141176572Y-125420381D02*
X141176572Y-124420381D01*
X141509906Y-125134667D01*
X141843239Y-124420381D01*
X141843239Y-125420381D01*
X142509905Y-124420381D02*
X142700382Y-124420381D01*
X142795620Y-124468000D01*
X142890858Y-124563238D01*
X142938477Y-124753714D01*
X142938477Y-125087048D01*
X142890858Y-125277524D01*
X142795620Y-125372762D01*
X142700382Y-125420381D01*
X142509905Y-125420381D01*
X142414667Y-125372762D01*
X142319429Y-125277524D01*
X142271810Y-125087048D01*
X142271810Y-124753714D01*
X142319429Y-124563238D01*
X142414667Y-124468000D01*
X142509905Y-124420381D01*
X143319429Y-125372762D02*
X143462286Y-125420381D01*
X143700382Y-125420381D01*
X143795620Y-125372762D01*
X143843239Y-125325143D01*
X143890858Y-125229905D01*
X143890858Y-125134667D01*
X143843239Y-125039429D01*
X143795620Y-124991810D01*
X143700382Y-124944190D01*
X143509905Y-124896571D01*
X143414667Y-124848952D01*
X143367048Y-124801333D01*
X143319429Y-124706095D01*
X143319429Y-124610857D01*
X143367048Y-124515619D01*
X143414667Y-124468000D01*
X143509905Y-124420381D01*
X143748001Y-124420381D01*
X143890858Y-124468000D01*
X144319429Y-125420381D02*
X144319429Y-124420381D01*
X141208286Y-127912762D02*
X141351143Y-127960381D01*
X141589239Y-127960381D01*
X141684477Y-127912762D01*
X141732096Y-127865143D01*
X141779715Y-127769905D01*
X141779715Y-127674667D01*
X141732096Y-127579429D01*
X141684477Y-127531810D01*
X141589239Y-127484190D01*
X141398762Y-127436571D01*
X141303524Y-127388952D01*
X141255905Y-127341333D01*
X141208286Y-127246095D01*
X141208286Y-127150857D01*
X141255905Y-127055619D01*
X141303524Y-127008000D01*
X141398762Y-126960381D01*
X141636858Y-126960381D01*
X141779715Y-127008000D01*
X142779715Y-127865143D02*
X142732096Y-127912762D01*
X142589239Y-127960381D01*
X142494001Y-127960381D01*
X142351143Y-127912762D01*
X142255905Y-127817524D01*
X142208286Y-127722286D01*
X142160667Y-127531810D01*
X142160667Y-127388952D01*
X142208286Y-127198476D01*
X142255905Y-127103238D01*
X142351143Y-127008000D01*
X142494001Y-126960381D01*
X142589239Y-126960381D01*
X142732096Y-127008000D01*
X142779715Y-127055619D01*
X143208286Y-127960381D02*
X143208286Y-126960381D01*
X143779715Y-127960381D02*
X143351143Y-127388952D01*
X143779715Y-126960381D02*
X143208286Y-127531810D01*
X171196096Y-129548000D02*
X171100858Y-129500381D01*
X170958001Y-129500381D01*
X170815143Y-129548000D01*
X170719905Y-129643238D01*
X170672286Y-129738476D01*
X170624667Y-129928952D01*
X170624667Y-130071810D01*
X170672286Y-130262286D01*
X170719905Y-130357524D01*
X170815143Y-130452762D01*
X170958001Y-130500381D01*
X171053239Y-130500381D01*
X171196096Y-130452762D01*
X171243715Y-130405143D01*
X171243715Y-130071810D01*
X171053239Y-130071810D01*
X171672286Y-130500381D02*
X171672286Y-129500381D01*
X172243715Y-130500381D01*
X172243715Y-129500381D01*
X172719905Y-130500381D02*
X172719905Y-129500381D01*
X172958000Y-129500381D01*
X173100858Y-129548000D01*
X173196096Y-129643238D01*
X173243715Y-129738476D01*
X173291334Y-129928952D01*
X173291334Y-130071810D01*
X173243715Y-130262286D01*
X173196096Y-130357524D01*
X173100858Y-130452762D01*
X172958000Y-130500381D01*
X172719905Y-130500381D01*
X170973905Y-126960381D02*
X171592953Y-126960381D01*
X171259619Y-127341333D01*
X171402477Y-127341333D01*
X171497715Y-127388952D01*
X171545334Y-127436571D01*
X171592953Y-127531810D01*
X171592953Y-127769905D01*
X171545334Y-127865143D01*
X171497715Y-127912762D01*
X171402477Y-127960381D01*
X171116762Y-127960381D01*
X171021524Y-127912762D01*
X170973905Y-127865143D01*
X171878667Y-126960381D02*
X172212000Y-127960381D01*
X172545334Y-126960381D01*
X172783429Y-126960381D02*
X173402477Y-126960381D01*
X173069143Y-127341333D01*
X173212001Y-127341333D01*
X173307239Y-127388952D01*
X173354858Y-127436571D01*
X173402477Y-127531810D01*
X173402477Y-127769905D01*
X173354858Y-127865143D01*
X173307239Y-127912762D01*
X173212001Y-127960381D01*
X172926286Y-127960381D01*
X172831048Y-127912762D01*
X172783429Y-127865143D01*
X168735620Y-116848000D02*
X168640382Y-116800381D01*
X168497525Y-116800381D01*
X168354667Y-116848000D01*
X168259429Y-116943238D01*
X168211810Y-117038476D01*
X168164191Y-117228952D01*
X168164191Y-117371810D01*
X168211810Y-117562286D01*
X168259429Y-117657524D01*
X168354667Y-117752762D01*
X168497525Y-117800381D01*
X168592763Y-117800381D01*
X168735620Y-117752762D01*
X168783239Y-117705143D01*
X168783239Y-117371810D01*
X168592763Y-117371810D01*
X169211810Y-117800381D02*
X169211810Y-116800381D01*
X169592763Y-116800381D01*
X169688001Y-116848000D01*
X169735620Y-116895619D01*
X169783239Y-116990857D01*
X169783239Y-117133714D01*
X169735620Y-117228952D01*
X169688001Y-117276571D01*
X169592763Y-117324190D01*
X169211810Y-117324190D01*
X170211810Y-117800381D02*
X170211810Y-116800381D01*
X170878476Y-116800381D02*
X171068953Y-116800381D01*
X171164191Y-116848000D01*
X171259429Y-116943238D01*
X171307048Y-117133714D01*
X171307048Y-117467048D01*
X171259429Y-117657524D01*
X171164191Y-117752762D01*
X171068953Y-117800381D01*
X170878476Y-117800381D01*
X170783238Y-117752762D01*
X170688000Y-117657524D01*
X170640381Y-117467048D01*
X170640381Y-117133714D01*
X170688000Y-116943238D01*
X170783238Y-116848000D01*
X170878476Y-116800381D01*
X172259429Y-117800381D02*
X171688000Y-117800381D01*
X171973714Y-117800381D02*
X171973714Y-116800381D01*
X171878476Y-116943238D01*
X171783238Y-117038476D01*
X171688000Y-117086095D01*
X173164191Y-116800381D02*
X172688000Y-116800381D01*
X172640381Y-117276571D01*
X172688000Y-117228952D01*
X172783238Y-117181333D01*
X173021334Y-117181333D01*
X173116572Y-117228952D01*
X173164191Y-117276571D01*
X173211810Y-117371810D01*
X173211810Y-117609905D01*
X173164191Y-117705143D01*
X173116572Y-117752762D01*
X173021334Y-117800381D01*
X172783238Y-117800381D01*
X172688000Y-117752762D01*
X172640381Y-117705143D01*
X169719810Y-114308000D02*
X169624572Y-114260381D01*
X169481715Y-114260381D01*
X169338857Y-114308000D01*
X169243619Y-114403238D01*
X169196000Y-114498476D01*
X169148381Y-114688952D01*
X169148381Y-114831810D01*
X169196000Y-115022286D01*
X169243619Y-115117524D01*
X169338857Y-115212762D01*
X169481715Y-115260381D01*
X169576953Y-115260381D01*
X169719810Y-115212762D01*
X169767429Y-115165143D01*
X169767429Y-114831810D01*
X169576953Y-114831810D01*
X170196000Y-115260381D02*
X170196000Y-114260381D01*
X170576953Y-114260381D01*
X170672191Y-114308000D01*
X170719810Y-114355619D01*
X170767429Y-114450857D01*
X170767429Y-114593714D01*
X170719810Y-114688952D01*
X170672191Y-114736571D01*
X170576953Y-114784190D01*
X170196000Y-114784190D01*
X171196000Y-115260381D02*
X171196000Y-114260381D01*
X171862666Y-114260381D02*
X172053143Y-114260381D01*
X172148381Y-114308000D01*
X172243619Y-114403238D01*
X172291238Y-114593714D01*
X172291238Y-114927048D01*
X172243619Y-115117524D01*
X172148381Y-115212762D01*
X172053143Y-115260381D01*
X171862666Y-115260381D01*
X171767428Y-115212762D01*
X171672190Y-115117524D01*
X171624571Y-114927048D01*
X171624571Y-114593714D01*
X171672190Y-114403238D01*
X171767428Y-114308000D01*
X171862666Y-114260381D01*
X172910285Y-114260381D02*
X173005524Y-114260381D01*
X173100762Y-114308000D01*
X173148381Y-114355619D01*
X173196000Y-114450857D01*
X173243619Y-114641333D01*
X173243619Y-114879429D01*
X173196000Y-115069905D01*
X173148381Y-115165143D01*
X173100762Y-115212762D01*
X173005524Y-115260381D01*
X172910285Y-115260381D01*
X172815047Y-115212762D01*
X172767428Y-115165143D01*
X172719809Y-115069905D01*
X172672190Y-114879429D01*
X172672190Y-114641333D01*
X172719809Y-114450857D01*
X172767428Y-114355619D01*
X172815047Y-114308000D01*
X172910285Y-114260381D01*
X169719810Y-111768000D02*
X169624572Y-111720381D01*
X169481715Y-111720381D01*
X169338857Y-111768000D01*
X169243619Y-111863238D01*
X169196000Y-111958476D01*
X169148381Y-112148952D01*
X169148381Y-112291810D01*
X169196000Y-112482286D01*
X169243619Y-112577524D01*
X169338857Y-112672762D01*
X169481715Y-112720381D01*
X169576953Y-112720381D01*
X169719810Y-112672762D01*
X169767429Y-112625143D01*
X169767429Y-112291810D01*
X169576953Y-112291810D01*
X170196000Y-112720381D02*
X170196000Y-111720381D01*
X170576953Y-111720381D01*
X170672191Y-111768000D01*
X170719810Y-111815619D01*
X170767429Y-111910857D01*
X170767429Y-112053714D01*
X170719810Y-112148952D01*
X170672191Y-112196571D01*
X170576953Y-112244190D01*
X170196000Y-112244190D01*
X171196000Y-112720381D02*
X171196000Y-111720381D01*
X171862666Y-111720381D02*
X172053143Y-111720381D01*
X172148381Y-111768000D01*
X172243619Y-111863238D01*
X172291238Y-112053714D01*
X172291238Y-112387048D01*
X172243619Y-112577524D01*
X172148381Y-112672762D01*
X172053143Y-112720381D01*
X171862666Y-112720381D01*
X171767428Y-112672762D01*
X171672190Y-112577524D01*
X171624571Y-112387048D01*
X171624571Y-112053714D01*
X171672190Y-111863238D01*
X171767428Y-111768000D01*
X171862666Y-111720381D01*
X173148381Y-112053714D02*
X173148381Y-112720381D01*
X172910285Y-111672762D02*
X172672190Y-112387048D01*
X173291238Y-112387048D01*
X169719810Y-109228000D02*
X169624572Y-109180381D01*
X169481715Y-109180381D01*
X169338857Y-109228000D01*
X169243619Y-109323238D01*
X169196000Y-109418476D01*
X169148381Y-109608952D01*
X169148381Y-109751810D01*
X169196000Y-109942286D01*
X169243619Y-110037524D01*
X169338857Y-110132762D01*
X169481715Y-110180381D01*
X169576953Y-110180381D01*
X169719810Y-110132762D01*
X169767429Y-110085143D01*
X169767429Y-109751810D01*
X169576953Y-109751810D01*
X170196000Y-110180381D02*
X170196000Y-109180381D01*
X170576953Y-109180381D01*
X170672191Y-109228000D01*
X170719810Y-109275619D01*
X170767429Y-109370857D01*
X170767429Y-109513714D01*
X170719810Y-109608952D01*
X170672191Y-109656571D01*
X170576953Y-109704190D01*
X170196000Y-109704190D01*
X171196000Y-110180381D02*
X171196000Y-109180381D01*
X171862666Y-109180381D02*
X172053143Y-109180381D01*
X172148381Y-109228000D01*
X172243619Y-109323238D01*
X172291238Y-109513714D01*
X172291238Y-109847048D01*
X172243619Y-110037524D01*
X172148381Y-110132762D01*
X172053143Y-110180381D01*
X171862666Y-110180381D01*
X171767428Y-110132762D01*
X171672190Y-110037524D01*
X171624571Y-109847048D01*
X171624571Y-109513714D01*
X171672190Y-109323238D01*
X171767428Y-109228000D01*
X171862666Y-109180381D01*
X173196000Y-109180381D02*
X172719809Y-109180381D01*
X172672190Y-109656571D01*
X172719809Y-109608952D01*
X172815047Y-109561333D01*
X173053143Y-109561333D01*
X173148381Y-109608952D01*
X173196000Y-109656571D01*
X173243619Y-109751810D01*
X173243619Y-109989905D01*
X173196000Y-110085143D01*
X173148381Y-110132762D01*
X173053143Y-110180381D01*
X172815047Y-110180381D01*
X172719809Y-110132762D01*
X172672190Y-110085143D01*
X172045334Y-107640381D02*
X171712000Y-107164190D01*
X171473905Y-107640381D02*
X171473905Y-106640381D01*
X171854858Y-106640381D01*
X171950096Y-106688000D01*
X171997715Y-106735619D01*
X172045334Y-106830857D01*
X172045334Y-106973714D01*
X171997715Y-107068952D01*
X171950096Y-107116571D01*
X171854858Y-107164190D01*
X171473905Y-107164190D01*
X172378667Y-106640381D02*
X173045334Y-107640381D01*
X173045334Y-106640381D02*
X172378667Y-107640381D01*
X171704095Y-104100381D02*
X172275524Y-104100381D01*
X171989809Y-105100381D02*
X171989809Y-104100381D01*
X172513619Y-104100381D02*
X173180286Y-105100381D01*
X173180286Y-104100381D02*
X172513619Y-105100381D01*
D12*
X141732096Y-132088000D02*
X141636858Y-132040381D01*
X141494001Y-132040381D01*
X141351143Y-132088000D01*
X141255905Y-132183238D01*
X141208286Y-132278476D01*
X141160667Y-132468952D01*
X141160667Y-132611810D01*
X141208286Y-132802286D01*
X141255905Y-132897524D01*
X141351143Y-132992762D01*
X141494001Y-133040381D01*
X141589239Y-133040381D01*
X141732096Y-132992762D01*
X141779715Y-132945143D01*
X141779715Y-132611810D01*
X141589239Y-132611810D01*
X142208286Y-133040381D02*
X142208286Y-132040381D01*
X142779715Y-133040381D01*
X142779715Y-132040381D01*
X143255905Y-133040381D02*
X143255905Y-132040381D01*
X143494000Y-132040381D01*
X143636858Y-132088000D01*
X143732096Y-132183238D01*
X143779715Y-132278476D01*
X143827334Y-132468952D01*
X143827334Y-132611810D01*
X143779715Y-132802286D01*
X143732096Y-132897524D01*
X143636858Y-132992762D01*
X143494000Y-133040381D01*
X143255905Y-133040381D01*
D11*
X141255905Y-129500381D02*
X141874953Y-129500381D01*
X141541619Y-129881333D01*
X141684477Y-129881333D01*
X141779715Y-129928952D01*
X141827334Y-129976571D01*
X141874953Y-130071810D01*
X141874953Y-130309905D01*
X141827334Y-130405143D01*
X141779715Y-130452762D01*
X141684477Y-130500381D01*
X141398762Y-130500381D01*
X141303524Y-130452762D01*
X141255905Y-130405143D01*
X142160667Y-129500381D02*
X142494000Y-130500381D01*
X142827334Y-129500381D01*
X143065429Y-129500381D02*
X143684477Y-129500381D01*
X143351143Y-129881333D01*
X143494001Y-129881333D01*
X143589239Y-129928952D01*
X143636858Y-129976571D01*
X143684477Y-130071810D01*
X143684477Y-130309905D01*
X143636858Y-130405143D01*
X143589239Y-130452762D01*
X143494001Y-130500381D01*
X143208286Y-130500381D01*
X143113048Y-130452762D01*
X143065429Y-130405143D01*
X141557620Y-116848000D02*
X141462382Y-116800381D01*
X141319525Y-116800381D01*
X141176667Y-116848000D01*
X141081429Y-116943238D01*
X141033810Y-117038476D01*
X140986191Y-117228952D01*
X140986191Y-117371810D01*
X141033810Y-117562286D01*
X141081429Y-117657524D01*
X141176667Y-117752762D01*
X141319525Y-117800381D01*
X141414763Y-117800381D01*
X141557620Y-117752762D01*
X141605239Y-117705143D01*
X141605239Y-117371810D01*
X141414763Y-117371810D01*
X142033810Y-117800381D02*
X142033810Y-116800381D01*
X142414763Y-116800381D01*
X142510001Y-116848000D01*
X142557620Y-116895619D01*
X142605239Y-116990857D01*
X142605239Y-117133714D01*
X142557620Y-117228952D01*
X142510001Y-117276571D01*
X142414763Y-117324190D01*
X142033810Y-117324190D01*
X143033810Y-117800381D02*
X143033810Y-116800381D01*
X143700476Y-116800381D02*
X143890953Y-116800381D01*
X143986191Y-116848000D01*
X144081429Y-116943238D01*
X144129048Y-117133714D01*
X144129048Y-117467048D01*
X144081429Y-117657524D01*
X143986191Y-117752762D01*
X143890953Y-117800381D01*
X143700476Y-117800381D01*
X143605238Y-117752762D01*
X143510000Y-117657524D01*
X143462381Y-117467048D01*
X143462381Y-117133714D01*
X143510000Y-116943238D01*
X143605238Y-116848000D01*
X143700476Y-116800381D01*
X145081429Y-117800381D02*
X144510000Y-117800381D01*
X144795714Y-117800381D02*
X144795714Y-116800381D01*
X144700476Y-116943238D01*
X144605238Y-117038476D01*
X144510000Y-117086095D01*
X145414762Y-116800381D02*
X146033810Y-116800381D01*
X145700476Y-117181333D01*
X145843334Y-117181333D01*
X145938572Y-117228952D01*
X145986191Y-117276571D01*
X146033810Y-117371810D01*
X146033810Y-117609905D01*
X145986191Y-117705143D01*
X145938572Y-117752762D01*
X145843334Y-117800381D01*
X145557619Y-117800381D01*
X145462381Y-117752762D01*
X145414762Y-117705143D01*
X141557620Y-114308000D02*
X141462382Y-114260381D01*
X141319525Y-114260381D01*
X141176667Y-114308000D01*
X141081429Y-114403238D01*
X141033810Y-114498476D01*
X140986191Y-114688952D01*
X140986191Y-114831810D01*
X141033810Y-115022286D01*
X141081429Y-115117524D01*
X141176667Y-115212762D01*
X141319525Y-115260381D01*
X141414763Y-115260381D01*
X141557620Y-115212762D01*
X141605239Y-115165143D01*
X141605239Y-114831810D01*
X141414763Y-114831810D01*
X142033810Y-115260381D02*
X142033810Y-114260381D01*
X142414763Y-114260381D01*
X142510001Y-114308000D01*
X142557620Y-114355619D01*
X142605239Y-114450857D01*
X142605239Y-114593714D01*
X142557620Y-114688952D01*
X142510001Y-114736571D01*
X142414763Y-114784190D01*
X142033810Y-114784190D01*
X143033810Y-115260381D02*
X143033810Y-114260381D01*
X143700476Y-114260381D02*
X143890953Y-114260381D01*
X143986191Y-114308000D01*
X144081429Y-114403238D01*
X144129048Y-114593714D01*
X144129048Y-114927048D01*
X144081429Y-115117524D01*
X143986191Y-115212762D01*
X143890953Y-115260381D01*
X143700476Y-115260381D01*
X143605238Y-115212762D01*
X143510000Y-115117524D01*
X143462381Y-114927048D01*
X143462381Y-114593714D01*
X143510000Y-114403238D01*
X143605238Y-114308000D01*
X143700476Y-114260381D01*
X145081429Y-115260381D02*
X144510000Y-115260381D01*
X144795714Y-115260381D02*
X144795714Y-114260381D01*
X144700476Y-114403238D01*
X144605238Y-114498476D01*
X144510000Y-114546095D01*
X145462381Y-114355619D02*
X145510000Y-114308000D01*
X145605238Y-114260381D01*
X145843334Y-114260381D01*
X145938572Y-114308000D01*
X145986191Y-114355619D01*
X146033810Y-114450857D01*
X146033810Y-114546095D01*
X145986191Y-114688952D01*
X145414762Y-115260381D01*
X146033810Y-115260381D01*
X141557620Y-111768000D02*
X141462382Y-111720381D01*
X141319525Y-111720381D01*
X141176667Y-111768000D01*
X141081429Y-111863238D01*
X141033810Y-111958476D01*
X140986191Y-112148952D01*
X140986191Y-112291810D01*
X141033810Y-112482286D01*
X141081429Y-112577524D01*
X141176667Y-112672762D01*
X141319525Y-112720381D01*
X141414763Y-112720381D01*
X141557620Y-112672762D01*
X141605239Y-112625143D01*
X141605239Y-112291810D01*
X141414763Y-112291810D01*
X142033810Y-112720381D02*
X142033810Y-111720381D01*
X142414763Y-111720381D01*
X142510001Y-111768000D01*
X142557620Y-111815619D01*
X142605239Y-111910857D01*
X142605239Y-112053714D01*
X142557620Y-112148952D01*
X142510001Y-112196571D01*
X142414763Y-112244190D01*
X142033810Y-112244190D01*
X143033810Y-112720381D02*
X143033810Y-111720381D01*
X143700476Y-111720381D02*
X143890953Y-111720381D01*
X143986191Y-111768000D01*
X144081429Y-111863238D01*
X144129048Y-112053714D01*
X144129048Y-112387048D01*
X144081429Y-112577524D01*
X143986191Y-112672762D01*
X143890953Y-112720381D01*
X143700476Y-112720381D01*
X143605238Y-112672762D01*
X143510000Y-112577524D01*
X143462381Y-112387048D01*
X143462381Y-112053714D01*
X143510000Y-111863238D01*
X143605238Y-111768000D01*
X143700476Y-111720381D01*
X145081429Y-112720381D02*
X144510000Y-112720381D01*
X144795714Y-112720381D02*
X144795714Y-111720381D01*
X144700476Y-111863238D01*
X144605238Y-111958476D01*
X144510000Y-112006095D01*
X145938572Y-112053714D02*
X145938572Y-112720381D01*
X145700476Y-111672762D02*
X145462381Y-112387048D01*
X146081429Y-112387048D01*
X141557620Y-109228000D02*
X141462382Y-109180381D01*
X141319525Y-109180381D01*
X141176667Y-109228000D01*
X141081429Y-109323238D01*
X141033810Y-109418476D01*
X140986191Y-109608952D01*
X140986191Y-109751810D01*
X141033810Y-109942286D01*
X141081429Y-110037524D01*
X141176667Y-110132762D01*
X141319525Y-110180381D01*
X141414763Y-110180381D01*
X141557620Y-110132762D01*
X141605239Y-110085143D01*
X141605239Y-109751810D01*
X141414763Y-109751810D01*
X142033810Y-110180381D02*
X142033810Y-109180381D01*
X142414763Y-109180381D01*
X142510001Y-109228000D01*
X142557620Y-109275619D01*
X142605239Y-109370857D01*
X142605239Y-109513714D01*
X142557620Y-109608952D01*
X142510001Y-109656571D01*
X142414763Y-109704190D01*
X142033810Y-109704190D01*
X143033810Y-110180381D02*
X143033810Y-109180381D01*
X143700476Y-109180381D02*
X143890953Y-109180381D01*
X143986191Y-109228000D01*
X144081429Y-109323238D01*
X144129048Y-109513714D01*
X144129048Y-109847048D01*
X144081429Y-110037524D01*
X143986191Y-110132762D01*
X143890953Y-110180381D01*
X143700476Y-110180381D01*
X143605238Y-110132762D01*
X143510000Y-110037524D01*
X143462381Y-109847048D01*
X143462381Y-109513714D01*
X143510000Y-109323238D01*
X143605238Y-109228000D01*
X143700476Y-109180381D01*
X145081429Y-110180381D02*
X144510000Y-110180381D01*
X144795714Y-110180381D02*
X144795714Y-109180381D01*
X144700476Y-109323238D01*
X144605238Y-109418476D01*
X144510000Y-109466095D01*
X145938572Y-109180381D02*
X145748095Y-109180381D01*
X145652857Y-109228000D01*
X145605238Y-109275619D01*
X145510000Y-109418476D01*
X145462381Y-109608952D01*
X145462381Y-109989905D01*
X145510000Y-110085143D01*
X145557619Y-110132762D01*
X145652857Y-110180381D01*
X145843334Y-110180381D01*
X145938572Y-110132762D01*
X145986191Y-110085143D01*
X146033810Y-109989905D01*
X146033810Y-109751810D01*
X145986191Y-109656571D01*
X145938572Y-109608952D01*
X145843334Y-109561333D01*
X145652857Y-109561333D01*
X145557619Y-109608952D01*
X145510000Y-109656571D01*
X145462381Y-109751810D01*
X141255905Y-107354667D02*
X141732096Y-107354667D01*
X141160667Y-107640381D02*
X141494000Y-106640381D01*
X141827334Y-107640381D01*
X142160667Y-107640381D02*
X142160667Y-106640381D01*
X142398762Y-106640381D01*
X142541620Y-106688000D01*
X142636858Y-106783238D01*
X142684477Y-106878476D01*
X142732096Y-107068952D01*
X142732096Y-107211810D01*
X142684477Y-107402286D01*
X142636858Y-107497524D01*
X142541620Y-107592762D01*
X142398762Y-107640381D01*
X142160667Y-107640381D01*
X143732096Y-107545143D02*
X143684477Y-107592762D01*
X143541620Y-107640381D01*
X143446382Y-107640381D01*
X143303524Y-107592762D01*
X143208286Y-107497524D01*
X143160667Y-107402286D01*
X143113048Y-107211810D01*
X143113048Y-107068952D01*
X143160667Y-106878476D01*
X143208286Y-106783238D01*
X143303524Y-106688000D01*
X143446382Y-106640381D01*
X143541620Y-106640381D01*
X143684477Y-106688000D01*
X143732096Y-106735619D01*
X160980381Y-134207238D02*
X160504190Y-134540572D01*
X160980381Y-134778667D02*
X159980381Y-134778667D01*
X159980381Y-134397714D01*
X160028000Y-134302476D01*
X160075619Y-134254857D01*
X160170857Y-134207238D01*
X160313714Y-134207238D01*
X160408952Y-134254857D01*
X160456571Y-134302476D01*
X160504190Y-134397714D01*
X160504190Y-134778667D01*
X160980381Y-133873905D02*
X160313714Y-133350095D01*
X160313714Y-133873905D02*
X160980381Y-133350095D01*
X162520381Y-134802476D02*
X162520381Y-134231047D01*
X163520381Y-134516762D02*
X162520381Y-134516762D01*
X163520381Y-133992952D02*
X162853714Y-133469142D01*
X162853714Y-133992952D02*
X163520381Y-133469142D01*
X147605905Y-128468381D02*
X147272571Y-127992190D01*
X147034476Y-128468381D02*
X147034476Y-127468381D01*
X147415429Y-127468381D01*
X147510667Y-127516000D01*
X147558286Y-127563619D01*
X147605905Y-127658857D01*
X147605905Y-127801714D01*
X147558286Y-127896952D01*
X147510667Y-127944571D01*
X147415429Y-127992190D01*
X147034476Y-127992190D01*
X148415429Y-128420762D02*
X148320191Y-128468381D01*
X148129714Y-128468381D01*
X148034476Y-128420762D01*
X147986857Y-128325524D01*
X147986857Y-127944571D01*
X148034476Y-127849333D01*
X148129714Y-127801714D01*
X148320191Y-127801714D01*
X148415429Y-127849333D01*
X148463048Y-127944571D01*
X148463048Y-128039810D01*
X147986857Y-128135048D01*
X148844000Y-128420762D02*
X148939238Y-128468381D01*
X149129714Y-128468381D01*
X149224953Y-128420762D01*
X149272572Y-128325524D01*
X149272572Y-128277905D01*
X149224953Y-128182667D01*
X149129714Y-128135048D01*
X148986857Y-128135048D01*
X148891619Y-128087429D01*
X148844000Y-127992190D01*
X148844000Y-127944571D01*
X148891619Y-127849333D01*
X148986857Y-127801714D01*
X149129714Y-127801714D01*
X149224953Y-127849333D01*
X150082096Y-128420762D02*
X149986858Y-128468381D01*
X149796381Y-128468381D01*
X149701143Y-128420762D01*
X149653524Y-128325524D01*
X149653524Y-127944571D01*
X149701143Y-127849333D01*
X149796381Y-127801714D01*
X149986858Y-127801714D01*
X150082096Y-127849333D01*
X150129715Y-127944571D01*
X150129715Y-128039810D01*
X149653524Y-128135048D01*
X150415429Y-127801714D02*
X150796381Y-127801714D01*
X150558286Y-127468381D02*
X150558286Y-128325524D01*
X150605905Y-128420762D01*
X150701143Y-128468381D01*
X150796381Y-128468381D01*
D13*
X148170000Y-116832000D02*
X148170000Y-115832000D01*
X146470000Y-115832000D02*
X146470000Y-116832000D01*
X150710000Y-116832000D02*
X150710000Y-115832000D01*
X149010000Y-115832000D02*
X149010000Y-116832000D01*
X144538000Y-133080000D02*
X144538000Y-129880000D01*
X146038000Y-129880000D02*
X146038000Y-133080000D01*
X146038000Y-129880000D02*
X144538000Y-129880000D01*
X148550000Y-143690000D02*
X156250000Y-143690000D01*
X148550000Y-144690000D02*
X156250000Y-144690000D01*
X156250000Y-144690000D02*
X156250000Y-135490000D01*
X156250000Y-135490000D02*
X148550000Y-135490000D01*
X148550000Y-135490000D02*
X148550000Y-144690000D01*
X157671000Y-131506000D02*
X157671000Y-131756000D01*
X157671000Y-131756000D02*
X151371000Y-131756000D01*
X151371000Y-131756000D02*
X151371000Y-131506000D01*
X157671000Y-127006000D02*
X157671000Y-129606000D01*
X151371000Y-125106000D02*
X151371000Y-124856000D01*
X151371000Y-124856000D02*
X157671000Y-124856000D01*
X157671000Y-124856000D02*
X157671000Y-125106000D01*
X151371000Y-129606000D02*
X151371000Y-127006000D01*
X152900000Y-132754000D02*
X151900000Y-132754000D01*
X151900000Y-134454000D02*
X152900000Y-134454000D01*
X159778000Y-138842000D02*
X159778000Y-135642000D01*
X161278000Y-135642000D02*
X161278000Y-138842000D01*
X161278000Y-135642000D02*
X159778000Y-135642000D01*
X162318000Y-138842000D02*
X162318000Y-135642000D01*
X163818000Y-135642000D02*
X163818000Y-138842000D01*
X163818000Y-135642000D02*
X162318000Y-135642000D01*
X169028000Y-137242000D02*
X169028000Y-138442000D01*
X167268000Y-138442000D02*
X167268000Y-137242000D01*
X166488000Y-137242000D02*
X166488000Y-138442000D01*
X164728000Y-138442000D02*
X164728000Y-137242000D01*
X138116000Y-133918000D02*
X140776000Y-133918000D01*
X138116000Y-108458000D02*
X138116000Y-133918000D01*
X140776000Y-108458000D02*
X140776000Y-133918000D01*
X138116000Y-108458000D02*
X140776000Y-108458000D01*
X138116000Y-107188000D02*
X138116000Y-105858000D01*
X138116000Y-105858000D02*
X139446000Y-105858000D01*
X173676000Y-131378000D02*
X176336000Y-131378000D01*
X173676000Y-105918000D02*
X173676000Y-131378000D01*
X176336000Y-105918000D02*
X176336000Y-131378000D01*
X173676000Y-105918000D02*
X176336000Y-105918000D01*
X173676000Y-104648000D02*
X173676000Y-103318000D01*
X173676000Y-103318000D02*
X175006000Y-103318000D01*
X168520000Y-110445000D02*
X168520000Y-111645000D01*
X166760000Y-111645000D02*
X166760000Y-110445000D01*
X166735000Y-122670000D02*
X163535000Y-122670000D01*
X163535000Y-121170000D02*
X166735000Y-121170000D01*
X163535000Y-121170000D02*
X163535000Y-122670000D01*
X153102000Y-120082000D02*
X153102000Y-122742000D01*
X158242000Y-120082000D02*
X153102000Y-120082000D01*
X158242000Y-122742000D02*
X153102000Y-122742000D01*
X158242000Y-120082000D02*
X158242000Y-122742000D01*
X159512000Y-120082000D02*
X160842000Y-120082000D01*
X160842000Y-120082000D02*
X160842000Y-121412000D01*
X165135000Y-123580000D02*
X166335000Y-123580000D01*
X166335000Y-125340000D02*
X165135000Y-125340000D01*
D14*
X145542095Y-95464381D02*
X145542095Y-96273905D01*
X145589714Y-96369143D01*
X145637333Y-96416762D01*
X145732571Y-96464381D01*
X145923048Y-96464381D01*
X146018286Y-96416762D01*
X146065905Y-96369143D01*
X146113524Y-96273905D01*
X146113524Y-95464381D01*
X147113524Y-96464381D02*
X146542095Y-96464381D01*
X146827809Y-96464381D02*
X146827809Y-95464381D01*
X146732571Y-95607238D01*
X146637333Y-95702476D01*
X146542095Y-95750095D01*
X148095857Y-113409000D02*
X148131571Y-113444714D01*
X148167286Y-113551857D01*
X148167286Y-113623286D01*
X148131571Y-113730429D01*
X148060143Y-113801857D01*
X147988714Y-113837572D01*
X147845857Y-113873286D01*
X147738714Y-113873286D01*
X147595857Y-113837572D01*
X147524429Y-113801857D01*
X147453000Y-113730429D01*
X147417286Y-113623286D01*
X147417286Y-113551857D01*
X147453000Y-113444714D01*
X147488714Y-113409000D01*
X147667286Y-112766143D02*
X148167286Y-112766143D01*
X147381571Y-112944714D02*
X147917286Y-113123286D01*
X147917286Y-112659000D01*
X150127857Y-113409000D02*
X150163571Y-113444714D01*
X150199286Y-113551857D01*
X150199286Y-113623286D01*
X150163571Y-113730429D01*
X150092143Y-113801857D01*
X150020714Y-113837572D01*
X149877857Y-113873286D01*
X149770714Y-113873286D01*
X149627857Y-113837572D01*
X149556429Y-113801857D01*
X149485000Y-113730429D01*
X149449286Y-113623286D01*
X149449286Y-113551857D01*
X149485000Y-113444714D01*
X149520714Y-113409000D01*
X149449286Y-112730429D02*
X149449286Y-113087572D01*
X149806429Y-113123286D01*
X149770714Y-113087572D01*
X149735000Y-113016143D01*
X149735000Y-112837572D01*
X149770714Y-112766143D01*
X149806429Y-112730429D01*
X149877857Y-112694714D01*
X150056429Y-112694714D01*
X150127857Y-112730429D01*
X150163571Y-112766143D01*
X150199286Y-112837572D01*
X150199286Y-113016143D01*
X150163571Y-113087572D01*
X150127857Y-113123286D01*
X147518381Y-132818095D02*
X146518381Y-132818095D01*
X146518381Y-132580000D01*
X146566000Y-132437142D01*
X146661238Y-132341904D01*
X146756476Y-132294285D01*
X146946952Y-132246666D01*
X147089810Y-132246666D01*
X147280286Y-132294285D01*
X147375524Y-132341904D01*
X147470762Y-132437142D01*
X147518381Y-132580000D01*
X147518381Y-132818095D01*
X146518381Y-131913333D02*
X146518381Y-131294285D01*
X146899333Y-131627619D01*
X146899333Y-131484761D01*
X146946952Y-131389523D01*
X146994571Y-131341904D01*
X147089810Y-131294285D01*
X147327905Y-131294285D01*
X147423143Y-131341904D01*
X147470762Y-131389523D01*
X147518381Y-131484761D01*
X147518381Y-131770476D01*
X147470762Y-131865714D01*
X147423143Y-131913333D01*
X156678381Y-139779333D02*
X157392667Y-139779333D01*
X157535524Y-139826953D01*
X157630762Y-139922191D01*
X157678381Y-140065048D01*
X157678381Y-140160286D01*
X157678381Y-138779333D02*
X157678381Y-139350762D01*
X157678381Y-139065048D02*
X156678381Y-139065048D01*
X156821238Y-139160286D01*
X156916476Y-139255524D01*
X156964095Y-139350762D01*
X149542667Y-124102762D02*
X149685524Y-124150381D01*
X149923620Y-124150381D01*
X150018858Y-124102762D01*
X150066477Y-124055143D01*
X150114096Y-123959905D01*
X150114096Y-123864667D01*
X150066477Y-123769429D01*
X150018858Y-123721810D01*
X149923620Y-123674190D01*
X149733143Y-123626571D01*
X149637905Y-123578952D01*
X149590286Y-123531333D01*
X149542667Y-123436095D01*
X149542667Y-123340857D01*
X149590286Y-123245619D01*
X149637905Y-123198000D01*
X149733143Y-123150381D01*
X149971239Y-123150381D01*
X150114096Y-123198000D01*
X150447429Y-123150381D02*
X150685524Y-124150381D01*
X150876001Y-123436095D01*
X151066477Y-124150381D01*
X151304572Y-123150381D01*
X152209334Y-124150381D02*
X151637905Y-124150381D01*
X151923619Y-124150381D02*
X151923619Y-123150381D01*
X151828381Y-123293238D01*
X151733143Y-123388476D01*
X151637905Y-123436095D01*
X155789334Y-134977143D02*
X155741715Y-135024762D01*
X155598858Y-135072381D01*
X155503620Y-135072381D01*
X155360762Y-135024762D01*
X155265524Y-134929524D01*
X155217905Y-134834286D01*
X155170286Y-134643810D01*
X155170286Y-134500952D01*
X155217905Y-134310476D01*
X155265524Y-134215238D01*
X155360762Y-134120000D01*
X155503620Y-134072381D01*
X155598858Y-134072381D01*
X155741715Y-134120000D01*
X155789334Y-134167619D01*
X156122667Y-134072381D02*
X156789334Y-134072381D01*
X156360762Y-135072381D01*
X159456381Y-138533095D02*
X158456381Y-138533095D01*
X158456381Y-138295000D01*
X158504000Y-138152142D01*
X158599238Y-138056904D01*
X158694476Y-138009285D01*
X158884952Y-137961666D01*
X159027810Y-137961666D01*
X159218286Y-138009285D01*
X159313524Y-138056904D01*
X159408762Y-138152142D01*
X159456381Y-138295000D01*
X159456381Y-138533095D01*
X158789714Y-137104523D02*
X159456381Y-137104523D01*
X158408762Y-137342619D02*
X159123048Y-137580714D01*
X159123048Y-136961666D01*
X163520381Y-141962095D02*
X162520381Y-141962095D01*
X162520381Y-141724000D01*
X162568000Y-141581142D01*
X162663238Y-141485904D01*
X162758476Y-141438285D01*
X162948952Y-141390666D01*
X163091810Y-141390666D01*
X163282286Y-141438285D01*
X163377524Y-141485904D01*
X163472762Y-141581142D01*
X163520381Y-141724000D01*
X163520381Y-141962095D01*
X162520381Y-140485904D02*
X162520381Y-140962095D01*
X162996571Y-141009714D01*
X162948952Y-140962095D01*
X162901333Y-140866857D01*
X162901333Y-140628761D01*
X162948952Y-140533523D01*
X162996571Y-140485904D01*
X163091810Y-140438285D01*
X163329905Y-140438285D01*
X163425143Y-140485904D01*
X163472762Y-140533523D01*
X163520381Y-140628761D01*
X163520381Y-140866857D01*
X163472762Y-140962095D01*
X163425143Y-141009714D01*
X170378381Y-138088666D02*
X169902190Y-138422000D01*
X170378381Y-138660095D02*
X169378381Y-138660095D01*
X169378381Y-138279142D01*
X169426000Y-138183904D01*
X169473619Y-138136285D01*
X169568857Y-138088666D01*
X169711714Y-138088666D01*
X169806952Y-138136285D01*
X169854571Y-138183904D01*
X169902190Y-138279142D01*
X169902190Y-138660095D01*
X169378381Y-137231523D02*
X169378381Y-137422000D01*
X169426000Y-137517238D01*
X169473619Y-137564857D01*
X169616476Y-137660095D01*
X169806952Y-137707714D01*
X170187905Y-137707714D01*
X170283143Y-137660095D01*
X170330762Y-137612476D01*
X170378381Y-137517238D01*
X170378381Y-137326761D01*
X170330762Y-137231523D01*
X170283143Y-137183904D01*
X170187905Y-137136285D01*
X169949810Y-137136285D01*
X169854571Y-137183904D01*
X169806952Y-137231523D01*
X169759333Y-137326761D01*
X169759333Y-137517238D01*
X169806952Y-137612476D01*
X169854571Y-137660095D01*
X169949810Y-137707714D01*
X166060381Y-141390666D02*
X165584190Y-141724000D01*
X166060381Y-141962095D02*
X165060381Y-141962095D01*
X165060381Y-141581142D01*
X165108000Y-141485904D01*
X165155619Y-141438285D01*
X165250857Y-141390666D01*
X165393714Y-141390666D01*
X165488952Y-141438285D01*
X165536571Y-141485904D01*
X165584190Y-141581142D01*
X165584190Y-141962095D01*
X165060381Y-141057333D02*
X165060381Y-140390666D01*
X166060381Y-140819238D01*
X155826627Y-92232741D02*
X155493293Y-91756550D01*
X155255198Y-92232741D02*
X155255198Y-91232741D01*
X155636151Y-91232741D01*
X155731389Y-91280360D01*
X155779008Y-91327979D01*
X155826627Y-91423217D01*
X155826627Y-91566074D01*
X155779008Y-91661312D01*
X155731389Y-91708931D01*
X155636151Y-91756550D01*
X155255198Y-91756550D01*
X156255198Y-91708931D02*
X156588532Y-91708931D01*
X156731389Y-92232741D02*
X156255198Y-92232741D01*
X156255198Y-91232741D01*
X156731389Y-91232741D01*
X157493294Y-91708931D02*
X157159960Y-91708931D01*
X157159960Y-92232741D02*
X157159960Y-91232741D01*
X157636151Y-91232741D01*
X158159960Y-91232741D02*
X158159960Y-91470836D01*
X157921865Y-91375598D02*
X158159960Y-91470836D01*
X158398056Y-91375598D01*
X158017103Y-91661312D02*
X158159960Y-91470836D01*
X158302818Y-91661312D01*
X158921865Y-91232741D02*
X158921865Y-91470836D01*
X158683770Y-91375598D02*
X158921865Y-91470836D01*
X159159961Y-91375598D01*
X158779008Y-91661312D02*
X158921865Y-91470836D01*
X159064723Y-91661312D01*
X139112667Y-104310381D02*
X139112667Y-105024667D01*
X139065047Y-105167524D01*
X138969809Y-105262762D01*
X138826952Y-105310381D01*
X138731714Y-105310381D01*
X139541238Y-104405619D02*
X139588857Y-104358000D01*
X139684095Y-104310381D01*
X139922191Y-104310381D01*
X140017429Y-104358000D01*
X140065048Y-104405619D01*
X140112667Y-104500857D01*
X140112667Y-104596095D01*
X140065048Y-104738952D01*
X139493619Y-105310381D01*
X140112667Y-105310381D01*
X174672667Y-101770381D02*
X174672667Y-102484667D01*
X174625047Y-102627524D01*
X174529809Y-102722762D01*
X174386952Y-102770381D01*
X174291714Y-102770381D01*
X175053619Y-101770381D02*
X175672667Y-101770381D01*
X175339333Y-102151333D01*
X175482191Y-102151333D01*
X175577429Y-102198952D01*
X175625048Y-102246571D01*
X175672667Y-102341810D01*
X175672667Y-102579905D01*
X175625048Y-102675143D01*
X175577429Y-102722762D01*
X175482191Y-102770381D01*
X175196476Y-102770381D01*
X175101238Y-102722762D01*
X175053619Y-102675143D01*
X168092381Y-115101666D02*
X167616190Y-115435000D01*
X168092381Y-115673095D02*
X167092381Y-115673095D01*
X167092381Y-115292142D01*
X167140000Y-115196904D01*
X167187619Y-115149285D01*
X167282857Y-115101666D01*
X167425714Y-115101666D01*
X167520952Y-115149285D01*
X167568571Y-115196904D01*
X167616190Y-115292142D01*
X167616190Y-115673095D01*
X167092381Y-114768333D02*
X167092381Y-114149285D01*
X167473333Y-114482619D01*
X167473333Y-114339761D01*
X167520952Y-114244523D01*
X167568571Y-114196904D01*
X167663810Y-114149285D01*
X167901905Y-114149285D01*
X167997143Y-114196904D01*
X168044762Y-114244523D01*
X168092381Y-114339761D01*
X168092381Y-114625476D01*
X168044762Y-114720714D01*
X167997143Y-114768333D01*
X164996905Y-120467381D02*
X164996905Y-119467381D01*
X165235000Y-119467381D01*
X165377858Y-119515000D01*
X165473096Y-119610238D01*
X165520715Y-119705476D01*
X165568334Y-119895952D01*
X165568334Y-120038810D01*
X165520715Y-120229286D01*
X165473096Y-120324524D01*
X165377858Y-120419762D01*
X165235000Y-120467381D01*
X164996905Y-120467381D01*
X166520715Y-120467381D02*
X165949286Y-120467381D01*
X166235000Y-120467381D02*
X166235000Y-119467381D01*
X166139762Y-119610238D01*
X166044524Y-119705476D01*
X165949286Y-119753095D01*
X151344381Y-122245333D02*
X152058667Y-122245333D01*
X152201524Y-122292953D01*
X152296762Y-122388191D01*
X152344381Y-122531048D01*
X152344381Y-122626286D01*
X152344381Y-121769143D02*
X151344381Y-121769143D01*
X151344381Y-121388190D01*
X151392000Y-121292952D01*
X151439619Y-121245333D01*
X151534857Y-121197714D01*
X151677714Y-121197714D01*
X151772952Y-121245333D01*
X151820571Y-121292952D01*
X151868190Y-121388190D01*
X151868190Y-121769143D01*
X152344381Y-120245333D02*
X152344381Y-120816762D01*
X152344381Y-120531048D02*
X151344381Y-120531048D01*
X151487238Y-120626286D01*
X151582476Y-120721524D01*
X151630095Y-120816762D01*
X165092143Y-126817381D02*
X164758809Y-126341190D01*
X164520714Y-126817381D02*
X164520714Y-125817381D01*
X164901667Y-125817381D01*
X164996905Y-125865000D01*
X165044524Y-125912619D01*
X165092143Y-126007857D01*
X165092143Y-126150714D01*
X165044524Y-126245952D01*
X164996905Y-126293571D01*
X164901667Y-126341190D01*
X164520714Y-126341190D01*
X166044524Y-126817381D02*
X165473095Y-126817381D01*
X165758809Y-126817381D02*
X165758809Y-125817381D01*
X165663571Y-125960238D01*
X165568333Y-126055476D01*
X165473095Y-126103095D01*
X166996905Y-126817381D02*
X166425476Y-126817381D01*
X166711190Y-126817381D02*
X166711190Y-125817381D01*
X166615952Y-125960238D01*
X166520714Y-126055476D01*
X166425476Y-126103095D01*
%LPC*%
D15*
X151956000Y-113284000D03*
X153956000Y-113284000D03*
X155956000Y-113284000D03*
X157956000Y-113284000D03*
X159956000Y-113284000D03*
X161956000Y-113284000D03*
D16*
X148966000Y-97534000D03*
D17*
X148966000Y-99534000D03*
X148966000Y-101534000D03*
X148966000Y-103534000D03*
X148966000Y-105534000D03*
X148966000Y-107534000D03*
X148966000Y-109534000D03*
X148966000Y-111534000D03*
X164966000Y-111534000D03*
X164966000Y-109534000D03*
X164966000Y-107534000D03*
X164966000Y-105534000D03*
X164966000Y-103534000D03*
X164966000Y-101534000D03*
X164966000Y-99534000D03*
X164966000Y-97534000D03*
D18*
X147320000Y-115082000D03*
X147320000Y-117582000D03*
X149860000Y-115082000D03*
X149860000Y-117582000D03*
D19*
X145288000Y-130730000D03*
X145288000Y-133430000D03*
D20*
X150800000Y-136640000D03*
X151600000Y-136640000D03*
X152400000Y-136640000D03*
X153200000Y-136640000D03*
X154000000Y-136640000D03*
D21*
X147950000Y-136740000D03*
X147950000Y-142240000D03*
X156850000Y-136740000D03*
X156850000Y-142240000D03*
D22*
X150200000Y-139240000D03*
X154600000Y-139240000D03*
D23*
X158496000Y-130556000D03*
X150546000Y-130556000D03*
X158496000Y-126056000D03*
X150546000Y-126056000D03*
D24*
X151150000Y-133604000D03*
X153650000Y-133604000D03*
D19*
X160528000Y-136492000D03*
X160528000Y-139192000D03*
X163068000Y-136492000D03*
X163068000Y-139192000D03*
X168148000Y-139192000D03*
X168148000Y-136492000D03*
X165608000Y-139192000D03*
X165608000Y-136492000D03*
D25*
X142161260Y-139778740D03*
X142161260Y-99778820D03*
X172161200Y-99778820D03*
X172161200Y-139778740D03*
D26*
X139446000Y-107188000D03*
D27*
X139446000Y-109728000D03*
X139446000Y-112268000D03*
X139446000Y-114808000D03*
X139446000Y-117348000D03*
X139446000Y-119888000D03*
X139446000Y-122428000D03*
X139446000Y-124968000D03*
X139446000Y-127508000D03*
X139446000Y-130048000D03*
X139446000Y-132588000D03*
D26*
X175006000Y-104648000D03*
D27*
X175006000Y-107188000D03*
X175006000Y-109728000D03*
X175006000Y-112268000D03*
X175006000Y-114808000D03*
X175006000Y-117348000D03*
X175006000Y-119888000D03*
X175006000Y-122428000D03*
X175006000Y-124968000D03*
X175006000Y-127508000D03*
X175006000Y-130048000D03*
D19*
X167640000Y-112395000D03*
X167640000Y-109695000D03*
D28*
X164385000Y-121920000D03*
X167085000Y-121920000D03*
D26*
X159512000Y-121412000D03*
D27*
X156972000Y-121412000D03*
X154432000Y-121412000D03*
D28*
X167085000Y-124460000D03*
X164385000Y-124460000D03*
M02*
