G04 #@! TF.FileFunction,Soldermask,Bot*
%FSLAX46Y46*%
G04 Gerber Fmt 4.6, Leading zero omitted, Abs format (unit mm)*
G04 Created by KiCad (PCBNEW 4.0.7) date 04/15/18 17:09:11*
%MOMM*%
%LPD*%
G01*
G04 APERTURE LIST*
%ADD10C,0.100000*%
%ADD11R,1.650000X1.900000*%
%ADD12R,1.900000X1.650000*%
%ADD13C,1.300000*%
%ADD14R,1.900000X1.700000*%
%ADD15R,1.600000X0.800000*%
%ADD16R,1.700000X1.900000*%
%ADD17R,4.200000X2.400000*%
%ADD18R,1.900000X2.400000*%
%ADD19C,3.900120*%
%ADD20R,2.100000X2.100000*%
%ADD21O,2.100000X2.100000*%
G04 APERTURE END LIST*
D10*
D11*
X154686000Y-108438000D03*
X154686000Y-105938000D03*
D12*
X159278000Y-110744000D03*
X161778000Y-110744000D03*
D13*
X150200000Y-139240000D03*
X154600000Y-139240000D03*
D14*
X142922000Y-133604000D03*
X145622000Y-133604000D03*
D15*
X165608000Y-125842000D03*
X165608000Y-126492000D03*
X165608000Y-127142000D03*
X165608000Y-127792000D03*
X165608000Y-128442000D03*
X165608000Y-129092000D03*
X165608000Y-129742000D03*
X165608000Y-130392000D03*
X158708000Y-130392000D03*
X158708000Y-129742000D03*
X158708000Y-129092000D03*
X158708000Y-128442000D03*
X158708000Y-127792000D03*
X158708000Y-127142000D03*
X158708000Y-126492000D03*
X158708000Y-125842000D03*
D11*
X164592000Y-139152000D03*
X164592000Y-136652000D03*
X159512000Y-139152000D03*
X159512000Y-136652000D03*
D12*
X156190000Y-130048000D03*
X153690000Y-130048000D03*
D16*
X166624000Y-136652000D03*
X166624000Y-139352000D03*
X161544000Y-136652000D03*
X161544000Y-139352000D03*
D17*
X159512000Y-102006000D03*
D18*
X159512000Y-108306000D03*
X157212000Y-108306000D03*
X161812000Y-108306000D03*
D19*
X142161260Y-139778740D03*
X142161260Y-99778820D03*
X172161200Y-99778820D03*
X172161200Y-139778740D03*
D20*
X139446000Y-107188000D03*
D21*
X139446000Y-109728000D03*
X139446000Y-112268000D03*
X139446000Y-114808000D03*
X139446000Y-117348000D03*
X139446000Y-119888000D03*
X139446000Y-122428000D03*
X139446000Y-124968000D03*
X139446000Y-127508000D03*
X139446000Y-130048000D03*
X139446000Y-132588000D03*
D20*
X175006000Y-104648000D03*
D21*
X175006000Y-107188000D03*
X175006000Y-109728000D03*
X175006000Y-112268000D03*
X175006000Y-114808000D03*
X175006000Y-117348000D03*
X175006000Y-119888000D03*
X175006000Y-122428000D03*
X175006000Y-124968000D03*
X175006000Y-127508000D03*
X175006000Y-130048000D03*
D14*
X145622000Y-131064000D03*
X142922000Y-131064000D03*
D11*
X154940000Y-127615000D03*
X154940000Y-125115000D03*
D20*
X159512000Y-121412000D03*
D21*
X156972000Y-121412000D03*
X154432000Y-121412000D03*
D14*
X156892000Y-118618000D03*
X159592000Y-118618000D03*
M02*
