G04 #@! TF.FileFunction,Soldermask,Top*
%FSLAX46Y46*%
G04 Gerber Fmt 4.6, Leading zero omitted, Abs format (unit mm)*
G04 Created by KiCad (PCBNEW 4.0.7) date 02/11/18 23:28:48*
%MOMM*%
%LPD*%
G01*
G04 APERTURE LIST*
%ADD10C,0.100000*%
%ADD11O,1.500000X2.800000*%
%ADD12R,2.800000X1.500000*%
%ADD13O,2.800000X1.500000*%
%ADD14R,1.650000X1.900000*%
%ADD15R,1.700000X1.900000*%
%ADD16R,0.900000X2.700000*%
%ADD17R,2.400000X2.900000*%
%ADD18C,1.300000*%
%ADD19R,1.950000X1.700000*%
%ADD20R,1.900000X1.650000*%
%ADD21C,3.900120*%
%ADD22R,2.100000X2.100000*%
%ADD23O,2.100000X2.100000*%
%ADD24R,1.900000X1.700000*%
G04 APERTURE END LIST*
D10*
D11*
X151956000Y-113284000D03*
X153956000Y-113284000D03*
X155956000Y-113284000D03*
X157956000Y-113284000D03*
X159956000Y-113284000D03*
X161956000Y-113284000D03*
D12*
X148966000Y-97534000D03*
D13*
X148966000Y-99534000D03*
X148966000Y-101534000D03*
X148966000Y-103534000D03*
X148966000Y-105534000D03*
X148966000Y-107534000D03*
X148966000Y-109534000D03*
X148966000Y-111534000D03*
X164966000Y-111534000D03*
X164966000Y-109534000D03*
X164966000Y-107534000D03*
X164966000Y-105534000D03*
X164966000Y-103534000D03*
X164966000Y-101534000D03*
X164966000Y-99534000D03*
X164966000Y-97534000D03*
D14*
X147320000Y-115082000D03*
X147320000Y-117582000D03*
X149860000Y-115082000D03*
X149860000Y-117582000D03*
D15*
X145288000Y-130730000D03*
X145288000Y-133430000D03*
D16*
X150800000Y-136640000D03*
X151600000Y-136640000D03*
X152400000Y-136640000D03*
X153200000Y-136640000D03*
X154000000Y-136640000D03*
D17*
X147950000Y-136740000D03*
X147950000Y-142240000D03*
X156850000Y-136740000D03*
X156850000Y-142240000D03*
D18*
X150200000Y-139240000D03*
X154600000Y-139240000D03*
D19*
X158496000Y-130556000D03*
X150546000Y-130556000D03*
X158496000Y-126056000D03*
X150546000Y-126056000D03*
D20*
X151150000Y-133604000D03*
X153650000Y-133604000D03*
D15*
X160528000Y-136492000D03*
X160528000Y-139192000D03*
X163068000Y-136492000D03*
X163068000Y-139192000D03*
X168148000Y-139192000D03*
X168148000Y-136492000D03*
X165608000Y-139192000D03*
X165608000Y-136492000D03*
D21*
X142161260Y-139778740D03*
X142161260Y-99778820D03*
X172161200Y-99778820D03*
X172161200Y-139778740D03*
D22*
X139446000Y-107188000D03*
D23*
X139446000Y-109728000D03*
X139446000Y-112268000D03*
X139446000Y-114808000D03*
X139446000Y-117348000D03*
X139446000Y-119888000D03*
X139446000Y-122428000D03*
X139446000Y-124968000D03*
X139446000Y-127508000D03*
X139446000Y-130048000D03*
X139446000Y-132588000D03*
D22*
X175006000Y-104648000D03*
D23*
X175006000Y-107188000D03*
X175006000Y-109728000D03*
X175006000Y-112268000D03*
X175006000Y-114808000D03*
X175006000Y-117348000D03*
X175006000Y-119888000D03*
X175006000Y-122428000D03*
X175006000Y-124968000D03*
X175006000Y-127508000D03*
X175006000Y-130048000D03*
D15*
X167640000Y-112395000D03*
X167640000Y-109695000D03*
D24*
X164385000Y-121920000D03*
X167085000Y-121920000D03*
D22*
X159512000Y-121412000D03*
D23*
X156972000Y-121412000D03*
X154432000Y-121412000D03*
D24*
X167085000Y-124460000D03*
X164385000Y-124460000D03*
M02*
