M48
;DRILL file {KiCad 4.0.7} date 02/11/18 23:28:53
;FORMAT={-:-/ absolute / inch / decimal}
FMAT,2
INCH,TZ
T1C0.024
T2C0.031
T3C0.039
T4C0.035
T5C0.138
%
G90
G05
M72
T1
X5.45Y-5.35
X5.45Y-5.65
X5.4509Y-5.4999
X5.5Y-3.78
X5.64Y-4.67
X5.65Y-5.65
X5.6969Y-3.78
X5.7212Y-5.3827
X5.724Y-5.0514
X5.7366Y-3.8409
X5.8Y-5.14
X5.8937Y-3.78
X5.925Y-5.65
X5.9646Y-5.5127
X5.9758Y-5.5665
X6.041Y-5.4605
X6.05Y-5.18
X6.075Y-5.65
X6.0906Y-3.78
X6.0914Y-4.0953
X6.1Y-5.38
X6.13Y-5.26
X6.175Y-5.
X6.2Y-5.26
X6.2268Y-4.553
X6.2552Y-4.59
X6.27Y-5.26
X6.2874Y-3.78
X6.331Y-5.0041
X6.3556Y-5.1361
X6.37Y-4.15
X6.3837Y-5.0559
X6.4Y-5.65
X6.4413Y-5.138
X6.4414Y-4.5823
X6.4843Y-3.78
X6.4912Y-4.6441
X6.4938Y-4.5396
X6.5Y-5.28
X6.5741Y-4.231
X6.6035Y-3.9165
X6.6049Y-4.1613
X6.6073Y-5.1099
X6.61Y-5.04
X6.61Y-5.19
X6.61Y-5.26
X6.6311Y-3.8265
X6.65Y-5.65
X6.6811Y-3.78
X6.7Y-4.95
X6.725Y-4.875
X6.878Y-3.78
X6.9Y-5.65
X6.9014Y-5.3402
X6.9014Y-5.4998
T2
X5.8268Y-4.9137
X5.84Y-5.26
X6.2799Y-4.1646
X6.325Y-5.6
X6.6245Y-5.6
T3
X5.49Y-4.22
X5.49Y-4.32
X5.49Y-4.42
X5.49Y-4.52
X5.49Y-4.62
X5.49Y-4.72
X5.49Y-4.82
X5.49Y-4.92
X5.49Y-5.02
X5.49Y-5.12
X5.49Y-5.22
X6.08Y-4.78
X6.18Y-4.78
X6.28Y-4.78
X6.89Y-4.12
X6.89Y-4.22
X6.89Y-4.32
X6.89Y-4.42
X6.89Y-4.52
X6.89Y-4.62
X6.89Y-4.72
X6.89Y-4.82
X6.89Y-4.92
X6.89Y-5.02
X6.89Y-5.12
T4
X5.9134Y-5.4819
X6.0866Y-5.4819
T5
X5.5969Y-3.9283
X5.5969Y-5.5031
X6.778Y-3.9283
X6.778Y-5.5031
T0
M30
