G04 #@! TF.FileFunction,Copper,L1,Top,Signal*
%FSLAX46Y46*%
G04 Gerber Fmt 4.6, Leading zero omitted, Abs format (unit mm)*
G04 Created by KiCad (PCBNEW 4.0.7) date 04/15/18 17:09:11*
%MOMM*%
%LPD*%
G01*
G04 APERTURE LIST*
%ADD10C,0.100000*%
%ADD11O,1.100000X2.400000*%
%ADD12R,2.400000X1.100000*%
%ADD13O,2.400000X1.100000*%
%ADD14R,1.250000X1.500000*%
%ADD15R,1.300000X1.500000*%
%ADD16R,0.500000X2.300000*%
%ADD17R,2.000000X2.500000*%
%ADD18R,1.550000X1.300000*%
%ADD19R,1.500000X1.250000*%
%ADD20R,1.700000X1.700000*%
%ADD21O,1.700000X1.700000*%
%ADD22R,1.500000X1.300000*%
%ADD23C,0.800000*%
%ADD24C,1.000000*%
%ADD25C,0.250000*%
%ADD26C,0.500000*%
%ADD27C,0.254000*%
G04 APERTURE END LIST*
D10*
D11*
X151956000Y-113284000D03*
X153956000Y-113284000D03*
X155956000Y-113284000D03*
X157956000Y-113284000D03*
X159956000Y-113284000D03*
X161956000Y-113284000D03*
D12*
X148966000Y-97534000D03*
D13*
X148966000Y-99534000D03*
X148966000Y-101534000D03*
X148966000Y-103534000D03*
X148966000Y-105534000D03*
X148966000Y-107534000D03*
X148966000Y-109534000D03*
X148966000Y-111534000D03*
X164966000Y-111534000D03*
X164966000Y-109534000D03*
X164966000Y-107534000D03*
X164966000Y-105534000D03*
X164966000Y-103534000D03*
X164966000Y-101534000D03*
X164966000Y-99534000D03*
X164966000Y-97534000D03*
D14*
X147320000Y-115082000D03*
X147320000Y-117582000D03*
X149860000Y-115082000D03*
X149860000Y-117582000D03*
D15*
X145288000Y-130730000D03*
X145288000Y-133430000D03*
D16*
X150800000Y-136640000D03*
X151600000Y-136640000D03*
X152400000Y-136640000D03*
X153200000Y-136640000D03*
X154000000Y-136640000D03*
D17*
X147950000Y-136740000D03*
X147950000Y-142240000D03*
X156850000Y-136740000D03*
X156850000Y-142240000D03*
D18*
X158496000Y-130556000D03*
X150546000Y-130556000D03*
X158496000Y-126056000D03*
X150546000Y-126056000D03*
D19*
X151150000Y-133604000D03*
X153650000Y-133604000D03*
D15*
X160528000Y-136492000D03*
X160528000Y-139192000D03*
X163068000Y-136492000D03*
X163068000Y-139192000D03*
X168148000Y-139192000D03*
X168148000Y-136492000D03*
X165608000Y-139192000D03*
X165608000Y-136492000D03*
D20*
X139446000Y-107188000D03*
D21*
X139446000Y-109728000D03*
X139446000Y-112268000D03*
X139446000Y-114808000D03*
X139446000Y-117348000D03*
X139446000Y-119888000D03*
X139446000Y-122428000D03*
X139446000Y-124968000D03*
X139446000Y-127508000D03*
X139446000Y-130048000D03*
X139446000Y-132588000D03*
D20*
X175006000Y-104648000D03*
D21*
X175006000Y-107188000D03*
X175006000Y-109728000D03*
X175006000Y-112268000D03*
X175006000Y-114808000D03*
X175006000Y-117348000D03*
X175006000Y-119888000D03*
X175006000Y-122428000D03*
X175006000Y-124968000D03*
X175006000Y-127508000D03*
X175006000Y-130048000D03*
D15*
X167640000Y-112395000D03*
X167640000Y-109695000D03*
D22*
X164385000Y-121920000D03*
X167085000Y-121920000D03*
D20*
X159512000Y-121412000D03*
D21*
X156972000Y-121412000D03*
X154432000Y-121412000D03*
D22*
X167085000Y-124460000D03*
X164385000Y-124460000D03*
D23*
X175296396Y-135641648D03*
X175296396Y-139695041D03*
X138453099Y-139696702D03*
X156845000Y-127000000D03*
X170815000Y-123825000D03*
X170180000Y-125730000D03*
X153441013Y-138696837D03*
X154940000Y-136652000D03*
X154720519Y-104020873D03*
X154305000Y-143510000D03*
X150495000Y-143510000D03*
X167894000Y-133604000D03*
X167894000Y-131826000D03*
X175260000Y-143510000D03*
X168910000Y-143510000D03*
X162560000Y-143510000D03*
X143510000Y-143510000D03*
X138430000Y-143510000D03*
X138430000Y-135890000D03*
X167894000Y-128016000D03*
X143256000Y-118618000D03*
X167825553Y-129790349D03*
X174700000Y-96012000D03*
X169700000Y-96012000D03*
X164700000Y-96012000D03*
X159700000Y-96012000D03*
X154700000Y-96012000D03*
X149700000Y-96012000D03*
X144700000Y-96012000D03*
X139700000Y-96012000D03*
X153670000Y-131572000D03*
X147320000Y-130556000D03*
X159258000Y-133604000D03*
X157480000Y-133604000D03*
X155702000Y-133604000D03*
X161798000Y-105410000D03*
X145317676Y-136720757D03*
D24*
X168262222Y-142239991D03*
X160655000Y-142240000D03*
X148336000Y-133604000D03*
D23*
X151786257Y-141389990D03*
X151500076Y-140023632D03*
X162145799Y-128420216D03*
X161431269Y-130457691D03*
X165100000Y-134112000D03*
X160808098Y-127103965D03*
X163609176Y-130506262D03*
D24*
X147999735Y-124806961D03*
X159509176Y-105779722D03*
D23*
X167764557Y-105696190D03*
X168430825Y-97192905D03*
X167729231Y-99478072D03*
X164943598Y-115306056D03*
X158159659Y-115646053D03*
X163612125Y-116390012D03*
X158881632Y-116586806D03*
X145389586Y-128306084D03*
X145710107Y-97559759D03*
X164875317Y-117960468D03*
X166982902Y-107467941D03*
D25*
X150495000Y-143510000D02*
X149929315Y-143510000D01*
X149929315Y-143510000D02*
X149277099Y-144162216D01*
X149277099Y-144162216D02*
X144162216Y-144162216D01*
X144162216Y-144162216D02*
X143510000Y-143510000D01*
X175006000Y-130048000D02*
X175006000Y-135351252D01*
X175006000Y-135351252D02*
X175296396Y-135641648D01*
X175296396Y-139695041D02*
X175296396Y-135641648D01*
X168910000Y-143510000D02*
X175260000Y-143510000D01*
X162560000Y-143510000D02*
X168910000Y-143510000D01*
X143510000Y-143510000D02*
X138430000Y-143510000D01*
X138430000Y-143510000D02*
X138430000Y-139719801D01*
X138430000Y-139719801D02*
X138453099Y-139696702D01*
X138430000Y-139673603D02*
X138453099Y-139696702D01*
X138430000Y-135890000D02*
X138430000Y-139673603D01*
X170180000Y-125730000D02*
X170180000Y-124460000D01*
X170180000Y-124460000D02*
X170815000Y-123825000D01*
X153200000Y-138455824D02*
X153441013Y-138696837D01*
X153200000Y-136640000D02*
X153200000Y-138455824D01*
X154000000Y-136640000D02*
X154928000Y-136640000D01*
X154928000Y-136640000D02*
X154940000Y-136652000D01*
X154305000Y-143510000D02*
X154867425Y-143510000D01*
X154867425Y-143510000D02*
X155445592Y-144088167D01*
X155445592Y-144088167D02*
X158384081Y-144088167D01*
X158384081Y-144088167D02*
X158962248Y-143510000D01*
X158962248Y-143510000D02*
X159385000Y-143510000D01*
X174752000Y-130048000D02*
X175247110Y-130543110D01*
X167825553Y-129790349D02*
X167825553Y-131757553D01*
X167825553Y-131757553D02*
X167894000Y-131826000D01*
X159385000Y-143510000D02*
X162560000Y-143510000D01*
X147320000Y-117582000D02*
X144292000Y-117582000D01*
X144292000Y-117582000D02*
X143256000Y-118618000D01*
X161798000Y-105410000D02*
X161798000Y-98110000D01*
X161798000Y-98110000D02*
X159700000Y-96012000D01*
X169700000Y-96012000D02*
X174700000Y-96012000D01*
X164700000Y-96012000D02*
X169700000Y-96012000D01*
X159700000Y-96012000D02*
X164700000Y-96012000D01*
X154700000Y-96012000D02*
X159700000Y-96012000D01*
X149700000Y-96012000D02*
X154700000Y-96012000D01*
X144700000Y-96012000D02*
X149700000Y-96012000D01*
X139700000Y-96012000D02*
X144700000Y-96012000D01*
X150546000Y-130556000D02*
X147320000Y-130556000D01*
X157480000Y-133604000D02*
X159258000Y-133604000D01*
X153650000Y-133604000D02*
X155702000Y-133604000D01*
X145288000Y-133430000D02*
X145288000Y-136691081D01*
X145288000Y-136691081D02*
X145317676Y-136720757D01*
X139700000Y-107188000D02*
X140471811Y-107188000D01*
X140471811Y-107188000D02*
X148125811Y-99534000D01*
X148125811Y-99534000D02*
X148966000Y-99534000D01*
X139700000Y-109728000D02*
X140669711Y-109728000D01*
X140669711Y-109728000D02*
X146863711Y-103534000D01*
X146863711Y-103534000D02*
X148966000Y-103534000D01*
X164966000Y-101534000D02*
X167999977Y-101534000D01*
X173109994Y-108547960D02*
X174290034Y-109728000D01*
X167999977Y-101534000D02*
X173109994Y-106644017D01*
X173109994Y-106644017D02*
X173109994Y-108547960D01*
X174290034Y-109728000D02*
X174752000Y-109728000D01*
X164966000Y-103534000D02*
X168082896Y-103534000D01*
X168082896Y-103534000D02*
X171769030Y-107220134D01*
X171769030Y-107220134D02*
X171769030Y-109402805D01*
X171769030Y-109402805D02*
X174634225Y-112268000D01*
X174634225Y-112268000D02*
X174752000Y-112268000D01*
D26*
X160655000Y-142240000D02*
X168262213Y-142240000D01*
X168262213Y-142240000D02*
X168262222Y-142239991D01*
X151150000Y-133604000D02*
X148336000Y-133604000D01*
X151150000Y-133604000D02*
X151025000Y-133604000D01*
X150800000Y-136640000D02*
X150800000Y-133954000D01*
X150800000Y-133954000D02*
X151150000Y-133604000D01*
D25*
X152186256Y-140989991D02*
X151786257Y-141389990D01*
X152400000Y-136640000D02*
X152400000Y-140776247D01*
X152400000Y-140776247D02*
X152186256Y-140989991D01*
X151600000Y-139923708D02*
X151500076Y-140023632D01*
X151600000Y-136640000D02*
X151600000Y-139923708D01*
X161431269Y-130457691D02*
X161431269Y-129744074D01*
X161431269Y-129744074D02*
X162145799Y-129029544D01*
X162145799Y-129029544D02*
X162145799Y-128420216D01*
X165608000Y-136492000D02*
X165608000Y-134620000D01*
X165608000Y-134620000D02*
X165100000Y-134112000D01*
X168148000Y-136492000D02*
X165608000Y-136492000D01*
X160528000Y-136492000D02*
X160528000Y-127953499D01*
X160528000Y-127953499D02*
X160808098Y-127673401D01*
X160808098Y-127673401D02*
X160808098Y-127103965D01*
X167640000Y-141224000D02*
X168148000Y-140716000D01*
X168148000Y-140716000D02*
X168148000Y-139192000D01*
X161036000Y-141224000D02*
X167640000Y-141224000D01*
X160528000Y-140716000D02*
X161036000Y-141224000D01*
X160528000Y-139192000D02*
X160528000Y-140716000D01*
X163068000Y-131047438D02*
X163609176Y-130506262D01*
X163068000Y-136492000D02*
X163068000Y-131047438D01*
X165608000Y-139192000D02*
X163068000Y-139192000D01*
X139700000Y-112268000D02*
X139914649Y-112268000D01*
X139914649Y-112268000D02*
X146648649Y-105534000D01*
X146648649Y-105534000D02*
X148966000Y-105534000D01*
X139700000Y-114808000D02*
X140052056Y-114808000D01*
X140052056Y-114808000D02*
X147326056Y-107534000D01*
X147326056Y-107534000D02*
X148966000Y-107534000D01*
X139700000Y-117348000D02*
X139700000Y-117345968D01*
X139700000Y-117345968D02*
X147511968Y-109534000D01*
X147511968Y-109534000D02*
X148966000Y-109534000D01*
D26*
X161290000Y-124460000D02*
X160573442Y-123743442D01*
X160573442Y-123743442D02*
X155695919Y-123743442D01*
X155695919Y-123743442D02*
X154432000Y-122479523D01*
X154432000Y-122479523D02*
X154432000Y-121412000D01*
X175006000Y-127508000D02*
X170053000Y-127508000D01*
X170053000Y-127508000D02*
X168910000Y-126365000D01*
X168910000Y-126365000D02*
X165100000Y-126365000D01*
X164385000Y-125650000D02*
X164385000Y-124460000D01*
X165100000Y-126365000D02*
X164385000Y-125650000D01*
X161354673Y-124460000D02*
X161290000Y-124460000D01*
X164385000Y-124460000D02*
X161290000Y-124460000D01*
X151384000Y-110610893D02*
X150460893Y-111534000D01*
X174752000Y-127508000D02*
X174450058Y-127508000D01*
X139700000Y-130048000D02*
X141028055Y-130048000D01*
X141028055Y-130048000D02*
X146269094Y-124806961D01*
X146269094Y-124806961D02*
X147999735Y-124806961D01*
X151776278Y-105779722D02*
X159509176Y-105779722D01*
X151384000Y-106172000D02*
X151776278Y-105779722D01*
X148966000Y-111534000D02*
X148966000Y-112584000D01*
X148966000Y-112584000D02*
X149860000Y-113478000D01*
X149860000Y-113478000D02*
X149860000Y-115082000D01*
X149860000Y-115082000D02*
X147320000Y-115082000D01*
X151384000Y-102252000D02*
X151384000Y-106172000D01*
X151384000Y-106172000D02*
X151384000Y-110610893D01*
X150460893Y-111534000D02*
X148966000Y-111534000D01*
X148966000Y-101534000D02*
X150666000Y-101534000D01*
X150666000Y-101534000D02*
X151384000Y-102252000D01*
D25*
X174752000Y-114808000D02*
X174750426Y-114808000D01*
X174750426Y-114808000D02*
X170644050Y-110701624D01*
X170644050Y-110701624D02*
X170644050Y-108575683D01*
X170644050Y-108575683D02*
X167764557Y-105696190D01*
X164966000Y-105534000D02*
X167602367Y-105534000D01*
X167602367Y-105534000D02*
X167764557Y-105696190D01*
X167640000Y-109695000D02*
X168540000Y-109695000D01*
X168540000Y-109695000D02*
X169317082Y-110472082D01*
X169317082Y-110472082D02*
X169317082Y-112532172D01*
X169317082Y-112532172D02*
X174132910Y-117348000D01*
X174132910Y-117348000D02*
X175006000Y-117348000D01*
X164966000Y-109534000D02*
X167479000Y-109534000D01*
X167479000Y-109534000D02*
X167640000Y-109695000D01*
X139700000Y-119888000D02*
X140699415Y-119888000D01*
X149173611Y-121425044D02*
X151956000Y-118642655D01*
X140699415Y-119888000D02*
X142236459Y-121425044D01*
X142236459Y-121425044D02*
X149173611Y-121425044D01*
X151956000Y-118642655D02*
X151956000Y-113284000D01*
X139700000Y-122428000D02*
X141828652Y-122428000D01*
X141828652Y-122428000D02*
X142361461Y-121895191D01*
X153956000Y-117320625D02*
X153956000Y-113284000D01*
X142361461Y-121895191D02*
X149381434Y-121895191D01*
X149381434Y-121895191D02*
X153956000Y-117320625D01*
X139700000Y-124968000D02*
X139702102Y-124965898D01*
X159956000Y-114859183D02*
X159956000Y-113284000D01*
X139702102Y-124965898D02*
X140679049Y-124965898D01*
X140679049Y-124965898D02*
X143216947Y-122428000D01*
X143216947Y-122428000D02*
X149554612Y-122428000D01*
X149554612Y-122428000D02*
X154403963Y-117578649D01*
X154403963Y-117578649D02*
X159385616Y-117578649D01*
X159385616Y-117578649D02*
X159956000Y-117008265D01*
X159956000Y-117008265D02*
X159956000Y-114859183D01*
X139700000Y-127508000D02*
X144290488Y-122917512D01*
X144290488Y-122917512D02*
X149738629Y-122917512D01*
X149738629Y-122917512D02*
X154551078Y-118105063D01*
X154551078Y-118105063D02*
X159767854Y-118105063D01*
X159767854Y-118105063D02*
X161956000Y-115916917D01*
X161956000Y-115916917D02*
X161956000Y-113284000D01*
X164966000Y-97534000D02*
X167025618Y-97534000D01*
X167025618Y-97534000D02*
X167366715Y-97192903D01*
X167366715Y-97192903D02*
X168430823Y-97192903D01*
X168430823Y-97192903D02*
X168430825Y-97192905D01*
X173532395Y-97192905D02*
X168430825Y-97192905D01*
X174742919Y-98403429D02*
X173532395Y-97192905D01*
X174742919Y-104652879D02*
X174742919Y-98403429D01*
X174752000Y-107188000D02*
X174738094Y-107188000D01*
X174738094Y-107188000D02*
X167729231Y-100179137D01*
X167729231Y-100179137D02*
X167729231Y-99478072D01*
X164966000Y-99534000D02*
X167673303Y-99534000D01*
X167673303Y-99534000D02*
X167729231Y-99478072D01*
X170170056Y-115306056D02*
X165509283Y-115306056D01*
X165509283Y-115306056D02*
X164943598Y-115306056D01*
X174752000Y-119888000D02*
X170170056Y-115306056D01*
X157956000Y-115442394D02*
X158159659Y-115646053D01*
X157956000Y-113284000D02*
X157956000Y-115442394D01*
X164177810Y-116390012D02*
X163612125Y-116390012D01*
X168714012Y-116390012D02*
X164177810Y-116390012D01*
X174752000Y-122428000D02*
X168714012Y-116390012D01*
X157808806Y-116586806D02*
X158881632Y-116586806D01*
X155956000Y-114734000D02*
X157808806Y-116586806D01*
X155956000Y-113284000D02*
X155956000Y-114734000D01*
X147037767Y-128306084D02*
X145389586Y-128306084D01*
X150546000Y-126056000D02*
X149287851Y-126056000D01*
X149287851Y-126056000D02*
X147037767Y-128306084D01*
X145735866Y-97534000D02*
X145710107Y-97559759D01*
X148966000Y-97534000D02*
X145735866Y-97534000D01*
X158496000Y-126056000D02*
X150546000Y-126056000D01*
X164475318Y-118360467D02*
X164875317Y-117960468D01*
X164385000Y-121920000D02*
X164385000Y-118450785D01*
X164385000Y-118450785D02*
X164475318Y-118360467D01*
X166916843Y-107534000D02*
X166982902Y-107467941D01*
X164966000Y-107534000D02*
X166916843Y-107534000D01*
X167085000Y-121920000D02*
X167085000Y-124460000D01*
D27*
G36*
X176542420Y-95434026D02*
X176542420Y-144162500D01*
X137777500Y-144162500D01*
X137777500Y-140209884D01*
X139983823Y-140209884D01*
X140314562Y-141010334D01*
X140926445Y-141623285D01*
X141726316Y-141955421D01*
X142592404Y-141956177D01*
X143392854Y-141625438D01*
X144005805Y-141013555D01*
X144015585Y-140990000D01*
X146514635Y-140990000D01*
X146514635Y-143490000D01*
X146544409Y-143648237D01*
X146637927Y-143793567D01*
X146780619Y-143891064D01*
X146950000Y-143925365D01*
X148950000Y-143925365D01*
X149108237Y-143895591D01*
X149253567Y-143802073D01*
X149351064Y-143659381D01*
X149385365Y-143490000D01*
X149385365Y-140990000D01*
X149355591Y-140831763D01*
X149262073Y-140686433D01*
X149119381Y-140588936D01*
X148950000Y-140554635D01*
X146950000Y-140554635D01*
X146791763Y-140584409D01*
X146646433Y-140677927D01*
X146548936Y-140820619D01*
X146514635Y-140990000D01*
X144015585Y-140990000D01*
X144337941Y-140213684D01*
X144338697Y-139347596D01*
X144007958Y-138547146D01*
X143396075Y-137934195D01*
X142596204Y-137602059D01*
X141730116Y-137601303D01*
X140929666Y-137932042D01*
X140316715Y-138543925D01*
X139984579Y-139343796D01*
X139983823Y-140209884D01*
X137777500Y-140209884D01*
X137777500Y-132904980D01*
X138256511Y-132904980D01*
X138380755Y-133204964D01*
X138697944Y-133565652D01*
X139129018Y-133777501D01*
X139319000Y-133717193D01*
X139319000Y-132715000D01*
X139573000Y-132715000D01*
X139573000Y-133717193D01*
X139762982Y-133777501D01*
X140194056Y-133565652D01*
X140511245Y-133204964D01*
X140635489Y-132904980D01*
X140574627Y-132715000D01*
X139573000Y-132715000D01*
X139319000Y-132715000D01*
X138317373Y-132715000D01*
X138256511Y-132904980D01*
X137777500Y-132904980D01*
X137777500Y-132680000D01*
X144202635Y-132680000D01*
X144202635Y-134180000D01*
X144232409Y-134338237D01*
X144325927Y-134483567D01*
X144468619Y-134581064D01*
X144638000Y-134615365D01*
X144736000Y-134615365D01*
X144736000Y-136132883D01*
X144616988Y-136251687D01*
X144490820Y-136555535D01*
X144490533Y-136884536D01*
X144616171Y-137188603D01*
X144848606Y-137421445D01*
X145152454Y-137547613D01*
X145481455Y-137547900D01*
X145785522Y-137422262D01*
X146018364Y-137189827D01*
X146144532Y-136885979D01*
X146144819Y-136556978D01*
X146019181Y-136252911D01*
X145840000Y-136073416D01*
X145840000Y-135490000D01*
X146514635Y-135490000D01*
X146514635Y-137990000D01*
X146544409Y-138148237D01*
X146637927Y-138293567D01*
X146780619Y-138391064D01*
X146950000Y-138425365D01*
X148950000Y-138425365D01*
X149108237Y-138395591D01*
X149253567Y-138302073D01*
X149351064Y-138159381D01*
X149385365Y-137990000D01*
X149385365Y-135490000D01*
X149355591Y-135331763D01*
X149262073Y-135186433D01*
X149119381Y-135088936D01*
X148950000Y-135054635D01*
X146950000Y-135054635D01*
X146791763Y-135084409D01*
X146646433Y-135177927D01*
X146548936Y-135320619D01*
X146514635Y-135490000D01*
X145840000Y-135490000D01*
X145840000Y-134615365D01*
X145938000Y-134615365D01*
X146096237Y-134585591D01*
X146241567Y-134492073D01*
X146339064Y-134349381D01*
X146373365Y-134180000D01*
X146373365Y-133787583D01*
X147408839Y-133787583D01*
X147549669Y-134128417D01*
X147810211Y-134389414D01*
X148150799Y-134530839D01*
X148519583Y-134531161D01*
X148860417Y-134390331D01*
X148969939Y-134281000D01*
X149974419Y-134281000D01*
X149994409Y-134387237D01*
X150087927Y-134532567D01*
X150123000Y-134556531D01*
X150123000Y-135448693D01*
X150114635Y-135490000D01*
X150114635Y-137790000D01*
X150144409Y-137948237D01*
X150237927Y-138093567D01*
X150380619Y-138191064D01*
X150550000Y-138225365D01*
X151048000Y-138225365D01*
X151048000Y-138995768D01*
X150943918Y-138743869D01*
X150697429Y-138496949D01*
X150375211Y-138363153D01*
X150026319Y-138362849D01*
X149703869Y-138496082D01*
X149456949Y-138742571D01*
X149323153Y-139064789D01*
X149322849Y-139413681D01*
X149456082Y-139736131D01*
X149702571Y-139983051D01*
X150024789Y-140116847D01*
X150373681Y-140117151D01*
X150673102Y-139993433D01*
X150672933Y-140187411D01*
X150798571Y-140491478D01*
X151031006Y-140724320D01*
X151208629Y-140798075D01*
X151085569Y-140920920D01*
X150959401Y-141224768D01*
X150959114Y-141553769D01*
X151084752Y-141857836D01*
X151317187Y-142090678D01*
X151621035Y-142216846D01*
X151950036Y-142217133D01*
X152254103Y-142091495D01*
X152486945Y-141859060D01*
X152613113Y-141555212D01*
X152613298Y-141343595D01*
X152790323Y-141166570D01*
X152908304Y-140990000D01*
X155414635Y-140990000D01*
X155414635Y-143490000D01*
X155444409Y-143648237D01*
X155537927Y-143793567D01*
X155680619Y-143891064D01*
X155850000Y-143925365D01*
X157850000Y-143925365D01*
X158008237Y-143895591D01*
X158153567Y-143802073D01*
X158251064Y-143659381D01*
X158285365Y-143490000D01*
X158285365Y-140990000D01*
X158255591Y-140831763D01*
X158162073Y-140686433D01*
X158019381Y-140588936D01*
X157850000Y-140554635D01*
X155850000Y-140554635D01*
X155691763Y-140584409D01*
X155546433Y-140677927D01*
X155448936Y-140820619D01*
X155414635Y-140990000D01*
X152908304Y-140990000D01*
X152909982Y-140987489D01*
X152952000Y-140776247D01*
X152952000Y-139413681D01*
X153722849Y-139413681D01*
X153856082Y-139736131D01*
X154102571Y-139983051D01*
X154424789Y-140116847D01*
X154773681Y-140117151D01*
X155096131Y-139983918D01*
X155343051Y-139737429D01*
X155476847Y-139415211D01*
X155477151Y-139066319D01*
X155343918Y-138743869D01*
X155097429Y-138496949D01*
X154965097Y-138442000D01*
X159442635Y-138442000D01*
X159442635Y-139942000D01*
X159472409Y-140100237D01*
X159565927Y-140245567D01*
X159708619Y-140343064D01*
X159878000Y-140377365D01*
X159976000Y-140377365D01*
X159976000Y-140716000D01*
X160018018Y-140927242D01*
X160137677Y-141106323D01*
X160381391Y-141350037D01*
X160130583Y-141453669D01*
X159869586Y-141714211D01*
X159728161Y-142054799D01*
X159727839Y-142423583D01*
X159868669Y-142764417D01*
X160129211Y-143025414D01*
X160469799Y-143166839D01*
X160838583Y-143167161D01*
X161179417Y-143026331D01*
X161288939Y-142917000D01*
X167628217Y-142917000D01*
X167736433Y-143025405D01*
X168077021Y-143166830D01*
X168445805Y-143167152D01*
X168786639Y-143026322D01*
X169047636Y-142765780D01*
X169189061Y-142425192D01*
X169189383Y-142056408D01*
X169048553Y-141715574D01*
X168788011Y-141454577D01*
X168447423Y-141313152D01*
X168331595Y-141313051D01*
X168538323Y-141106323D01*
X168600309Y-141013555D01*
X168657982Y-140927241D01*
X168700000Y-140716000D01*
X168700000Y-140377365D01*
X168798000Y-140377365D01*
X168956237Y-140347591D01*
X169101567Y-140254073D01*
X169131759Y-140209884D01*
X169983763Y-140209884D01*
X170314502Y-141010334D01*
X170926385Y-141623285D01*
X171726256Y-141955421D01*
X172592344Y-141956177D01*
X173392794Y-141625438D01*
X174005745Y-141013555D01*
X174337881Y-140213684D01*
X174338637Y-139347596D01*
X174007898Y-138547146D01*
X173396015Y-137934195D01*
X172596144Y-137602059D01*
X171730056Y-137601303D01*
X170929606Y-137932042D01*
X170316655Y-138543925D01*
X169984519Y-139343796D01*
X169983763Y-140209884D01*
X169131759Y-140209884D01*
X169199064Y-140111381D01*
X169233365Y-139942000D01*
X169233365Y-138442000D01*
X169203591Y-138283763D01*
X169110073Y-138138433D01*
X168967381Y-138040936D01*
X168798000Y-138006635D01*
X167498000Y-138006635D01*
X167339763Y-138036409D01*
X167194433Y-138129927D01*
X167096936Y-138272619D01*
X167062635Y-138442000D01*
X167062635Y-139942000D01*
X167092409Y-140100237D01*
X167185927Y-140245567D01*
X167328619Y-140343064D01*
X167498000Y-140377365D01*
X167596000Y-140377365D01*
X167596000Y-140487354D01*
X167411354Y-140672000D01*
X161264646Y-140672000D01*
X161080000Y-140487354D01*
X161080000Y-140377365D01*
X161178000Y-140377365D01*
X161336237Y-140347591D01*
X161481567Y-140254073D01*
X161579064Y-140111381D01*
X161613365Y-139942000D01*
X161613365Y-138442000D01*
X161982635Y-138442000D01*
X161982635Y-139942000D01*
X162012409Y-140100237D01*
X162105927Y-140245567D01*
X162248619Y-140343064D01*
X162418000Y-140377365D01*
X163718000Y-140377365D01*
X163876237Y-140347591D01*
X164021567Y-140254073D01*
X164119064Y-140111381D01*
X164153365Y-139942000D01*
X164153365Y-139744000D01*
X164522635Y-139744000D01*
X164522635Y-139942000D01*
X164552409Y-140100237D01*
X164645927Y-140245567D01*
X164788619Y-140343064D01*
X164958000Y-140377365D01*
X166258000Y-140377365D01*
X166416237Y-140347591D01*
X166561567Y-140254073D01*
X166659064Y-140111381D01*
X166693365Y-139942000D01*
X166693365Y-138442000D01*
X166663591Y-138283763D01*
X166570073Y-138138433D01*
X166427381Y-138040936D01*
X166258000Y-138006635D01*
X164958000Y-138006635D01*
X164799763Y-138036409D01*
X164654433Y-138129927D01*
X164556936Y-138272619D01*
X164522635Y-138442000D01*
X164522635Y-138640000D01*
X164153365Y-138640000D01*
X164153365Y-138442000D01*
X164123591Y-138283763D01*
X164030073Y-138138433D01*
X163887381Y-138040936D01*
X163718000Y-138006635D01*
X162418000Y-138006635D01*
X162259763Y-138036409D01*
X162114433Y-138129927D01*
X162016936Y-138272619D01*
X161982635Y-138442000D01*
X161613365Y-138442000D01*
X161583591Y-138283763D01*
X161490073Y-138138433D01*
X161347381Y-138040936D01*
X161178000Y-138006635D01*
X159878000Y-138006635D01*
X159719763Y-138036409D01*
X159574433Y-138129927D01*
X159476936Y-138272619D01*
X159442635Y-138442000D01*
X154965097Y-138442000D01*
X154775211Y-138363153D01*
X154426319Y-138362849D01*
X154103869Y-138496082D01*
X153856949Y-138742571D01*
X153723153Y-139064789D01*
X153722849Y-139413681D01*
X152952000Y-139413681D01*
X152952000Y-138171000D01*
X152979750Y-138171000D01*
X153075000Y-138075750D01*
X153075000Y-137841183D01*
X153085365Y-137790000D01*
X153085365Y-136767000D01*
X153325000Y-136767000D01*
X153325000Y-138075750D01*
X153420250Y-138171000D01*
X153525785Y-138171000D01*
X153600000Y-138140259D01*
X153674215Y-138171000D01*
X153779750Y-138171000D01*
X153875000Y-138075750D01*
X153875000Y-136767000D01*
X154125000Y-136767000D01*
X154125000Y-138075750D01*
X154220250Y-138171000D01*
X154325785Y-138171000D01*
X154465819Y-138112996D01*
X154572996Y-138005820D01*
X154631000Y-137865786D01*
X154631000Y-136862250D01*
X154535750Y-136767000D01*
X154125000Y-136767000D01*
X153875000Y-136767000D01*
X153325000Y-136767000D01*
X153085365Y-136767000D01*
X153085365Y-135490000D01*
X153075000Y-135434914D01*
X153075000Y-135204250D01*
X153325000Y-135204250D01*
X153325000Y-136513000D01*
X153875000Y-136513000D01*
X153875000Y-135204250D01*
X154125000Y-135204250D01*
X154125000Y-136513000D01*
X154535750Y-136513000D01*
X154631000Y-136417750D01*
X154631000Y-135490000D01*
X155414635Y-135490000D01*
X155414635Y-137990000D01*
X155444409Y-138148237D01*
X155537927Y-138293567D01*
X155680619Y-138391064D01*
X155850000Y-138425365D01*
X157850000Y-138425365D01*
X158008237Y-138395591D01*
X158153567Y-138302073D01*
X158251064Y-138159381D01*
X158285365Y-137990000D01*
X158285365Y-135742000D01*
X159442635Y-135742000D01*
X159442635Y-137242000D01*
X159472409Y-137400237D01*
X159565927Y-137545567D01*
X159708619Y-137643064D01*
X159878000Y-137677365D01*
X161178000Y-137677365D01*
X161336237Y-137647591D01*
X161481567Y-137554073D01*
X161579064Y-137411381D01*
X161613365Y-137242000D01*
X161613365Y-135742000D01*
X161982635Y-135742000D01*
X161982635Y-137242000D01*
X162012409Y-137400237D01*
X162105927Y-137545567D01*
X162248619Y-137643064D01*
X162418000Y-137677365D01*
X163718000Y-137677365D01*
X163876237Y-137647591D01*
X164021567Y-137554073D01*
X164119064Y-137411381D01*
X164153365Y-137242000D01*
X164153365Y-135742000D01*
X164123591Y-135583763D01*
X164030073Y-135438433D01*
X163887381Y-135340936D01*
X163718000Y-135306635D01*
X163620000Y-135306635D01*
X163620000Y-134275779D01*
X164272857Y-134275779D01*
X164398495Y-134579846D01*
X164630930Y-134812688D01*
X164934778Y-134938856D01*
X165056000Y-134938962D01*
X165056000Y-135306635D01*
X164958000Y-135306635D01*
X164799763Y-135336409D01*
X164654433Y-135429927D01*
X164556936Y-135572619D01*
X164522635Y-135742000D01*
X164522635Y-137242000D01*
X164552409Y-137400237D01*
X164645927Y-137545567D01*
X164788619Y-137643064D01*
X164958000Y-137677365D01*
X166258000Y-137677365D01*
X166416237Y-137647591D01*
X166561567Y-137554073D01*
X166659064Y-137411381D01*
X166693365Y-137242000D01*
X166693365Y-137044000D01*
X167062635Y-137044000D01*
X167062635Y-137242000D01*
X167092409Y-137400237D01*
X167185927Y-137545567D01*
X167328619Y-137643064D01*
X167498000Y-137677365D01*
X168798000Y-137677365D01*
X168956237Y-137647591D01*
X169101567Y-137554073D01*
X169199064Y-137411381D01*
X169233365Y-137242000D01*
X169233365Y-135742000D01*
X169203591Y-135583763D01*
X169110073Y-135438433D01*
X168967381Y-135340936D01*
X168798000Y-135306635D01*
X167498000Y-135306635D01*
X167339763Y-135336409D01*
X167194433Y-135429927D01*
X167096936Y-135572619D01*
X167062635Y-135742000D01*
X167062635Y-135940000D01*
X166693365Y-135940000D01*
X166693365Y-135742000D01*
X166663591Y-135583763D01*
X166570073Y-135438433D01*
X166427381Y-135340936D01*
X166258000Y-135306635D01*
X166160000Y-135306635D01*
X166160000Y-134620000D01*
X166117982Y-134408759D01*
X165998323Y-134229677D01*
X165926960Y-134158314D01*
X165927143Y-133948221D01*
X165801505Y-133644154D01*
X165569070Y-133411312D01*
X165265222Y-133285144D01*
X164936221Y-133284857D01*
X164632154Y-133410495D01*
X164399312Y-133642930D01*
X164273144Y-133946778D01*
X164272857Y-134275779D01*
X163620000Y-134275779D01*
X163620000Y-131333272D01*
X163772955Y-131333405D01*
X164077022Y-131207767D01*
X164309864Y-130975332D01*
X164436032Y-130671484D01*
X164436299Y-130364980D01*
X173816511Y-130364980D01*
X173940755Y-130664964D01*
X174257944Y-131025652D01*
X174689018Y-131237501D01*
X174879000Y-131177193D01*
X174879000Y-130175000D01*
X175133000Y-130175000D01*
X175133000Y-131177193D01*
X175322982Y-131237501D01*
X175754056Y-131025652D01*
X176071245Y-130664964D01*
X176195489Y-130364980D01*
X176134627Y-130175000D01*
X175133000Y-130175000D01*
X174879000Y-130175000D01*
X173877373Y-130175000D01*
X173816511Y-130364980D01*
X164436299Y-130364980D01*
X164436319Y-130342483D01*
X164310681Y-130038416D01*
X164078246Y-129805574D01*
X163898700Y-129731020D01*
X173816511Y-129731020D01*
X173877373Y-129921000D01*
X174879000Y-129921000D01*
X174879000Y-128918807D01*
X175133000Y-128918807D01*
X175133000Y-129921000D01*
X176134627Y-129921000D01*
X176195489Y-129731020D01*
X176071245Y-129431036D01*
X175754056Y-129070348D01*
X175322982Y-128858499D01*
X175133000Y-128918807D01*
X174879000Y-128918807D01*
X174689018Y-128858499D01*
X174257944Y-129070348D01*
X173940755Y-129431036D01*
X173816511Y-129731020D01*
X163898700Y-129731020D01*
X163774398Y-129679406D01*
X163445397Y-129679119D01*
X163141330Y-129804757D01*
X162908488Y-130037192D01*
X162782320Y-130341040D01*
X162782135Y-130552657D01*
X162677677Y-130657115D01*
X162558018Y-130836196D01*
X162558018Y-130836197D01*
X162516000Y-131047438D01*
X162516000Y-135306635D01*
X162418000Y-135306635D01*
X162259763Y-135336409D01*
X162114433Y-135429927D01*
X162016936Y-135572619D01*
X161982635Y-135742000D01*
X161613365Y-135742000D01*
X161583591Y-135583763D01*
X161490073Y-135438433D01*
X161347381Y-135340936D01*
X161178000Y-135306635D01*
X161080000Y-135306635D01*
X161080000Y-131207294D01*
X161266047Y-131284547D01*
X161595048Y-131284834D01*
X161899115Y-131159196D01*
X162131957Y-130926761D01*
X162258125Y-130622913D01*
X162258412Y-130293912D01*
X162132774Y-129989845D01*
X162049532Y-129906457D01*
X162536122Y-129419867D01*
X162655781Y-129240786D01*
X162695771Y-129039738D01*
X162846487Y-128889286D01*
X162972655Y-128585438D01*
X162972942Y-128256437D01*
X162847304Y-127952370D01*
X162614869Y-127719528D01*
X162311021Y-127593360D01*
X161982020Y-127593073D01*
X161677953Y-127718711D01*
X161445111Y-127951146D01*
X161318943Y-128254994D01*
X161318656Y-128583995D01*
X161444294Y-128888062D01*
X161475437Y-128919260D01*
X161080000Y-129314697D01*
X161080000Y-128182145D01*
X161198421Y-128063724D01*
X161243214Y-127996687D01*
X161318080Y-127884642D01*
X161348169Y-127733371D01*
X161508786Y-127573035D01*
X161634954Y-127269187D01*
X161635241Y-126940186D01*
X161509603Y-126636119D01*
X161277168Y-126403277D01*
X160973320Y-126277109D01*
X160644319Y-126276822D01*
X160340252Y-126402460D01*
X160107410Y-126634895D01*
X159981242Y-126938743D01*
X159980955Y-127267744D01*
X160106593Y-127571811D01*
X160121757Y-127587002D01*
X160018018Y-127742257D01*
X159992964Y-127868216D01*
X159976000Y-127953499D01*
X159976000Y-135306635D01*
X159878000Y-135306635D01*
X159719763Y-135336409D01*
X159574433Y-135429927D01*
X159476936Y-135572619D01*
X159442635Y-135742000D01*
X158285365Y-135742000D01*
X158285365Y-135490000D01*
X158255591Y-135331763D01*
X158162073Y-135186433D01*
X158019381Y-135088936D01*
X157850000Y-135054635D01*
X155850000Y-135054635D01*
X155691763Y-135084409D01*
X155546433Y-135177927D01*
X155448936Y-135320619D01*
X155414635Y-135490000D01*
X154631000Y-135490000D01*
X154631000Y-135414214D01*
X154572996Y-135274180D01*
X154465819Y-135167004D01*
X154325785Y-135109000D01*
X154220250Y-135109000D01*
X154125000Y-135204250D01*
X153875000Y-135204250D01*
X153779750Y-135109000D01*
X153674215Y-135109000D01*
X153600000Y-135139741D01*
X153525785Y-135109000D01*
X153420250Y-135109000D01*
X153325000Y-135204250D01*
X153075000Y-135204250D01*
X152979750Y-135109000D01*
X152874215Y-135109000D01*
X152858358Y-135115568D01*
X152819381Y-135088936D01*
X152650000Y-135054635D01*
X152150000Y-135054635D01*
X151994491Y-135083896D01*
X151850000Y-135054635D01*
X151477000Y-135054635D01*
X151477000Y-134664365D01*
X151900000Y-134664365D01*
X152058237Y-134634591D01*
X152203567Y-134541073D01*
X152301064Y-134398381D01*
X152335365Y-134229000D01*
X152335365Y-133826250D01*
X152519000Y-133826250D01*
X152519000Y-134304785D01*
X152577004Y-134444819D01*
X152684180Y-134551996D01*
X152824214Y-134610000D01*
X153427750Y-134610000D01*
X153523000Y-134514750D01*
X153523000Y-133731000D01*
X153777000Y-133731000D01*
X153777000Y-134514750D01*
X153872250Y-134610000D01*
X154475786Y-134610000D01*
X154615820Y-134551996D01*
X154722996Y-134444819D01*
X154781000Y-134304785D01*
X154781000Y-133826250D01*
X154685750Y-133731000D01*
X153777000Y-133731000D01*
X153523000Y-133731000D01*
X152614250Y-133731000D01*
X152519000Y-133826250D01*
X152335365Y-133826250D01*
X152335365Y-132979000D01*
X152321106Y-132903215D01*
X152519000Y-132903215D01*
X152519000Y-133381750D01*
X152614250Y-133477000D01*
X153523000Y-133477000D01*
X153523000Y-132693250D01*
X153777000Y-132693250D01*
X153777000Y-133477000D01*
X154685750Y-133477000D01*
X154781000Y-133381750D01*
X154781000Y-132903215D01*
X154722996Y-132763181D01*
X154615820Y-132656004D01*
X154475786Y-132598000D01*
X153872250Y-132598000D01*
X153777000Y-132693250D01*
X153523000Y-132693250D01*
X153427750Y-132598000D01*
X152824214Y-132598000D01*
X152684180Y-132656004D01*
X152577004Y-132763181D01*
X152519000Y-132903215D01*
X152321106Y-132903215D01*
X152305591Y-132820763D01*
X152212073Y-132675433D01*
X152069381Y-132577936D01*
X151900000Y-132543635D01*
X150400000Y-132543635D01*
X150241763Y-132573409D01*
X150096433Y-132666927D01*
X149998936Y-132809619D01*
X149975165Y-132927000D01*
X148970014Y-132927000D01*
X148861789Y-132818586D01*
X148521201Y-132677161D01*
X148152417Y-132676839D01*
X147811583Y-132817669D01*
X147550586Y-133078211D01*
X147409161Y-133418799D01*
X147408839Y-133787583D01*
X146373365Y-133787583D01*
X146373365Y-132680000D01*
X146343591Y-132521763D01*
X146250073Y-132376433D01*
X146107381Y-132278936D01*
X145938000Y-132244635D01*
X144638000Y-132244635D01*
X144479763Y-132274409D01*
X144334433Y-132367927D01*
X144236936Y-132510619D01*
X144202635Y-132680000D01*
X137777500Y-132680000D01*
X137777500Y-132271020D01*
X138256511Y-132271020D01*
X138317373Y-132461000D01*
X139319000Y-132461000D01*
X139319000Y-131458807D01*
X139573000Y-131458807D01*
X139573000Y-132461000D01*
X140574627Y-132461000D01*
X140635489Y-132271020D01*
X140511245Y-131971036D01*
X140194056Y-131610348D01*
X139762982Y-131398499D01*
X139573000Y-131458807D01*
X139319000Y-131458807D01*
X139129018Y-131398499D01*
X138697944Y-131610348D01*
X138380755Y-131971036D01*
X138256511Y-132271020D01*
X137777500Y-132271020D01*
X137777500Y-109728000D01*
X138143982Y-109728000D01*
X138241188Y-110216687D01*
X138518007Y-110630975D01*
X138932295Y-110907794D01*
X139385791Y-110998000D01*
X138932295Y-111088206D01*
X138518007Y-111365025D01*
X138241188Y-111779313D01*
X138143982Y-112268000D01*
X138241188Y-112756687D01*
X138518007Y-113170975D01*
X138932295Y-113447794D01*
X139385791Y-113538000D01*
X138932295Y-113628206D01*
X138518007Y-113905025D01*
X138241188Y-114319313D01*
X138143982Y-114808000D01*
X138241188Y-115296687D01*
X138518007Y-115710975D01*
X138932295Y-115987794D01*
X139385791Y-116078000D01*
X138932295Y-116168206D01*
X138518007Y-116445025D01*
X138241188Y-116859313D01*
X138143982Y-117348000D01*
X138241188Y-117836687D01*
X138518007Y-118250975D01*
X138932295Y-118527794D01*
X139385791Y-118618000D01*
X138932295Y-118708206D01*
X138518007Y-118985025D01*
X138241188Y-119399313D01*
X138143982Y-119888000D01*
X138241188Y-120376687D01*
X138518007Y-120790975D01*
X138932295Y-121067794D01*
X139385791Y-121158000D01*
X138932295Y-121248206D01*
X138518007Y-121525025D01*
X138241188Y-121939313D01*
X138143982Y-122428000D01*
X138241188Y-122916687D01*
X138518007Y-123330975D01*
X138932295Y-123607794D01*
X139385791Y-123698000D01*
X138932295Y-123788206D01*
X138518007Y-124065025D01*
X138241188Y-124479313D01*
X138143982Y-124968000D01*
X138241188Y-125456687D01*
X138518007Y-125870975D01*
X138932295Y-126147794D01*
X139385791Y-126238000D01*
X138932295Y-126328206D01*
X138518007Y-126605025D01*
X138241188Y-127019313D01*
X138143982Y-127508000D01*
X138241188Y-127996687D01*
X138518007Y-128410975D01*
X138932295Y-128687794D01*
X139385791Y-128778000D01*
X138932295Y-128868206D01*
X138518007Y-129145025D01*
X138241188Y-129559313D01*
X138143982Y-130048000D01*
X138241188Y-130536687D01*
X138518007Y-130950975D01*
X138932295Y-131227794D01*
X139420982Y-131325000D01*
X139471018Y-131325000D01*
X139959705Y-131227794D01*
X140372084Y-130952250D01*
X144257000Y-130952250D01*
X144257000Y-131555786D01*
X144315004Y-131695820D01*
X144422181Y-131802996D01*
X144562215Y-131861000D01*
X145065750Y-131861000D01*
X145161000Y-131765750D01*
X145161000Y-130857000D01*
X145415000Y-130857000D01*
X145415000Y-131765750D01*
X145510250Y-131861000D01*
X146013785Y-131861000D01*
X146153819Y-131802996D01*
X146260996Y-131695820D01*
X146319000Y-131555786D01*
X146319000Y-130952250D01*
X146223750Y-130857000D01*
X145415000Y-130857000D01*
X145161000Y-130857000D01*
X144352250Y-130857000D01*
X144257000Y-130952250D01*
X140372084Y-130952250D01*
X140373993Y-130950975D01*
X140489404Y-130778250D01*
X149390000Y-130778250D01*
X149390000Y-131281785D01*
X149448004Y-131421819D01*
X149555180Y-131528996D01*
X149695214Y-131587000D01*
X150323750Y-131587000D01*
X150419000Y-131491750D01*
X150419000Y-130683000D01*
X150673000Y-130683000D01*
X150673000Y-131491750D01*
X150768250Y-131587000D01*
X151396786Y-131587000D01*
X151536820Y-131528996D01*
X151643996Y-131421819D01*
X151702000Y-131281785D01*
X151702000Y-130778250D01*
X157340000Y-130778250D01*
X157340000Y-131281785D01*
X157398004Y-131421819D01*
X157505180Y-131528996D01*
X157645214Y-131587000D01*
X158273750Y-131587000D01*
X158369000Y-131491750D01*
X158369000Y-130683000D01*
X158623000Y-130683000D01*
X158623000Y-131491750D01*
X158718250Y-131587000D01*
X159346786Y-131587000D01*
X159486820Y-131528996D01*
X159593996Y-131421819D01*
X159652000Y-131281785D01*
X159652000Y-130778250D01*
X159556750Y-130683000D01*
X158623000Y-130683000D01*
X158369000Y-130683000D01*
X157435250Y-130683000D01*
X157340000Y-130778250D01*
X151702000Y-130778250D01*
X151606750Y-130683000D01*
X150673000Y-130683000D01*
X150419000Y-130683000D01*
X149485250Y-130683000D01*
X149390000Y-130778250D01*
X140489404Y-130778250D01*
X140524985Y-130725000D01*
X141028055Y-130725000D01*
X141287132Y-130673466D01*
X141506766Y-130526711D01*
X142129263Y-129904214D01*
X144257000Y-129904214D01*
X144257000Y-130507750D01*
X144352250Y-130603000D01*
X145161000Y-130603000D01*
X145161000Y-129694250D01*
X145415000Y-129694250D01*
X145415000Y-130603000D01*
X146223750Y-130603000D01*
X146319000Y-130507750D01*
X146319000Y-129904214D01*
X146288349Y-129830215D01*
X149390000Y-129830215D01*
X149390000Y-130333750D01*
X149485250Y-130429000D01*
X150419000Y-130429000D01*
X150419000Y-129620250D01*
X150673000Y-129620250D01*
X150673000Y-130429000D01*
X151606750Y-130429000D01*
X151702000Y-130333750D01*
X151702000Y-129830215D01*
X157340000Y-129830215D01*
X157340000Y-130333750D01*
X157435250Y-130429000D01*
X158369000Y-130429000D01*
X158369000Y-129620250D01*
X158623000Y-129620250D01*
X158623000Y-130429000D01*
X159556750Y-130429000D01*
X159652000Y-130333750D01*
X159652000Y-129830215D01*
X159593996Y-129690181D01*
X159486820Y-129583004D01*
X159346786Y-129525000D01*
X158718250Y-129525000D01*
X158623000Y-129620250D01*
X158369000Y-129620250D01*
X158273750Y-129525000D01*
X157645214Y-129525000D01*
X157505180Y-129583004D01*
X157398004Y-129690181D01*
X157340000Y-129830215D01*
X151702000Y-129830215D01*
X151643996Y-129690181D01*
X151536820Y-129583004D01*
X151396786Y-129525000D01*
X150768250Y-129525000D01*
X150673000Y-129620250D01*
X150419000Y-129620250D01*
X150323750Y-129525000D01*
X149695214Y-129525000D01*
X149555180Y-129583004D01*
X149448004Y-129690181D01*
X149390000Y-129830215D01*
X146288349Y-129830215D01*
X146260996Y-129764180D01*
X146153819Y-129657004D01*
X146013785Y-129599000D01*
X145510250Y-129599000D01*
X145415000Y-129694250D01*
X145161000Y-129694250D01*
X145065750Y-129599000D01*
X144562215Y-129599000D01*
X144422181Y-129657004D01*
X144315004Y-129764180D01*
X144257000Y-129904214D01*
X142129263Y-129904214D01*
X143563614Y-128469863D01*
X144562443Y-128469863D01*
X144688081Y-128773930D01*
X144920516Y-129006772D01*
X145224364Y-129132940D01*
X145553365Y-129133227D01*
X145857432Y-129007589D01*
X146007199Y-128858084D01*
X147037767Y-128858084D01*
X147249009Y-128816066D01*
X147428090Y-128696407D01*
X149348757Y-126775740D01*
X149365409Y-126864237D01*
X149458927Y-127009567D01*
X149601619Y-127107064D01*
X149771000Y-127141365D01*
X151321000Y-127141365D01*
X151479237Y-127111591D01*
X151624567Y-127018073D01*
X151722064Y-126875381D01*
X151756365Y-126706000D01*
X151756365Y-126608000D01*
X157285635Y-126608000D01*
X157285635Y-126706000D01*
X157315409Y-126864237D01*
X157408927Y-127009567D01*
X157551619Y-127107064D01*
X157721000Y-127141365D01*
X159271000Y-127141365D01*
X159429237Y-127111591D01*
X159574567Y-127018073D01*
X159672064Y-126875381D01*
X159706365Y-126706000D01*
X159706365Y-125406000D01*
X159676591Y-125247763D01*
X159583073Y-125102433D01*
X159440381Y-125004936D01*
X159271000Y-124970635D01*
X157721000Y-124970635D01*
X157562763Y-125000409D01*
X157417433Y-125093927D01*
X157319936Y-125236619D01*
X157285635Y-125406000D01*
X157285635Y-125504000D01*
X151756365Y-125504000D01*
X151756365Y-125406000D01*
X151726591Y-125247763D01*
X151633073Y-125102433D01*
X151490381Y-125004936D01*
X151321000Y-124970635D01*
X149771000Y-124970635D01*
X149612763Y-125000409D01*
X149467433Y-125093927D01*
X149369936Y-125236619D01*
X149335635Y-125406000D01*
X149335635Y-125504000D01*
X149287851Y-125504000D01*
X149076610Y-125546018D01*
X149076608Y-125546019D01*
X149076609Y-125546019D01*
X148897528Y-125665677D01*
X146809121Y-127754084D01*
X146007084Y-127754084D01*
X145858656Y-127605396D01*
X145554808Y-127479228D01*
X145225807Y-127478941D01*
X144921740Y-127604579D01*
X144688898Y-127837014D01*
X144562730Y-128140862D01*
X144562443Y-128469863D01*
X143563614Y-128469863D01*
X146549517Y-125483961D01*
X147365721Y-125483961D01*
X147473946Y-125592375D01*
X147814534Y-125733800D01*
X148183318Y-125734122D01*
X148524152Y-125593292D01*
X148785149Y-125332750D01*
X148926574Y-124992162D01*
X148926896Y-124623378D01*
X148786066Y-124282544D01*
X148525524Y-124021547D01*
X148184936Y-123880122D01*
X147816152Y-123879800D01*
X147475318Y-124020630D01*
X147365796Y-124129961D01*
X146269094Y-124129961D01*
X146010017Y-124181495D01*
X145900200Y-124254873D01*
X145790382Y-124328250D01*
X140747633Y-129371000D01*
X140524985Y-129371000D01*
X140373993Y-129145025D01*
X139959705Y-128868206D01*
X139506209Y-128778000D01*
X139959705Y-128687794D01*
X140373993Y-128410975D01*
X140650812Y-127996687D01*
X140748018Y-127508000D01*
X140703658Y-127284988D01*
X144519134Y-123469512D01*
X149738629Y-123469512D01*
X149949871Y-123427494D01*
X150128952Y-123307835D01*
X152049805Y-121386982D01*
X153155000Y-121386982D01*
X153155000Y-121437018D01*
X153252206Y-121925705D01*
X153529025Y-122339993D01*
X153757629Y-122492742D01*
X153806534Y-122738600D01*
X153939757Y-122937982D01*
X153953289Y-122958234D01*
X155217207Y-124222153D01*
X155305536Y-124281172D01*
X155436842Y-124368908D01*
X155695919Y-124420442D01*
X160293020Y-124420442D01*
X160811289Y-124938711D01*
X161030923Y-125085466D01*
X161290000Y-125137000D01*
X163204715Y-125137000D01*
X163229409Y-125268237D01*
X163322927Y-125413567D01*
X163465619Y-125511064D01*
X163635000Y-125545365D01*
X163708000Y-125545365D01*
X163708000Y-125650000D01*
X163759534Y-125909077D01*
X163857705Y-126056000D01*
X163906289Y-126128711D01*
X164621289Y-126843712D01*
X164840924Y-126990467D01*
X165100000Y-127042000D01*
X168629578Y-127042000D01*
X169574289Y-127986711D01*
X169793923Y-128133466D01*
X170053000Y-128185000D01*
X173927015Y-128185000D01*
X174078007Y-128410975D01*
X174492295Y-128687794D01*
X174980982Y-128785000D01*
X175031018Y-128785000D01*
X175519705Y-128687794D01*
X175933993Y-128410975D01*
X176210812Y-127996687D01*
X176308018Y-127508000D01*
X176210812Y-127019313D01*
X175933993Y-126605025D01*
X175519705Y-126328206D01*
X175066209Y-126238000D01*
X175519705Y-126147794D01*
X175933993Y-125870975D01*
X176210812Y-125456687D01*
X176308018Y-124968000D01*
X176210812Y-124479313D01*
X175933993Y-124065025D01*
X175519705Y-123788206D01*
X175066209Y-123698000D01*
X175519705Y-123607794D01*
X175933993Y-123330975D01*
X176210812Y-122916687D01*
X176308018Y-122428000D01*
X176210812Y-121939313D01*
X175933993Y-121525025D01*
X175519705Y-121248206D01*
X175066209Y-121158000D01*
X175519705Y-121067794D01*
X175933993Y-120790975D01*
X176210812Y-120376687D01*
X176308018Y-119888000D01*
X176210812Y-119399313D01*
X175933993Y-118985025D01*
X175519705Y-118708206D01*
X175066209Y-118618000D01*
X175519705Y-118527794D01*
X175933993Y-118250975D01*
X176210812Y-117836687D01*
X176308018Y-117348000D01*
X176210812Y-116859313D01*
X175933993Y-116445025D01*
X175519705Y-116168206D01*
X175066209Y-116078000D01*
X175519705Y-115987794D01*
X175933993Y-115710975D01*
X176210812Y-115296687D01*
X176308018Y-114808000D01*
X176210812Y-114319313D01*
X175933993Y-113905025D01*
X175519705Y-113628206D01*
X175066209Y-113538000D01*
X175519705Y-113447794D01*
X175933993Y-113170975D01*
X176210812Y-112756687D01*
X176308018Y-112268000D01*
X176210812Y-111779313D01*
X175933993Y-111365025D01*
X175519705Y-111088206D01*
X175066209Y-110998000D01*
X175519705Y-110907794D01*
X175933993Y-110630975D01*
X176210812Y-110216687D01*
X176308018Y-109728000D01*
X176210812Y-109239313D01*
X175933993Y-108825025D01*
X175519705Y-108548206D01*
X175066209Y-108458000D01*
X175519705Y-108367794D01*
X175933993Y-108090975D01*
X176210812Y-107676687D01*
X176308018Y-107188000D01*
X176210812Y-106699313D01*
X175933993Y-106285025D01*
X175519705Y-106008206D01*
X175143454Y-105933365D01*
X175856000Y-105933365D01*
X176014237Y-105903591D01*
X176159567Y-105810073D01*
X176257064Y-105667381D01*
X176291365Y-105498000D01*
X176291365Y-103798000D01*
X176261591Y-103639763D01*
X176168073Y-103494433D01*
X176025381Y-103396936D01*
X175856000Y-103362635D01*
X175294919Y-103362635D01*
X175294919Y-98403429D01*
X175252901Y-98192188D01*
X175133242Y-98013106D01*
X173922718Y-96802582D01*
X173743637Y-96682923D01*
X173532395Y-96640905D01*
X169048323Y-96640905D01*
X168899895Y-96492217D01*
X168596047Y-96366049D01*
X168267046Y-96365762D01*
X167962979Y-96491400D01*
X167813214Y-96640903D01*
X167366715Y-96640903D01*
X167155473Y-96682921D01*
X166976392Y-96802580D01*
X166796972Y-96982000D01*
X166431490Y-96982000D01*
X166338718Y-96843157D01*
X166021757Y-96631370D01*
X165647875Y-96557000D01*
X164284125Y-96557000D01*
X163910243Y-96631370D01*
X163593282Y-96843157D01*
X163381495Y-97160118D01*
X163307125Y-97534000D01*
X163381495Y-97907882D01*
X163593282Y-98224843D01*
X163910243Y-98436630D01*
X164284125Y-98511000D01*
X165647875Y-98511000D01*
X166021757Y-98436630D01*
X166338718Y-98224843D01*
X166431490Y-98086000D01*
X167025618Y-98086000D01*
X167236860Y-98043982D01*
X167415941Y-97924323D01*
X167595361Y-97744903D01*
X167813325Y-97744903D01*
X167961755Y-97893593D01*
X168265603Y-98019761D01*
X168594604Y-98020048D01*
X168898671Y-97894410D01*
X169048438Y-97744905D01*
X171382706Y-97744905D01*
X170929606Y-97932122D01*
X170316655Y-98544005D01*
X169984519Y-99343876D01*
X169983763Y-100209964D01*
X170314502Y-101010414D01*
X170926385Y-101623365D01*
X171726256Y-101955501D01*
X172592344Y-101956257D01*
X173392794Y-101625518D01*
X174005745Y-101013635D01*
X174190919Y-100567687D01*
X174190919Y-103362635D01*
X174156000Y-103362635D01*
X173997763Y-103392409D01*
X173852433Y-103485927D01*
X173754936Y-103628619D01*
X173720635Y-103798000D01*
X173720635Y-105389895D01*
X168353834Y-100023094D01*
X168429919Y-99947142D01*
X168556087Y-99643294D01*
X168556374Y-99314293D01*
X168430736Y-99010226D01*
X168198301Y-98777384D01*
X167894453Y-98651216D01*
X167565452Y-98650929D01*
X167261385Y-98776567D01*
X167055592Y-98982000D01*
X166431490Y-98982000D01*
X166338718Y-98843157D01*
X166021757Y-98631370D01*
X165647875Y-98557000D01*
X164284125Y-98557000D01*
X163910243Y-98631370D01*
X163593282Y-98843157D01*
X163381495Y-99160118D01*
X163307125Y-99534000D01*
X163381495Y-99907882D01*
X163593282Y-100224843D01*
X163910243Y-100436630D01*
X164284125Y-100511000D01*
X165647875Y-100511000D01*
X166021757Y-100436630D01*
X166338718Y-100224843D01*
X166431490Y-100086000D01*
X167167563Y-100086000D01*
X167177231Y-100095685D01*
X167177231Y-100179137D01*
X167219249Y-100390379D01*
X167338908Y-100569460D01*
X167751448Y-100982000D01*
X166431490Y-100982000D01*
X166338718Y-100843157D01*
X166021757Y-100631370D01*
X165647875Y-100557000D01*
X164284125Y-100557000D01*
X163910243Y-100631370D01*
X163593282Y-100843157D01*
X163381495Y-101160118D01*
X163307125Y-101534000D01*
X163381495Y-101907882D01*
X163593282Y-102224843D01*
X163910243Y-102436630D01*
X164284125Y-102511000D01*
X165647875Y-102511000D01*
X166021757Y-102436630D01*
X166338718Y-102224843D01*
X166431490Y-102086000D01*
X167771331Y-102086000D01*
X172557994Y-106872663D01*
X172557994Y-108547960D01*
X172600012Y-108759202D01*
X172719671Y-108938283D01*
X173752300Y-109970912D01*
X173801188Y-110216687D01*
X174078007Y-110630975D01*
X174492295Y-110907794D01*
X174945791Y-110998000D01*
X174492295Y-111088206D01*
X174338104Y-111191233D01*
X172321030Y-109174159D01*
X172321030Y-107220134D01*
X172279012Y-107008893D01*
X172279012Y-107008892D01*
X172159353Y-106829811D01*
X168473219Y-103143677D01*
X168294138Y-103024018D01*
X168082896Y-102982000D01*
X166431490Y-102982000D01*
X166338718Y-102843157D01*
X166021757Y-102631370D01*
X165647875Y-102557000D01*
X164284125Y-102557000D01*
X163910243Y-102631370D01*
X163593282Y-102843157D01*
X163381495Y-103160118D01*
X163307125Y-103534000D01*
X163381495Y-103907882D01*
X163593282Y-104224843D01*
X163910243Y-104436630D01*
X164284125Y-104511000D01*
X165647875Y-104511000D01*
X166021757Y-104436630D01*
X166338718Y-104224843D01*
X166431490Y-104086000D01*
X167854250Y-104086000D01*
X171217030Y-107448780D01*
X171217030Y-109402805D01*
X171259048Y-109614047D01*
X171378707Y-109793128D01*
X173728802Y-112143223D01*
X173703982Y-112268000D01*
X173801188Y-112756687D01*
X174078007Y-113170975D01*
X174492295Y-113447794D01*
X174945791Y-113538000D01*
X174492295Y-113628206D01*
X174407762Y-113684690D01*
X171196050Y-110472978D01*
X171196050Y-108575683D01*
X171154032Y-108364442D01*
X171154032Y-108364441D01*
X171034373Y-108185360D01*
X168591517Y-105742504D01*
X168591700Y-105532411D01*
X168466062Y-105228344D01*
X168233627Y-104995502D01*
X167929779Y-104869334D01*
X167600778Y-104869047D01*
X167327411Y-104982000D01*
X166431490Y-104982000D01*
X166338718Y-104843157D01*
X166021757Y-104631370D01*
X165647875Y-104557000D01*
X164284125Y-104557000D01*
X163910243Y-104631370D01*
X163593282Y-104843157D01*
X163381495Y-105160118D01*
X163307125Y-105534000D01*
X163381495Y-105907882D01*
X163593282Y-106224843D01*
X163910243Y-106436630D01*
X164284125Y-106511000D01*
X165647875Y-106511000D01*
X166021757Y-106436630D01*
X166338718Y-106224843D01*
X166431490Y-106086000D01*
X167030808Y-106086000D01*
X167063052Y-106164036D01*
X167295487Y-106396878D01*
X167599335Y-106523046D01*
X167810952Y-106523231D01*
X170092050Y-108804329D01*
X170092050Y-110701624D01*
X170134068Y-110912866D01*
X170253727Y-111091947D01*
X173748081Y-114586301D01*
X173703982Y-114808000D01*
X173801188Y-115296687D01*
X174078007Y-115710975D01*
X174492295Y-115987794D01*
X174945791Y-116078000D01*
X174492295Y-116168206D01*
X174078007Y-116445025D01*
X174051000Y-116485444D01*
X169869082Y-112303526D01*
X169869082Y-110472082D01*
X169827064Y-110260841D01*
X169827064Y-110260840D01*
X169707405Y-110081759D01*
X168930323Y-109304677D01*
X168751242Y-109185018D01*
X168725365Y-109179871D01*
X168725365Y-108945000D01*
X168695591Y-108786763D01*
X168602073Y-108641433D01*
X168459381Y-108543936D01*
X168290000Y-108509635D01*
X166990000Y-108509635D01*
X166831763Y-108539409D01*
X166686433Y-108632927D01*
X166588936Y-108775619D01*
X166554635Y-108945000D01*
X166554635Y-108982000D01*
X166431490Y-108982000D01*
X166338718Y-108843157D01*
X166021757Y-108631370D01*
X165647875Y-108557000D01*
X164284125Y-108557000D01*
X163910243Y-108631370D01*
X163593282Y-108843157D01*
X163381495Y-109160118D01*
X163307125Y-109534000D01*
X163381495Y-109907882D01*
X163593282Y-110224843D01*
X163910243Y-110436630D01*
X164284125Y-110511000D01*
X165647875Y-110511000D01*
X166021757Y-110436630D01*
X166338718Y-110224843D01*
X166431490Y-110086000D01*
X166554635Y-110086000D01*
X166554635Y-110445000D01*
X166584409Y-110603237D01*
X166677927Y-110748567D01*
X166820619Y-110846064D01*
X166990000Y-110880365D01*
X168290000Y-110880365D01*
X168448237Y-110850591D01*
X168593567Y-110757073D01*
X168686059Y-110621705D01*
X168765082Y-110700728D01*
X168765082Y-112532172D01*
X168807100Y-112743414D01*
X168926759Y-112922495D01*
X173742587Y-117738323D01*
X173787606Y-117768403D01*
X173801188Y-117836687D01*
X174078007Y-118250975D01*
X174492295Y-118527794D01*
X174945791Y-118618000D01*
X174492295Y-118708206D01*
X174408705Y-118764059D01*
X170560379Y-114915733D01*
X170381298Y-114796074D01*
X170170056Y-114754056D01*
X165561096Y-114754056D01*
X165412668Y-114605368D01*
X165108820Y-114479200D01*
X164779819Y-114478913D01*
X164475752Y-114604551D01*
X164242910Y-114836986D01*
X164116742Y-115140834D01*
X164116455Y-115469835D01*
X164242093Y-115773902D01*
X164306091Y-115838012D01*
X164229623Y-115838012D01*
X164081195Y-115689324D01*
X163777347Y-115563156D01*
X163448346Y-115562869D01*
X163144279Y-115688507D01*
X162911437Y-115920942D01*
X162785269Y-116224790D01*
X162784982Y-116553791D01*
X162910620Y-116857858D01*
X163143055Y-117090700D01*
X163446903Y-117216868D01*
X163775904Y-117217155D01*
X164079971Y-117091517D01*
X164229738Y-116942012D01*
X168485366Y-116942012D01*
X173748342Y-122204988D01*
X173703982Y-122428000D01*
X173801188Y-122916687D01*
X174078007Y-123330975D01*
X174492295Y-123607794D01*
X174945791Y-123698000D01*
X174492295Y-123788206D01*
X174078007Y-124065025D01*
X173801188Y-124479313D01*
X173703982Y-124968000D01*
X173801188Y-125456687D01*
X174078007Y-125870975D01*
X174492295Y-126147794D01*
X174945791Y-126238000D01*
X174492295Y-126328206D01*
X174078007Y-126605025D01*
X173927015Y-126831000D01*
X170333422Y-126831000D01*
X169388711Y-125886289D01*
X169326557Y-125844759D01*
X169169077Y-125739534D01*
X168910000Y-125688000D01*
X165380423Y-125688000D01*
X165221510Y-125529087D01*
X165293237Y-125515591D01*
X165438567Y-125422073D01*
X165536064Y-125279381D01*
X165570365Y-125110000D01*
X165570365Y-123810000D01*
X165540591Y-123651763D01*
X165447073Y-123506433D01*
X165304381Y-123408936D01*
X165135000Y-123374635D01*
X163635000Y-123374635D01*
X163476763Y-123404409D01*
X163331433Y-123497927D01*
X163233936Y-123640619D01*
X163205103Y-123783000D01*
X161570422Y-123783000D01*
X161052152Y-123264730D01*
X160832519Y-123117976D01*
X160573442Y-123066442D01*
X155976342Y-123066442D01*
X155283972Y-122374072D01*
X155334975Y-122339993D01*
X155611794Y-121925705D01*
X155702000Y-121472209D01*
X155792206Y-121925705D01*
X156069025Y-122339993D01*
X156483313Y-122616812D01*
X156972000Y-122714018D01*
X157460687Y-122616812D01*
X157874975Y-122339993D01*
X158151794Y-121925705D01*
X158209768Y-121634250D01*
X158281000Y-121634250D01*
X158281000Y-122337786D01*
X158339004Y-122477820D01*
X158446181Y-122584996D01*
X158586215Y-122643000D01*
X159289750Y-122643000D01*
X159385000Y-122547750D01*
X159385000Y-121539000D01*
X159639000Y-121539000D01*
X159639000Y-122547750D01*
X159734250Y-122643000D01*
X160437785Y-122643000D01*
X160577819Y-122584996D01*
X160684996Y-122477820D01*
X160743000Y-122337786D01*
X160743000Y-121634250D01*
X160647750Y-121539000D01*
X159639000Y-121539000D01*
X159385000Y-121539000D01*
X158376250Y-121539000D01*
X158281000Y-121634250D01*
X158209768Y-121634250D01*
X158249000Y-121437018D01*
X158249000Y-121386982D01*
X158151794Y-120898295D01*
X157876450Y-120486214D01*
X158281000Y-120486214D01*
X158281000Y-121189750D01*
X158376250Y-121285000D01*
X159385000Y-121285000D01*
X159385000Y-120276250D01*
X159639000Y-120276250D01*
X159639000Y-121285000D01*
X160647750Y-121285000D01*
X160662750Y-121270000D01*
X163199635Y-121270000D01*
X163199635Y-122570000D01*
X163229409Y-122728237D01*
X163322927Y-122873567D01*
X163465619Y-122971064D01*
X163635000Y-123005365D01*
X165135000Y-123005365D01*
X165293237Y-122975591D01*
X165438567Y-122882073D01*
X165536064Y-122739381D01*
X165570365Y-122570000D01*
X165570365Y-121270000D01*
X165899635Y-121270000D01*
X165899635Y-122570000D01*
X165929409Y-122728237D01*
X166022927Y-122873567D01*
X166165619Y-122971064D01*
X166335000Y-123005365D01*
X166533000Y-123005365D01*
X166533000Y-123374635D01*
X166335000Y-123374635D01*
X166176763Y-123404409D01*
X166031433Y-123497927D01*
X165933936Y-123640619D01*
X165899635Y-123810000D01*
X165899635Y-125110000D01*
X165929409Y-125268237D01*
X166022927Y-125413567D01*
X166165619Y-125511064D01*
X166335000Y-125545365D01*
X167835000Y-125545365D01*
X167993237Y-125515591D01*
X168138567Y-125422073D01*
X168236064Y-125279381D01*
X168270365Y-125110000D01*
X168270365Y-123810000D01*
X168240591Y-123651763D01*
X168147073Y-123506433D01*
X168004381Y-123408936D01*
X167835000Y-123374635D01*
X167637000Y-123374635D01*
X167637000Y-123005365D01*
X167835000Y-123005365D01*
X167993237Y-122975591D01*
X168138567Y-122882073D01*
X168236064Y-122739381D01*
X168270365Y-122570000D01*
X168270365Y-121270000D01*
X168240591Y-121111763D01*
X168147073Y-120966433D01*
X168004381Y-120868936D01*
X167835000Y-120834635D01*
X166335000Y-120834635D01*
X166176763Y-120864409D01*
X166031433Y-120957927D01*
X165933936Y-121100619D01*
X165899635Y-121270000D01*
X165570365Y-121270000D01*
X165540591Y-121111763D01*
X165447073Y-120966433D01*
X165304381Y-120868936D01*
X165135000Y-120834635D01*
X164937000Y-120834635D01*
X164937000Y-118787522D01*
X165039096Y-118787611D01*
X165343163Y-118661973D01*
X165576005Y-118429538D01*
X165702173Y-118125690D01*
X165702460Y-117796689D01*
X165576822Y-117492622D01*
X165344387Y-117259780D01*
X165040539Y-117133612D01*
X164711538Y-117133325D01*
X164407471Y-117258963D01*
X164174629Y-117491398D01*
X164048461Y-117795246D01*
X164048276Y-118006863D01*
X163994677Y-118060462D01*
X163875018Y-118239543D01*
X163875018Y-118239544D01*
X163833000Y-118450785D01*
X163833000Y-120834635D01*
X163635000Y-120834635D01*
X163476763Y-120864409D01*
X163331433Y-120957927D01*
X163233936Y-121100619D01*
X163199635Y-121270000D01*
X160662750Y-121270000D01*
X160743000Y-121189750D01*
X160743000Y-120486214D01*
X160684996Y-120346180D01*
X160577819Y-120239004D01*
X160437785Y-120181000D01*
X159734250Y-120181000D01*
X159639000Y-120276250D01*
X159385000Y-120276250D01*
X159289750Y-120181000D01*
X158586215Y-120181000D01*
X158446181Y-120239004D01*
X158339004Y-120346180D01*
X158281000Y-120486214D01*
X157876450Y-120486214D01*
X157874975Y-120484007D01*
X157460687Y-120207188D01*
X156972000Y-120109982D01*
X156483313Y-120207188D01*
X156069025Y-120484007D01*
X155792206Y-120898295D01*
X155702000Y-121351791D01*
X155611794Y-120898295D01*
X155334975Y-120484007D01*
X154920687Y-120207188D01*
X154432000Y-120109982D01*
X153943313Y-120207188D01*
X153529025Y-120484007D01*
X153252206Y-120898295D01*
X153155000Y-121386982D01*
X152049805Y-121386982D01*
X154779724Y-118657063D01*
X159767854Y-118657063D01*
X159979096Y-118615045D01*
X160158177Y-118495386D01*
X162346323Y-116307240D01*
X162465982Y-116128159D01*
X162508000Y-115916917D01*
X162508000Y-114749490D01*
X162646843Y-114656718D01*
X162858630Y-114339757D01*
X162933000Y-113965875D01*
X162933000Y-112617250D01*
X166609000Y-112617250D01*
X166609000Y-113220786D01*
X166667004Y-113360820D01*
X166774181Y-113467996D01*
X166914215Y-113526000D01*
X167417750Y-113526000D01*
X167513000Y-113430750D01*
X167513000Y-112522000D01*
X167767000Y-112522000D01*
X167767000Y-113430750D01*
X167862250Y-113526000D01*
X168365785Y-113526000D01*
X168505819Y-113467996D01*
X168612996Y-113360820D01*
X168671000Y-113220786D01*
X168671000Y-112617250D01*
X168575750Y-112522000D01*
X167767000Y-112522000D01*
X167513000Y-112522000D01*
X166704250Y-112522000D01*
X166609000Y-112617250D01*
X162933000Y-112617250D01*
X162933000Y-112602125D01*
X162858630Y-112228243D01*
X162646843Y-111911282D01*
X162485858Y-111803715D01*
X163424925Y-111803715D01*
X163567881Y-112102514D01*
X163842389Y-112345531D01*
X164189000Y-112465000D01*
X164839000Y-112465000D01*
X164839000Y-111661000D01*
X165093000Y-111661000D01*
X165093000Y-112465000D01*
X165743000Y-112465000D01*
X166089611Y-112345531D01*
X166364119Y-112102514D01*
X166507075Y-111803715D01*
X166442044Y-111661000D01*
X165093000Y-111661000D01*
X164839000Y-111661000D01*
X163489956Y-111661000D01*
X163424925Y-111803715D01*
X162485858Y-111803715D01*
X162329882Y-111699495D01*
X161956000Y-111625125D01*
X161582118Y-111699495D01*
X161265157Y-111911282D01*
X161053370Y-112228243D01*
X160979000Y-112602125D01*
X160979000Y-113965875D01*
X161053370Y-114339757D01*
X161265157Y-114656718D01*
X161404000Y-114749490D01*
X161404000Y-115688271D01*
X160508000Y-116584271D01*
X160508000Y-114749490D01*
X160646843Y-114656718D01*
X160858630Y-114339757D01*
X160933000Y-113965875D01*
X160933000Y-112602125D01*
X160858630Y-112228243D01*
X160646843Y-111911282D01*
X160329882Y-111699495D01*
X159956000Y-111625125D01*
X159582118Y-111699495D01*
X159265157Y-111911282D01*
X159053370Y-112228243D01*
X158979000Y-112602125D01*
X158979000Y-113965875D01*
X159053370Y-114339757D01*
X159265157Y-114656718D01*
X159404000Y-114749490D01*
X159404000Y-115939509D01*
X159350702Y-115886118D01*
X159046854Y-115759950D01*
X158986560Y-115759897D01*
X158986802Y-115482274D01*
X158861164Y-115178207D01*
X158628729Y-114945365D01*
X158508000Y-114895234D01*
X158508000Y-114749490D01*
X158646843Y-114656718D01*
X158858630Y-114339757D01*
X158933000Y-113965875D01*
X158933000Y-112602125D01*
X158858630Y-112228243D01*
X158646843Y-111911282D01*
X158329882Y-111699495D01*
X157956000Y-111625125D01*
X157582118Y-111699495D01*
X157265157Y-111911282D01*
X157053370Y-112228243D01*
X156979000Y-112602125D01*
X156979000Y-113965875D01*
X157053370Y-114339757D01*
X157265157Y-114656718D01*
X157404000Y-114749490D01*
X157404000Y-115309369D01*
X157377011Y-115374365D01*
X156651858Y-114649212D01*
X156858630Y-114339757D01*
X156933000Y-113965875D01*
X156933000Y-112602125D01*
X156858630Y-112228243D01*
X156646843Y-111911282D01*
X156329882Y-111699495D01*
X155956000Y-111625125D01*
X155582118Y-111699495D01*
X155265157Y-111911282D01*
X155053370Y-112228243D01*
X154979000Y-112602125D01*
X154979000Y-113965875D01*
X155053370Y-114339757D01*
X155265157Y-114656718D01*
X155407553Y-114751864D01*
X155446018Y-114945242D01*
X155565677Y-115124323D01*
X157418483Y-116977129D01*
X157492595Y-117026649D01*
X154508000Y-117026649D01*
X154508000Y-114749490D01*
X154646843Y-114656718D01*
X154858630Y-114339757D01*
X154933000Y-113965875D01*
X154933000Y-112602125D01*
X154858630Y-112228243D01*
X154646843Y-111911282D01*
X154329882Y-111699495D01*
X153956000Y-111625125D01*
X153582118Y-111699495D01*
X153265157Y-111911282D01*
X153053370Y-112228243D01*
X152979000Y-112602125D01*
X152979000Y-113965875D01*
X153053370Y-114339757D01*
X153265157Y-114656718D01*
X153404000Y-114749490D01*
X153404000Y-117091979D01*
X152508000Y-117987979D01*
X152508000Y-114749490D01*
X152646843Y-114656718D01*
X152858630Y-114339757D01*
X152933000Y-113965875D01*
X152933000Y-112602125D01*
X152858630Y-112228243D01*
X152646843Y-111911282D01*
X152329882Y-111699495D01*
X151956000Y-111625125D01*
X151582118Y-111699495D01*
X151265157Y-111911282D01*
X151053370Y-112228243D01*
X150979000Y-112602125D01*
X150979000Y-113965875D01*
X151053370Y-114339757D01*
X151265157Y-114656718D01*
X151404000Y-114749490D01*
X151404000Y-118414009D01*
X148944965Y-120873044D01*
X142465105Y-120873044D01*
X141089738Y-119497677D01*
X140910657Y-119378018D01*
X140699415Y-119336000D01*
X140608508Y-119336000D01*
X140373993Y-118985025D01*
X139959705Y-118708206D01*
X139506209Y-118618000D01*
X139959705Y-118527794D01*
X140373993Y-118250975D01*
X140650812Y-117836687D01*
X140657264Y-117804250D01*
X146314000Y-117804250D01*
X146314000Y-118407786D01*
X146372004Y-118547820D01*
X146479181Y-118654996D01*
X146619215Y-118713000D01*
X147097750Y-118713000D01*
X147193000Y-118617750D01*
X147193000Y-117709000D01*
X147447000Y-117709000D01*
X147447000Y-118617750D01*
X147542250Y-118713000D01*
X148020785Y-118713000D01*
X148160819Y-118654996D01*
X148267996Y-118547820D01*
X148326000Y-118407786D01*
X148326000Y-117804250D01*
X148854000Y-117804250D01*
X148854000Y-118407786D01*
X148912004Y-118547820D01*
X149019181Y-118654996D01*
X149159215Y-118713000D01*
X149637750Y-118713000D01*
X149733000Y-118617750D01*
X149733000Y-117709000D01*
X149987000Y-117709000D01*
X149987000Y-118617750D01*
X150082250Y-118713000D01*
X150560785Y-118713000D01*
X150700819Y-118654996D01*
X150807996Y-118547820D01*
X150866000Y-118407786D01*
X150866000Y-117804250D01*
X150770750Y-117709000D01*
X149987000Y-117709000D01*
X149733000Y-117709000D01*
X148949250Y-117709000D01*
X148854000Y-117804250D01*
X148326000Y-117804250D01*
X148230750Y-117709000D01*
X147447000Y-117709000D01*
X147193000Y-117709000D01*
X146409250Y-117709000D01*
X146314000Y-117804250D01*
X140657264Y-117804250D01*
X140748018Y-117348000D01*
X140703321Y-117123293D01*
X141070400Y-116756214D01*
X146314000Y-116756214D01*
X146314000Y-117359750D01*
X146409250Y-117455000D01*
X147193000Y-117455000D01*
X147193000Y-116546250D01*
X147447000Y-116546250D01*
X147447000Y-117455000D01*
X148230750Y-117455000D01*
X148326000Y-117359750D01*
X148326000Y-116756214D01*
X148854000Y-116756214D01*
X148854000Y-117359750D01*
X148949250Y-117455000D01*
X149733000Y-117455000D01*
X149733000Y-116546250D01*
X149987000Y-116546250D01*
X149987000Y-117455000D01*
X150770750Y-117455000D01*
X150866000Y-117359750D01*
X150866000Y-116756214D01*
X150807996Y-116616180D01*
X150700819Y-116509004D01*
X150560785Y-116451000D01*
X150082250Y-116451000D01*
X149987000Y-116546250D01*
X149733000Y-116546250D01*
X149637750Y-116451000D01*
X149159215Y-116451000D01*
X149019181Y-116509004D01*
X148912004Y-116616180D01*
X148854000Y-116756214D01*
X148326000Y-116756214D01*
X148267996Y-116616180D01*
X148160819Y-116509004D01*
X148020785Y-116451000D01*
X147542250Y-116451000D01*
X147447000Y-116546250D01*
X147193000Y-116546250D01*
X147097750Y-116451000D01*
X146619215Y-116451000D01*
X146479181Y-116509004D01*
X146372004Y-116616180D01*
X146314000Y-116756214D01*
X141070400Y-116756214D01*
X147598371Y-110228243D01*
X147910243Y-110436630D01*
X148284125Y-110511000D01*
X149647875Y-110511000D01*
X150021757Y-110436630D01*
X150338718Y-110224843D01*
X150550505Y-109907882D01*
X150624875Y-109534000D01*
X150550505Y-109160118D01*
X150338718Y-108843157D01*
X150021757Y-108631370D01*
X149647875Y-108557000D01*
X148284125Y-108557000D01*
X147910243Y-108631370D01*
X147593282Y-108843157D01*
X147498754Y-108984628D01*
X147300726Y-109024018D01*
X147121645Y-109143677D01*
X140042077Y-116223245D01*
X139959705Y-116168206D01*
X139506209Y-116078000D01*
X139959705Y-115987794D01*
X140373993Y-115710975D01*
X140650812Y-115296687D01*
X140726991Y-114913711D01*
X147522216Y-108118486D01*
X147593282Y-108224843D01*
X147910243Y-108436630D01*
X148284125Y-108511000D01*
X149647875Y-108511000D01*
X150021757Y-108436630D01*
X150338718Y-108224843D01*
X150550505Y-107907882D01*
X150624875Y-107534000D01*
X150550505Y-107160118D01*
X150338718Y-106843157D01*
X150021757Y-106631370D01*
X149647875Y-106557000D01*
X148284125Y-106557000D01*
X147910243Y-106631370D01*
X147593282Y-106843157D01*
X147500510Y-106982000D01*
X147326056Y-106982000D01*
X147114815Y-107024018D01*
X147034597Y-107077618D01*
X146935733Y-107143677D01*
X140254337Y-113825073D01*
X139959705Y-113628206D01*
X139506209Y-113538000D01*
X139959705Y-113447794D01*
X140373993Y-113170975D01*
X140650812Y-112756687D01*
X140748018Y-112268000D01*
X140739271Y-112224024D01*
X146877295Y-106086000D01*
X147500510Y-106086000D01*
X147593282Y-106224843D01*
X147910243Y-106436630D01*
X148284125Y-106511000D01*
X149647875Y-106511000D01*
X150021757Y-106436630D01*
X150338718Y-106224843D01*
X150550505Y-105907882D01*
X150624875Y-105534000D01*
X150550505Y-105160118D01*
X150338718Y-104843157D01*
X150021757Y-104631370D01*
X149647875Y-104557000D01*
X148284125Y-104557000D01*
X147910243Y-104631370D01*
X147593282Y-104843157D01*
X147500510Y-104982000D01*
X146648649Y-104982000D01*
X146437407Y-105024018D01*
X146258326Y-105143677D01*
X140171967Y-111230036D01*
X139959705Y-111088206D01*
X139506209Y-110998000D01*
X139959705Y-110907794D01*
X140373993Y-110630975D01*
X140608508Y-110280000D01*
X140669711Y-110280000D01*
X140880953Y-110237982D01*
X141060034Y-110118323D01*
X147092357Y-104086000D01*
X147500510Y-104086000D01*
X147593282Y-104224843D01*
X147910243Y-104436630D01*
X148284125Y-104511000D01*
X149647875Y-104511000D01*
X150021757Y-104436630D01*
X150338718Y-104224843D01*
X150550505Y-103907882D01*
X150624875Y-103534000D01*
X150550505Y-103160118D01*
X150338718Y-102843157D01*
X150021757Y-102631370D01*
X149647875Y-102557000D01*
X148284125Y-102557000D01*
X147910243Y-102631370D01*
X147593282Y-102843157D01*
X147500510Y-102982000D01*
X146863711Y-102982000D01*
X146652469Y-103024018D01*
X146473388Y-103143677D01*
X140541439Y-109075626D01*
X140373993Y-108825025D01*
X139959705Y-108548206D01*
X139583454Y-108473365D01*
X140296000Y-108473365D01*
X140454237Y-108443591D01*
X140599567Y-108350073D01*
X140697064Y-108207381D01*
X140731365Y-108038000D01*
X140731365Y-107665701D01*
X140862134Y-107578323D01*
X147585191Y-100855266D01*
X147381495Y-101160118D01*
X147307125Y-101534000D01*
X147381495Y-101907882D01*
X147593282Y-102224843D01*
X147910243Y-102436630D01*
X148284125Y-102511000D01*
X149647875Y-102511000D01*
X150021757Y-102436630D01*
X150338718Y-102224843D01*
X150347968Y-102211000D01*
X150385578Y-102211000D01*
X150707000Y-102532423D01*
X150707000Y-110330470D01*
X150252154Y-110785317D01*
X150021757Y-110631370D01*
X149647875Y-110557000D01*
X148284125Y-110557000D01*
X147910243Y-110631370D01*
X147593282Y-110843157D01*
X147381495Y-111160118D01*
X147307125Y-111534000D01*
X147381495Y-111907882D01*
X147593282Y-112224843D01*
X147910243Y-112436630D01*
X148284125Y-112511000D01*
X148289000Y-112511000D01*
X148289000Y-112584000D01*
X148340534Y-112843077D01*
X148374344Y-112893677D01*
X148487289Y-113062711D01*
X149183000Y-113758422D01*
X149183000Y-113906419D01*
X149076763Y-113926409D01*
X148931433Y-114019927D01*
X148833936Y-114162619D01*
X148799635Y-114332000D01*
X148799635Y-114405000D01*
X148380365Y-114405000D01*
X148380365Y-114332000D01*
X148350591Y-114173763D01*
X148257073Y-114028433D01*
X148114381Y-113930936D01*
X147945000Y-113896635D01*
X146695000Y-113896635D01*
X146536763Y-113926409D01*
X146391433Y-114019927D01*
X146293936Y-114162619D01*
X146259635Y-114332000D01*
X146259635Y-115832000D01*
X146289409Y-115990237D01*
X146382927Y-116135567D01*
X146525619Y-116233064D01*
X146695000Y-116267365D01*
X147945000Y-116267365D01*
X148103237Y-116237591D01*
X148248567Y-116144073D01*
X148346064Y-116001381D01*
X148380365Y-115832000D01*
X148380365Y-115759000D01*
X148799635Y-115759000D01*
X148799635Y-115832000D01*
X148829409Y-115990237D01*
X148922927Y-116135567D01*
X149065619Y-116233064D01*
X149235000Y-116267365D01*
X150485000Y-116267365D01*
X150643237Y-116237591D01*
X150788567Y-116144073D01*
X150886064Y-116001381D01*
X150920365Y-115832000D01*
X150920365Y-114332000D01*
X150890591Y-114173763D01*
X150797073Y-114028433D01*
X150654381Y-113930936D01*
X150537000Y-113907165D01*
X150537000Y-113478000D01*
X150485466Y-113218923D01*
X150338711Y-112999289D01*
X149816817Y-112477395D01*
X150021757Y-112436630D01*
X150338718Y-112224843D01*
X150347968Y-112211000D01*
X150460893Y-112211000D01*
X150719970Y-112159466D01*
X150939604Y-112012711D01*
X151383101Y-111569214D01*
X166609000Y-111569214D01*
X166609000Y-112172750D01*
X166704250Y-112268000D01*
X167513000Y-112268000D01*
X167513000Y-111359250D01*
X167767000Y-111359250D01*
X167767000Y-112268000D01*
X168575750Y-112268000D01*
X168671000Y-112172750D01*
X168671000Y-111569214D01*
X168612996Y-111429180D01*
X168505819Y-111322004D01*
X168365785Y-111264000D01*
X167862250Y-111264000D01*
X167767000Y-111359250D01*
X167513000Y-111359250D01*
X167417750Y-111264000D01*
X166914215Y-111264000D01*
X166774181Y-111322004D01*
X166667004Y-111429180D01*
X166609000Y-111569214D01*
X151383101Y-111569214D01*
X151688030Y-111264285D01*
X163424925Y-111264285D01*
X163489956Y-111407000D01*
X164839000Y-111407000D01*
X164839000Y-110603000D01*
X165093000Y-110603000D01*
X165093000Y-111407000D01*
X166442044Y-111407000D01*
X166507075Y-111264285D01*
X166364119Y-110965486D01*
X166089611Y-110722469D01*
X165743000Y-110603000D01*
X165093000Y-110603000D01*
X164839000Y-110603000D01*
X164189000Y-110603000D01*
X163842389Y-110722469D01*
X163567881Y-110965486D01*
X163424925Y-111264285D01*
X151688030Y-111264285D01*
X151862711Y-111089605D01*
X151945644Y-110965486D01*
X152009466Y-110869970D01*
X152061000Y-110610893D01*
X152061000Y-107534000D01*
X163307125Y-107534000D01*
X163381495Y-107907882D01*
X163593282Y-108224843D01*
X163910243Y-108436630D01*
X164284125Y-108511000D01*
X165647875Y-108511000D01*
X166021757Y-108436630D01*
X166338718Y-108224843D01*
X166431433Y-108086086D01*
X166513832Y-108168629D01*
X166817680Y-108294797D01*
X167146681Y-108295084D01*
X167450748Y-108169446D01*
X167683590Y-107937011D01*
X167809758Y-107633163D01*
X167810045Y-107304162D01*
X167684407Y-107000095D01*
X167451972Y-106767253D01*
X167148124Y-106641085D01*
X166819123Y-106640798D01*
X166515056Y-106766436D01*
X166378523Y-106902730D01*
X166338718Y-106843157D01*
X166021757Y-106631370D01*
X165647875Y-106557000D01*
X164284125Y-106557000D01*
X163910243Y-106631370D01*
X163593282Y-106843157D01*
X163381495Y-107160118D01*
X163307125Y-107534000D01*
X152061000Y-107534000D01*
X152061000Y-106456722D01*
X158875162Y-106456722D01*
X158983387Y-106565136D01*
X159323975Y-106706561D01*
X159692759Y-106706883D01*
X160033593Y-106566053D01*
X160294590Y-106305511D01*
X160436015Y-105964923D01*
X160436337Y-105596139D01*
X160295507Y-105255305D01*
X160034965Y-104994308D01*
X159694377Y-104852883D01*
X159325593Y-104852561D01*
X158984759Y-104993391D01*
X158875237Y-105102722D01*
X152061000Y-105102722D01*
X152061000Y-102252000D01*
X152009466Y-101992923D01*
X151875933Y-101793077D01*
X151862711Y-101773288D01*
X151144711Y-101055289D01*
X151035026Y-100982000D01*
X150925077Y-100908534D01*
X150666000Y-100857000D01*
X150347968Y-100857000D01*
X150338718Y-100843157D01*
X150021757Y-100631370D01*
X149647875Y-100557000D01*
X148284125Y-100557000D01*
X147910243Y-100631370D01*
X147605391Y-100835066D01*
X147988300Y-100452157D01*
X148284125Y-100511000D01*
X149647875Y-100511000D01*
X150021757Y-100436630D01*
X150338718Y-100224843D01*
X150550505Y-99907882D01*
X150624875Y-99534000D01*
X150550505Y-99160118D01*
X150338718Y-98843157D01*
X150021757Y-98631370D01*
X149647875Y-98557000D01*
X148284125Y-98557000D01*
X147910243Y-98631370D01*
X147593282Y-98843157D01*
X147381495Y-99160118D01*
X147307125Y-99534000D01*
X147313436Y-99565729D01*
X140700734Y-106178431D01*
X140608073Y-106034433D01*
X140465381Y-105936936D01*
X140296000Y-105902635D01*
X138596000Y-105902635D01*
X138437763Y-105932409D01*
X138292433Y-106025927D01*
X138194936Y-106168619D01*
X138160635Y-106338000D01*
X138160635Y-108038000D01*
X138190409Y-108196237D01*
X138283927Y-108341567D01*
X138426619Y-108439064D01*
X138596000Y-108473365D01*
X139308546Y-108473365D01*
X138932295Y-108548206D01*
X138518007Y-108825025D01*
X138241188Y-109239313D01*
X138143982Y-109728000D01*
X137777500Y-109728000D01*
X137777500Y-100209964D01*
X139983823Y-100209964D01*
X140314562Y-101010414D01*
X140926445Y-101623365D01*
X141726316Y-101955501D01*
X142592404Y-101956257D01*
X143392854Y-101625518D01*
X144005805Y-101013635D01*
X144337941Y-100213764D01*
X144338697Y-99347676D01*
X144007958Y-98547226D01*
X143396075Y-97934275D01*
X142888565Y-97723538D01*
X144882964Y-97723538D01*
X145008602Y-98027605D01*
X145241037Y-98260447D01*
X145544885Y-98386615D01*
X145873886Y-98386902D01*
X146177953Y-98261264D01*
X146353524Y-98086000D01*
X147331011Y-98086000D01*
X147360409Y-98242237D01*
X147453927Y-98387567D01*
X147596619Y-98485064D01*
X147766000Y-98519365D01*
X150166000Y-98519365D01*
X150324237Y-98489591D01*
X150469567Y-98396073D01*
X150567064Y-98253381D01*
X150601365Y-98084000D01*
X150601365Y-96984000D01*
X150571591Y-96825763D01*
X150478073Y-96680433D01*
X150335381Y-96582936D01*
X150166000Y-96548635D01*
X147766000Y-96548635D01*
X147607763Y-96578409D01*
X147462433Y-96671927D01*
X147364936Y-96814619D01*
X147331040Y-96982000D01*
X146301891Y-96982000D01*
X146179177Y-96859071D01*
X145875329Y-96732903D01*
X145546328Y-96732616D01*
X145242261Y-96858254D01*
X145009419Y-97090689D01*
X144883251Y-97394537D01*
X144882964Y-97723538D01*
X142888565Y-97723538D01*
X142596204Y-97602139D01*
X141730116Y-97601383D01*
X140929666Y-97932122D01*
X140316715Y-98544005D01*
X139984579Y-99343876D01*
X139983823Y-100209964D01*
X137777500Y-100209964D01*
X137777500Y-95397600D01*
X176505994Y-95397600D01*
X176542420Y-95434026D01*
X176542420Y-95434026D01*
G37*
X176542420Y-95434026D02*
X176542420Y-144162500D01*
X137777500Y-144162500D01*
X137777500Y-140209884D01*
X139983823Y-140209884D01*
X140314562Y-141010334D01*
X140926445Y-141623285D01*
X141726316Y-141955421D01*
X142592404Y-141956177D01*
X143392854Y-141625438D01*
X144005805Y-141013555D01*
X144015585Y-140990000D01*
X146514635Y-140990000D01*
X146514635Y-143490000D01*
X146544409Y-143648237D01*
X146637927Y-143793567D01*
X146780619Y-143891064D01*
X146950000Y-143925365D01*
X148950000Y-143925365D01*
X149108237Y-143895591D01*
X149253567Y-143802073D01*
X149351064Y-143659381D01*
X149385365Y-143490000D01*
X149385365Y-140990000D01*
X149355591Y-140831763D01*
X149262073Y-140686433D01*
X149119381Y-140588936D01*
X148950000Y-140554635D01*
X146950000Y-140554635D01*
X146791763Y-140584409D01*
X146646433Y-140677927D01*
X146548936Y-140820619D01*
X146514635Y-140990000D01*
X144015585Y-140990000D01*
X144337941Y-140213684D01*
X144338697Y-139347596D01*
X144007958Y-138547146D01*
X143396075Y-137934195D01*
X142596204Y-137602059D01*
X141730116Y-137601303D01*
X140929666Y-137932042D01*
X140316715Y-138543925D01*
X139984579Y-139343796D01*
X139983823Y-140209884D01*
X137777500Y-140209884D01*
X137777500Y-132904980D01*
X138256511Y-132904980D01*
X138380755Y-133204964D01*
X138697944Y-133565652D01*
X139129018Y-133777501D01*
X139319000Y-133717193D01*
X139319000Y-132715000D01*
X139573000Y-132715000D01*
X139573000Y-133717193D01*
X139762982Y-133777501D01*
X140194056Y-133565652D01*
X140511245Y-133204964D01*
X140635489Y-132904980D01*
X140574627Y-132715000D01*
X139573000Y-132715000D01*
X139319000Y-132715000D01*
X138317373Y-132715000D01*
X138256511Y-132904980D01*
X137777500Y-132904980D01*
X137777500Y-132680000D01*
X144202635Y-132680000D01*
X144202635Y-134180000D01*
X144232409Y-134338237D01*
X144325927Y-134483567D01*
X144468619Y-134581064D01*
X144638000Y-134615365D01*
X144736000Y-134615365D01*
X144736000Y-136132883D01*
X144616988Y-136251687D01*
X144490820Y-136555535D01*
X144490533Y-136884536D01*
X144616171Y-137188603D01*
X144848606Y-137421445D01*
X145152454Y-137547613D01*
X145481455Y-137547900D01*
X145785522Y-137422262D01*
X146018364Y-137189827D01*
X146144532Y-136885979D01*
X146144819Y-136556978D01*
X146019181Y-136252911D01*
X145840000Y-136073416D01*
X145840000Y-135490000D01*
X146514635Y-135490000D01*
X146514635Y-137990000D01*
X146544409Y-138148237D01*
X146637927Y-138293567D01*
X146780619Y-138391064D01*
X146950000Y-138425365D01*
X148950000Y-138425365D01*
X149108237Y-138395591D01*
X149253567Y-138302073D01*
X149351064Y-138159381D01*
X149385365Y-137990000D01*
X149385365Y-135490000D01*
X149355591Y-135331763D01*
X149262073Y-135186433D01*
X149119381Y-135088936D01*
X148950000Y-135054635D01*
X146950000Y-135054635D01*
X146791763Y-135084409D01*
X146646433Y-135177927D01*
X146548936Y-135320619D01*
X146514635Y-135490000D01*
X145840000Y-135490000D01*
X145840000Y-134615365D01*
X145938000Y-134615365D01*
X146096237Y-134585591D01*
X146241567Y-134492073D01*
X146339064Y-134349381D01*
X146373365Y-134180000D01*
X146373365Y-133787583D01*
X147408839Y-133787583D01*
X147549669Y-134128417D01*
X147810211Y-134389414D01*
X148150799Y-134530839D01*
X148519583Y-134531161D01*
X148860417Y-134390331D01*
X148969939Y-134281000D01*
X149974419Y-134281000D01*
X149994409Y-134387237D01*
X150087927Y-134532567D01*
X150123000Y-134556531D01*
X150123000Y-135448693D01*
X150114635Y-135490000D01*
X150114635Y-137790000D01*
X150144409Y-137948237D01*
X150237927Y-138093567D01*
X150380619Y-138191064D01*
X150550000Y-138225365D01*
X151048000Y-138225365D01*
X151048000Y-138995768D01*
X150943918Y-138743869D01*
X150697429Y-138496949D01*
X150375211Y-138363153D01*
X150026319Y-138362849D01*
X149703869Y-138496082D01*
X149456949Y-138742571D01*
X149323153Y-139064789D01*
X149322849Y-139413681D01*
X149456082Y-139736131D01*
X149702571Y-139983051D01*
X150024789Y-140116847D01*
X150373681Y-140117151D01*
X150673102Y-139993433D01*
X150672933Y-140187411D01*
X150798571Y-140491478D01*
X151031006Y-140724320D01*
X151208629Y-140798075D01*
X151085569Y-140920920D01*
X150959401Y-141224768D01*
X150959114Y-141553769D01*
X151084752Y-141857836D01*
X151317187Y-142090678D01*
X151621035Y-142216846D01*
X151950036Y-142217133D01*
X152254103Y-142091495D01*
X152486945Y-141859060D01*
X152613113Y-141555212D01*
X152613298Y-141343595D01*
X152790323Y-141166570D01*
X152908304Y-140990000D01*
X155414635Y-140990000D01*
X155414635Y-143490000D01*
X155444409Y-143648237D01*
X155537927Y-143793567D01*
X155680619Y-143891064D01*
X155850000Y-143925365D01*
X157850000Y-143925365D01*
X158008237Y-143895591D01*
X158153567Y-143802073D01*
X158251064Y-143659381D01*
X158285365Y-143490000D01*
X158285365Y-140990000D01*
X158255591Y-140831763D01*
X158162073Y-140686433D01*
X158019381Y-140588936D01*
X157850000Y-140554635D01*
X155850000Y-140554635D01*
X155691763Y-140584409D01*
X155546433Y-140677927D01*
X155448936Y-140820619D01*
X155414635Y-140990000D01*
X152908304Y-140990000D01*
X152909982Y-140987489D01*
X152952000Y-140776247D01*
X152952000Y-139413681D01*
X153722849Y-139413681D01*
X153856082Y-139736131D01*
X154102571Y-139983051D01*
X154424789Y-140116847D01*
X154773681Y-140117151D01*
X155096131Y-139983918D01*
X155343051Y-139737429D01*
X155476847Y-139415211D01*
X155477151Y-139066319D01*
X155343918Y-138743869D01*
X155097429Y-138496949D01*
X154965097Y-138442000D01*
X159442635Y-138442000D01*
X159442635Y-139942000D01*
X159472409Y-140100237D01*
X159565927Y-140245567D01*
X159708619Y-140343064D01*
X159878000Y-140377365D01*
X159976000Y-140377365D01*
X159976000Y-140716000D01*
X160018018Y-140927242D01*
X160137677Y-141106323D01*
X160381391Y-141350037D01*
X160130583Y-141453669D01*
X159869586Y-141714211D01*
X159728161Y-142054799D01*
X159727839Y-142423583D01*
X159868669Y-142764417D01*
X160129211Y-143025414D01*
X160469799Y-143166839D01*
X160838583Y-143167161D01*
X161179417Y-143026331D01*
X161288939Y-142917000D01*
X167628217Y-142917000D01*
X167736433Y-143025405D01*
X168077021Y-143166830D01*
X168445805Y-143167152D01*
X168786639Y-143026322D01*
X169047636Y-142765780D01*
X169189061Y-142425192D01*
X169189383Y-142056408D01*
X169048553Y-141715574D01*
X168788011Y-141454577D01*
X168447423Y-141313152D01*
X168331595Y-141313051D01*
X168538323Y-141106323D01*
X168600309Y-141013555D01*
X168657982Y-140927241D01*
X168700000Y-140716000D01*
X168700000Y-140377365D01*
X168798000Y-140377365D01*
X168956237Y-140347591D01*
X169101567Y-140254073D01*
X169131759Y-140209884D01*
X169983763Y-140209884D01*
X170314502Y-141010334D01*
X170926385Y-141623285D01*
X171726256Y-141955421D01*
X172592344Y-141956177D01*
X173392794Y-141625438D01*
X174005745Y-141013555D01*
X174337881Y-140213684D01*
X174338637Y-139347596D01*
X174007898Y-138547146D01*
X173396015Y-137934195D01*
X172596144Y-137602059D01*
X171730056Y-137601303D01*
X170929606Y-137932042D01*
X170316655Y-138543925D01*
X169984519Y-139343796D01*
X169983763Y-140209884D01*
X169131759Y-140209884D01*
X169199064Y-140111381D01*
X169233365Y-139942000D01*
X169233365Y-138442000D01*
X169203591Y-138283763D01*
X169110073Y-138138433D01*
X168967381Y-138040936D01*
X168798000Y-138006635D01*
X167498000Y-138006635D01*
X167339763Y-138036409D01*
X167194433Y-138129927D01*
X167096936Y-138272619D01*
X167062635Y-138442000D01*
X167062635Y-139942000D01*
X167092409Y-140100237D01*
X167185927Y-140245567D01*
X167328619Y-140343064D01*
X167498000Y-140377365D01*
X167596000Y-140377365D01*
X167596000Y-140487354D01*
X167411354Y-140672000D01*
X161264646Y-140672000D01*
X161080000Y-140487354D01*
X161080000Y-140377365D01*
X161178000Y-140377365D01*
X161336237Y-140347591D01*
X161481567Y-140254073D01*
X161579064Y-140111381D01*
X161613365Y-139942000D01*
X161613365Y-138442000D01*
X161982635Y-138442000D01*
X161982635Y-139942000D01*
X162012409Y-140100237D01*
X162105927Y-140245567D01*
X162248619Y-140343064D01*
X162418000Y-140377365D01*
X163718000Y-140377365D01*
X163876237Y-140347591D01*
X164021567Y-140254073D01*
X164119064Y-140111381D01*
X164153365Y-139942000D01*
X164153365Y-139744000D01*
X164522635Y-139744000D01*
X164522635Y-139942000D01*
X164552409Y-140100237D01*
X164645927Y-140245567D01*
X164788619Y-140343064D01*
X164958000Y-140377365D01*
X166258000Y-140377365D01*
X166416237Y-140347591D01*
X166561567Y-140254073D01*
X166659064Y-140111381D01*
X166693365Y-139942000D01*
X166693365Y-138442000D01*
X166663591Y-138283763D01*
X166570073Y-138138433D01*
X166427381Y-138040936D01*
X166258000Y-138006635D01*
X164958000Y-138006635D01*
X164799763Y-138036409D01*
X164654433Y-138129927D01*
X164556936Y-138272619D01*
X164522635Y-138442000D01*
X164522635Y-138640000D01*
X164153365Y-138640000D01*
X164153365Y-138442000D01*
X164123591Y-138283763D01*
X164030073Y-138138433D01*
X163887381Y-138040936D01*
X163718000Y-138006635D01*
X162418000Y-138006635D01*
X162259763Y-138036409D01*
X162114433Y-138129927D01*
X162016936Y-138272619D01*
X161982635Y-138442000D01*
X161613365Y-138442000D01*
X161583591Y-138283763D01*
X161490073Y-138138433D01*
X161347381Y-138040936D01*
X161178000Y-138006635D01*
X159878000Y-138006635D01*
X159719763Y-138036409D01*
X159574433Y-138129927D01*
X159476936Y-138272619D01*
X159442635Y-138442000D01*
X154965097Y-138442000D01*
X154775211Y-138363153D01*
X154426319Y-138362849D01*
X154103869Y-138496082D01*
X153856949Y-138742571D01*
X153723153Y-139064789D01*
X153722849Y-139413681D01*
X152952000Y-139413681D01*
X152952000Y-138171000D01*
X152979750Y-138171000D01*
X153075000Y-138075750D01*
X153075000Y-137841183D01*
X153085365Y-137790000D01*
X153085365Y-136767000D01*
X153325000Y-136767000D01*
X153325000Y-138075750D01*
X153420250Y-138171000D01*
X153525785Y-138171000D01*
X153600000Y-138140259D01*
X153674215Y-138171000D01*
X153779750Y-138171000D01*
X153875000Y-138075750D01*
X153875000Y-136767000D01*
X154125000Y-136767000D01*
X154125000Y-138075750D01*
X154220250Y-138171000D01*
X154325785Y-138171000D01*
X154465819Y-138112996D01*
X154572996Y-138005820D01*
X154631000Y-137865786D01*
X154631000Y-136862250D01*
X154535750Y-136767000D01*
X154125000Y-136767000D01*
X153875000Y-136767000D01*
X153325000Y-136767000D01*
X153085365Y-136767000D01*
X153085365Y-135490000D01*
X153075000Y-135434914D01*
X153075000Y-135204250D01*
X153325000Y-135204250D01*
X153325000Y-136513000D01*
X153875000Y-136513000D01*
X153875000Y-135204250D01*
X154125000Y-135204250D01*
X154125000Y-136513000D01*
X154535750Y-136513000D01*
X154631000Y-136417750D01*
X154631000Y-135490000D01*
X155414635Y-135490000D01*
X155414635Y-137990000D01*
X155444409Y-138148237D01*
X155537927Y-138293567D01*
X155680619Y-138391064D01*
X155850000Y-138425365D01*
X157850000Y-138425365D01*
X158008237Y-138395591D01*
X158153567Y-138302073D01*
X158251064Y-138159381D01*
X158285365Y-137990000D01*
X158285365Y-135742000D01*
X159442635Y-135742000D01*
X159442635Y-137242000D01*
X159472409Y-137400237D01*
X159565927Y-137545567D01*
X159708619Y-137643064D01*
X159878000Y-137677365D01*
X161178000Y-137677365D01*
X161336237Y-137647591D01*
X161481567Y-137554073D01*
X161579064Y-137411381D01*
X161613365Y-137242000D01*
X161613365Y-135742000D01*
X161982635Y-135742000D01*
X161982635Y-137242000D01*
X162012409Y-137400237D01*
X162105927Y-137545567D01*
X162248619Y-137643064D01*
X162418000Y-137677365D01*
X163718000Y-137677365D01*
X163876237Y-137647591D01*
X164021567Y-137554073D01*
X164119064Y-137411381D01*
X164153365Y-137242000D01*
X164153365Y-135742000D01*
X164123591Y-135583763D01*
X164030073Y-135438433D01*
X163887381Y-135340936D01*
X163718000Y-135306635D01*
X163620000Y-135306635D01*
X163620000Y-134275779D01*
X164272857Y-134275779D01*
X164398495Y-134579846D01*
X164630930Y-134812688D01*
X164934778Y-134938856D01*
X165056000Y-134938962D01*
X165056000Y-135306635D01*
X164958000Y-135306635D01*
X164799763Y-135336409D01*
X164654433Y-135429927D01*
X164556936Y-135572619D01*
X164522635Y-135742000D01*
X164522635Y-137242000D01*
X164552409Y-137400237D01*
X164645927Y-137545567D01*
X164788619Y-137643064D01*
X164958000Y-137677365D01*
X166258000Y-137677365D01*
X166416237Y-137647591D01*
X166561567Y-137554073D01*
X166659064Y-137411381D01*
X166693365Y-137242000D01*
X166693365Y-137044000D01*
X167062635Y-137044000D01*
X167062635Y-137242000D01*
X167092409Y-137400237D01*
X167185927Y-137545567D01*
X167328619Y-137643064D01*
X167498000Y-137677365D01*
X168798000Y-137677365D01*
X168956237Y-137647591D01*
X169101567Y-137554073D01*
X169199064Y-137411381D01*
X169233365Y-137242000D01*
X169233365Y-135742000D01*
X169203591Y-135583763D01*
X169110073Y-135438433D01*
X168967381Y-135340936D01*
X168798000Y-135306635D01*
X167498000Y-135306635D01*
X167339763Y-135336409D01*
X167194433Y-135429927D01*
X167096936Y-135572619D01*
X167062635Y-135742000D01*
X167062635Y-135940000D01*
X166693365Y-135940000D01*
X166693365Y-135742000D01*
X166663591Y-135583763D01*
X166570073Y-135438433D01*
X166427381Y-135340936D01*
X166258000Y-135306635D01*
X166160000Y-135306635D01*
X166160000Y-134620000D01*
X166117982Y-134408759D01*
X165998323Y-134229677D01*
X165926960Y-134158314D01*
X165927143Y-133948221D01*
X165801505Y-133644154D01*
X165569070Y-133411312D01*
X165265222Y-133285144D01*
X164936221Y-133284857D01*
X164632154Y-133410495D01*
X164399312Y-133642930D01*
X164273144Y-133946778D01*
X164272857Y-134275779D01*
X163620000Y-134275779D01*
X163620000Y-131333272D01*
X163772955Y-131333405D01*
X164077022Y-131207767D01*
X164309864Y-130975332D01*
X164436032Y-130671484D01*
X164436299Y-130364980D01*
X173816511Y-130364980D01*
X173940755Y-130664964D01*
X174257944Y-131025652D01*
X174689018Y-131237501D01*
X174879000Y-131177193D01*
X174879000Y-130175000D01*
X175133000Y-130175000D01*
X175133000Y-131177193D01*
X175322982Y-131237501D01*
X175754056Y-131025652D01*
X176071245Y-130664964D01*
X176195489Y-130364980D01*
X176134627Y-130175000D01*
X175133000Y-130175000D01*
X174879000Y-130175000D01*
X173877373Y-130175000D01*
X173816511Y-130364980D01*
X164436299Y-130364980D01*
X164436319Y-130342483D01*
X164310681Y-130038416D01*
X164078246Y-129805574D01*
X163898700Y-129731020D01*
X173816511Y-129731020D01*
X173877373Y-129921000D01*
X174879000Y-129921000D01*
X174879000Y-128918807D01*
X175133000Y-128918807D01*
X175133000Y-129921000D01*
X176134627Y-129921000D01*
X176195489Y-129731020D01*
X176071245Y-129431036D01*
X175754056Y-129070348D01*
X175322982Y-128858499D01*
X175133000Y-128918807D01*
X174879000Y-128918807D01*
X174689018Y-128858499D01*
X174257944Y-129070348D01*
X173940755Y-129431036D01*
X173816511Y-129731020D01*
X163898700Y-129731020D01*
X163774398Y-129679406D01*
X163445397Y-129679119D01*
X163141330Y-129804757D01*
X162908488Y-130037192D01*
X162782320Y-130341040D01*
X162782135Y-130552657D01*
X162677677Y-130657115D01*
X162558018Y-130836196D01*
X162558018Y-130836197D01*
X162516000Y-131047438D01*
X162516000Y-135306635D01*
X162418000Y-135306635D01*
X162259763Y-135336409D01*
X162114433Y-135429927D01*
X162016936Y-135572619D01*
X161982635Y-135742000D01*
X161613365Y-135742000D01*
X161583591Y-135583763D01*
X161490073Y-135438433D01*
X161347381Y-135340936D01*
X161178000Y-135306635D01*
X161080000Y-135306635D01*
X161080000Y-131207294D01*
X161266047Y-131284547D01*
X161595048Y-131284834D01*
X161899115Y-131159196D01*
X162131957Y-130926761D01*
X162258125Y-130622913D01*
X162258412Y-130293912D01*
X162132774Y-129989845D01*
X162049532Y-129906457D01*
X162536122Y-129419867D01*
X162655781Y-129240786D01*
X162695771Y-129039738D01*
X162846487Y-128889286D01*
X162972655Y-128585438D01*
X162972942Y-128256437D01*
X162847304Y-127952370D01*
X162614869Y-127719528D01*
X162311021Y-127593360D01*
X161982020Y-127593073D01*
X161677953Y-127718711D01*
X161445111Y-127951146D01*
X161318943Y-128254994D01*
X161318656Y-128583995D01*
X161444294Y-128888062D01*
X161475437Y-128919260D01*
X161080000Y-129314697D01*
X161080000Y-128182145D01*
X161198421Y-128063724D01*
X161243214Y-127996687D01*
X161318080Y-127884642D01*
X161348169Y-127733371D01*
X161508786Y-127573035D01*
X161634954Y-127269187D01*
X161635241Y-126940186D01*
X161509603Y-126636119D01*
X161277168Y-126403277D01*
X160973320Y-126277109D01*
X160644319Y-126276822D01*
X160340252Y-126402460D01*
X160107410Y-126634895D01*
X159981242Y-126938743D01*
X159980955Y-127267744D01*
X160106593Y-127571811D01*
X160121757Y-127587002D01*
X160018018Y-127742257D01*
X159992964Y-127868216D01*
X159976000Y-127953499D01*
X159976000Y-135306635D01*
X159878000Y-135306635D01*
X159719763Y-135336409D01*
X159574433Y-135429927D01*
X159476936Y-135572619D01*
X159442635Y-135742000D01*
X158285365Y-135742000D01*
X158285365Y-135490000D01*
X158255591Y-135331763D01*
X158162073Y-135186433D01*
X158019381Y-135088936D01*
X157850000Y-135054635D01*
X155850000Y-135054635D01*
X155691763Y-135084409D01*
X155546433Y-135177927D01*
X155448936Y-135320619D01*
X155414635Y-135490000D01*
X154631000Y-135490000D01*
X154631000Y-135414214D01*
X154572996Y-135274180D01*
X154465819Y-135167004D01*
X154325785Y-135109000D01*
X154220250Y-135109000D01*
X154125000Y-135204250D01*
X153875000Y-135204250D01*
X153779750Y-135109000D01*
X153674215Y-135109000D01*
X153600000Y-135139741D01*
X153525785Y-135109000D01*
X153420250Y-135109000D01*
X153325000Y-135204250D01*
X153075000Y-135204250D01*
X152979750Y-135109000D01*
X152874215Y-135109000D01*
X152858358Y-135115568D01*
X152819381Y-135088936D01*
X152650000Y-135054635D01*
X152150000Y-135054635D01*
X151994491Y-135083896D01*
X151850000Y-135054635D01*
X151477000Y-135054635D01*
X151477000Y-134664365D01*
X151900000Y-134664365D01*
X152058237Y-134634591D01*
X152203567Y-134541073D01*
X152301064Y-134398381D01*
X152335365Y-134229000D01*
X152335365Y-133826250D01*
X152519000Y-133826250D01*
X152519000Y-134304785D01*
X152577004Y-134444819D01*
X152684180Y-134551996D01*
X152824214Y-134610000D01*
X153427750Y-134610000D01*
X153523000Y-134514750D01*
X153523000Y-133731000D01*
X153777000Y-133731000D01*
X153777000Y-134514750D01*
X153872250Y-134610000D01*
X154475786Y-134610000D01*
X154615820Y-134551996D01*
X154722996Y-134444819D01*
X154781000Y-134304785D01*
X154781000Y-133826250D01*
X154685750Y-133731000D01*
X153777000Y-133731000D01*
X153523000Y-133731000D01*
X152614250Y-133731000D01*
X152519000Y-133826250D01*
X152335365Y-133826250D01*
X152335365Y-132979000D01*
X152321106Y-132903215D01*
X152519000Y-132903215D01*
X152519000Y-133381750D01*
X152614250Y-133477000D01*
X153523000Y-133477000D01*
X153523000Y-132693250D01*
X153777000Y-132693250D01*
X153777000Y-133477000D01*
X154685750Y-133477000D01*
X154781000Y-133381750D01*
X154781000Y-132903215D01*
X154722996Y-132763181D01*
X154615820Y-132656004D01*
X154475786Y-132598000D01*
X153872250Y-132598000D01*
X153777000Y-132693250D01*
X153523000Y-132693250D01*
X153427750Y-132598000D01*
X152824214Y-132598000D01*
X152684180Y-132656004D01*
X152577004Y-132763181D01*
X152519000Y-132903215D01*
X152321106Y-132903215D01*
X152305591Y-132820763D01*
X152212073Y-132675433D01*
X152069381Y-132577936D01*
X151900000Y-132543635D01*
X150400000Y-132543635D01*
X150241763Y-132573409D01*
X150096433Y-132666927D01*
X149998936Y-132809619D01*
X149975165Y-132927000D01*
X148970014Y-132927000D01*
X148861789Y-132818586D01*
X148521201Y-132677161D01*
X148152417Y-132676839D01*
X147811583Y-132817669D01*
X147550586Y-133078211D01*
X147409161Y-133418799D01*
X147408839Y-133787583D01*
X146373365Y-133787583D01*
X146373365Y-132680000D01*
X146343591Y-132521763D01*
X146250073Y-132376433D01*
X146107381Y-132278936D01*
X145938000Y-132244635D01*
X144638000Y-132244635D01*
X144479763Y-132274409D01*
X144334433Y-132367927D01*
X144236936Y-132510619D01*
X144202635Y-132680000D01*
X137777500Y-132680000D01*
X137777500Y-132271020D01*
X138256511Y-132271020D01*
X138317373Y-132461000D01*
X139319000Y-132461000D01*
X139319000Y-131458807D01*
X139573000Y-131458807D01*
X139573000Y-132461000D01*
X140574627Y-132461000D01*
X140635489Y-132271020D01*
X140511245Y-131971036D01*
X140194056Y-131610348D01*
X139762982Y-131398499D01*
X139573000Y-131458807D01*
X139319000Y-131458807D01*
X139129018Y-131398499D01*
X138697944Y-131610348D01*
X138380755Y-131971036D01*
X138256511Y-132271020D01*
X137777500Y-132271020D01*
X137777500Y-109728000D01*
X138143982Y-109728000D01*
X138241188Y-110216687D01*
X138518007Y-110630975D01*
X138932295Y-110907794D01*
X139385791Y-110998000D01*
X138932295Y-111088206D01*
X138518007Y-111365025D01*
X138241188Y-111779313D01*
X138143982Y-112268000D01*
X138241188Y-112756687D01*
X138518007Y-113170975D01*
X138932295Y-113447794D01*
X139385791Y-113538000D01*
X138932295Y-113628206D01*
X138518007Y-113905025D01*
X138241188Y-114319313D01*
X138143982Y-114808000D01*
X138241188Y-115296687D01*
X138518007Y-115710975D01*
X138932295Y-115987794D01*
X139385791Y-116078000D01*
X138932295Y-116168206D01*
X138518007Y-116445025D01*
X138241188Y-116859313D01*
X138143982Y-117348000D01*
X138241188Y-117836687D01*
X138518007Y-118250975D01*
X138932295Y-118527794D01*
X139385791Y-118618000D01*
X138932295Y-118708206D01*
X138518007Y-118985025D01*
X138241188Y-119399313D01*
X138143982Y-119888000D01*
X138241188Y-120376687D01*
X138518007Y-120790975D01*
X138932295Y-121067794D01*
X139385791Y-121158000D01*
X138932295Y-121248206D01*
X138518007Y-121525025D01*
X138241188Y-121939313D01*
X138143982Y-122428000D01*
X138241188Y-122916687D01*
X138518007Y-123330975D01*
X138932295Y-123607794D01*
X139385791Y-123698000D01*
X138932295Y-123788206D01*
X138518007Y-124065025D01*
X138241188Y-124479313D01*
X138143982Y-124968000D01*
X138241188Y-125456687D01*
X138518007Y-125870975D01*
X138932295Y-126147794D01*
X139385791Y-126238000D01*
X138932295Y-126328206D01*
X138518007Y-126605025D01*
X138241188Y-127019313D01*
X138143982Y-127508000D01*
X138241188Y-127996687D01*
X138518007Y-128410975D01*
X138932295Y-128687794D01*
X139385791Y-128778000D01*
X138932295Y-128868206D01*
X138518007Y-129145025D01*
X138241188Y-129559313D01*
X138143982Y-130048000D01*
X138241188Y-130536687D01*
X138518007Y-130950975D01*
X138932295Y-131227794D01*
X139420982Y-131325000D01*
X139471018Y-131325000D01*
X139959705Y-131227794D01*
X140372084Y-130952250D01*
X144257000Y-130952250D01*
X144257000Y-131555786D01*
X144315004Y-131695820D01*
X144422181Y-131802996D01*
X144562215Y-131861000D01*
X145065750Y-131861000D01*
X145161000Y-131765750D01*
X145161000Y-130857000D01*
X145415000Y-130857000D01*
X145415000Y-131765750D01*
X145510250Y-131861000D01*
X146013785Y-131861000D01*
X146153819Y-131802996D01*
X146260996Y-131695820D01*
X146319000Y-131555786D01*
X146319000Y-130952250D01*
X146223750Y-130857000D01*
X145415000Y-130857000D01*
X145161000Y-130857000D01*
X144352250Y-130857000D01*
X144257000Y-130952250D01*
X140372084Y-130952250D01*
X140373993Y-130950975D01*
X140489404Y-130778250D01*
X149390000Y-130778250D01*
X149390000Y-131281785D01*
X149448004Y-131421819D01*
X149555180Y-131528996D01*
X149695214Y-131587000D01*
X150323750Y-131587000D01*
X150419000Y-131491750D01*
X150419000Y-130683000D01*
X150673000Y-130683000D01*
X150673000Y-131491750D01*
X150768250Y-131587000D01*
X151396786Y-131587000D01*
X151536820Y-131528996D01*
X151643996Y-131421819D01*
X151702000Y-131281785D01*
X151702000Y-130778250D01*
X157340000Y-130778250D01*
X157340000Y-131281785D01*
X157398004Y-131421819D01*
X157505180Y-131528996D01*
X157645214Y-131587000D01*
X158273750Y-131587000D01*
X158369000Y-131491750D01*
X158369000Y-130683000D01*
X158623000Y-130683000D01*
X158623000Y-131491750D01*
X158718250Y-131587000D01*
X159346786Y-131587000D01*
X159486820Y-131528996D01*
X159593996Y-131421819D01*
X159652000Y-131281785D01*
X159652000Y-130778250D01*
X159556750Y-130683000D01*
X158623000Y-130683000D01*
X158369000Y-130683000D01*
X157435250Y-130683000D01*
X157340000Y-130778250D01*
X151702000Y-130778250D01*
X151606750Y-130683000D01*
X150673000Y-130683000D01*
X150419000Y-130683000D01*
X149485250Y-130683000D01*
X149390000Y-130778250D01*
X140489404Y-130778250D01*
X140524985Y-130725000D01*
X141028055Y-130725000D01*
X141287132Y-130673466D01*
X141506766Y-130526711D01*
X142129263Y-129904214D01*
X144257000Y-129904214D01*
X144257000Y-130507750D01*
X144352250Y-130603000D01*
X145161000Y-130603000D01*
X145161000Y-129694250D01*
X145415000Y-129694250D01*
X145415000Y-130603000D01*
X146223750Y-130603000D01*
X146319000Y-130507750D01*
X146319000Y-129904214D01*
X146288349Y-129830215D01*
X149390000Y-129830215D01*
X149390000Y-130333750D01*
X149485250Y-130429000D01*
X150419000Y-130429000D01*
X150419000Y-129620250D01*
X150673000Y-129620250D01*
X150673000Y-130429000D01*
X151606750Y-130429000D01*
X151702000Y-130333750D01*
X151702000Y-129830215D01*
X157340000Y-129830215D01*
X157340000Y-130333750D01*
X157435250Y-130429000D01*
X158369000Y-130429000D01*
X158369000Y-129620250D01*
X158623000Y-129620250D01*
X158623000Y-130429000D01*
X159556750Y-130429000D01*
X159652000Y-130333750D01*
X159652000Y-129830215D01*
X159593996Y-129690181D01*
X159486820Y-129583004D01*
X159346786Y-129525000D01*
X158718250Y-129525000D01*
X158623000Y-129620250D01*
X158369000Y-129620250D01*
X158273750Y-129525000D01*
X157645214Y-129525000D01*
X157505180Y-129583004D01*
X157398004Y-129690181D01*
X157340000Y-129830215D01*
X151702000Y-129830215D01*
X151643996Y-129690181D01*
X151536820Y-129583004D01*
X151396786Y-129525000D01*
X150768250Y-129525000D01*
X150673000Y-129620250D01*
X150419000Y-129620250D01*
X150323750Y-129525000D01*
X149695214Y-129525000D01*
X149555180Y-129583004D01*
X149448004Y-129690181D01*
X149390000Y-129830215D01*
X146288349Y-129830215D01*
X146260996Y-129764180D01*
X146153819Y-129657004D01*
X146013785Y-129599000D01*
X145510250Y-129599000D01*
X145415000Y-129694250D01*
X145161000Y-129694250D01*
X145065750Y-129599000D01*
X144562215Y-129599000D01*
X144422181Y-129657004D01*
X144315004Y-129764180D01*
X144257000Y-129904214D01*
X142129263Y-129904214D01*
X143563614Y-128469863D01*
X144562443Y-128469863D01*
X144688081Y-128773930D01*
X144920516Y-129006772D01*
X145224364Y-129132940D01*
X145553365Y-129133227D01*
X145857432Y-129007589D01*
X146007199Y-128858084D01*
X147037767Y-128858084D01*
X147249009Y-128816066D01*
X147428090Y-128696407D01*
X149348757Y-126775740D01*
X149365409Y-126864237D01*
X149458927Y-127009567D01*
X149601619Y-127107064D01*
X149771000Y-127141365D01*
X151321000Y-127141365D01*
X151479237Y-127111591D01*
X151624567Y-127018073D01*
X151722064Y-126875381D01*
X151756365Y-126706000D01*
X151756365Y-126608000D01*
X157285635Y-126608000D01*
X157285635Y-126706000D01*
X157315409Y-126864237D01*
X157408927Y-127009567D01*
X157551619Y-127107064D01*
X157721000Y-127141365D01*
X159271000Y-127141365D01*
X159429237Y-127111591D01*
X159574567Y-127018073D01*
X159672064Y-126875381D01*
X159706365Y-126706000D01*
X159706365Y-125406000D01*
X159676591Y-125247763D01*
X159583073Y-125102433D01*
X159440381Y-125004936D01*
X159271000Y-124970635D01*
X157721000Y-124970635D01*
X157562763Y-125000409D01*
X157417433Y-125093927D01*
X157319936Y-125236619D01*
X157285635Y-125406000D01*
X157285635Y-125504000D01*
X151756365Y-125504000D01*
X151756365Y-125406000D01*
X151726591Y-125247763D01*
X151633073Y-125102433D01*
X151490381Y-125004936D01*
X151321000Y-124970635D01*
X149771000Y-124970635D01*
X149612763Y-125000409D01*
X149467433Y-125093927D01*
X149369936Y-125236619D01*
X149335635Y-125406000D01*
X149335635Y-125504000D01*
X149287851Y-125504000D01*
X149076610Y-125546018D01*
X149076608Y-125546019D01*
X149076609Y-125546019D01*
X148897528Y-125665677D01*
X146809121Y-127754084D01*
X146007084Y-127754084D01*
X145858656Y-127605396D01*
X145554808Y-127479228D01*
X145225807Y-127478941D01*
X144921740Y-127604579D01*
X144688898Y-127837014D01*
X144562730Y-128140862D01*
X144562443Y-128469863D01*
X143563614Y-128469863D01*
X146549517Y-125483961D01*
X147365721Y-125483961D01*
X147473946Y-125592375D01*
X147814534Y-125733800D01*
X148183318Y-125734122D01*
X148524152Y-125593292D01*
X148785149Y-125332750D01*
X148926574Y-124992162D01*
X148926896Y-124623378D01*
X148786066Y-124282544D01*
X148525524Y-124021547D01*
X148184936Y-123880122D01*
X147816152Y-123879800D01*
X147475318Y-124020630D01*
X147365796Y-124129961D01*
X146269094Y-124129961D01*
X146010017Y-124181495D01*
X145900200Y-124254873D01*
X145790382Y-124328250D01*
X140747633Y-129371000D01*
X140524985Y-129371000D01*
X140373993Y-129145025D01*
X139959705Y-128868206D01*
X139506209Y-128778000D01*
X139959705Y-128687794D01*
X140373993Y-128410975D01*
X140650812Y-127996687D01*
X140748018Y-127508000D01*
X140703658Y-127284988D01*
X144519134Y-123469512D01*
X149738629Y-123469512D01*
X149949871Y-123427494D01*
X150128952Y-123307835D01*
X152049805Y-121386982D01*
X153155000Y-121386982D01*
X153155000Y-121437018D01*
X153252206Y-121925705D01*
X153529025Y-122339993D01*
X153757629Y-122492742D01*
X153806534Y-122738600D01*
X153939757Y-122937982D01*
X153953289Y-122958234D01*
X155217207Y-124222153D01*
X155305536Y-124281172D01*
X155436842Y-124368908D01*
X155695919Y-124420442D01*
X160293020Y-124420442D01*
X160811289Y-124938711D01*
X161030923Y-125085466D01*
X161290000Y-125137000D01*
X163204715Y-125137000D01*
X163229409Y-125268237D01*
X163322927Y-125413567D01*
X163465619Y-125511064D01*
X163635000Y-125545365D01*
X163708000Y-125545365D01*
X163708000Y-125650000D01*
X163759534Y-125909077D01*
X163857705Y-126056000D01*
X163906289Y-126128711D01*
X164621289Y-126843712D01*
X164840924Y-126990467D01*
X165100000Y-127042000D01*
X168629578Y-127042000D01*
X169574289Y-127986711D01*
X169793923Y-128133466D01*
X170053000Y-128185000D01*
X173927015Y-128185000D01*
X174078007Y-128410975D01*
X174492295Y-128687794D01*
X174980982Y-128785000D01*
X175031018Y-128785000D01*
X175519705Y-128687794D01*
X175933993Y-128410975D01*
X176210812Y-127996687D01*
X176308018Y-127508000D01*
X176210812Y-127019313D01*
X175933993Y-126605025D01*
X175519705Y-126328206D01*
X175066209Y-126238000D01*
X175519705Y-126147794D01*
X175933993Y-125870975D01*
X176210812Y-125456687D01*
X176308018Y-124968000D01*
X176210812Y-124479313D01*
X175933993Y-124065025D01*
X175519705Y-123788206D01*
X175066209Y-123698000D01*
X175519705Y-123607794D01*
X175933993Y-123330975D01*
X176210812Y-122916687D01*
X176308018Y-122428000D01*
X176210812Y-121939313D01*
X175933993Y-121525025D01*
X175519705Y-121248206D01*
X175066209Y-121158000D01*
X175519705Y-121067794D01*
X175933993Y-120790975D01*
X176210812Y-120376687D01*
X176308018Y-119888000D01*
X176210812Y-119399313D01*
X175933993Y-118985025D01*
X175519705Y-118708206D01*
X175066209Y-118618000D01*
X175519705Y-118527794D01*
X175933993Y-118250975D01*
X176210812Y-117836687D01*
X176308018Y-117348000D01*
X176210812Y-116859313D01*
X175933993Y-116445025D01*
X175519705Y-116168206D01*
X175066209Y-116078000D01*
X175519705Y-115987794D01*
X175933993Y-115710975D01*
X176210812Y-115296687D01*
X176308018Y-114808000D01*
X176210812Y-114319313D01*
X175933993Y-113905025D01*
X175519705Y-113628206D01*
X175066209Y-113538000D01*
X175519705Y-113447794D01*
X175933993Y-113170975D01*
X176210812Y-112756687D01*
X176308018Y-112268000D01*
X176210812Y-111779313D01*
X175933993Y-111365025D01*
X175519705Y-111088206D01*
X175066209Y-110998000D01*
X175519705Y-110907794D01*
X175933993Y-110630975D01*
X176210812Y-110216687D01*
X176308018Y-109728000D01*
X176210812Y-109239313D01*
X175933993Y-108825025D01*
X175519705Y-108548206D01*
X175066209Y-108458000D01*
X175519705Y-108367794D01*
X175933993Y-108090975D01*
X176210812Y-107676687D01*
X176308018Y-107188000D01*
X176210812Y-106699313D01*
X175933993Y-106285025D01*
X175519705Y-106008206D01*
X175143454Y-105933365D01*
X175856000Y-105933365D01*
X176014237Y-105903591D01*
X176159567Y-105810073D01*
X176257064Y-105667381D01*
X176291365Y-105498000D01*
X176291365Y-103798000D01*
X176261591Y-103639763D01*
X176168073Y-103494433D01*
X176025381Y-103396936D01*
X175856000Y-103362635D01*
X175294919Y-103362635D01*
X175294919Y-98403429D01*
X175252901Y-98192188D01*
X175133242Y-98013106D01*
X173922718Y-96802582D01*
X173743637Y-96682923D01*
X173532395Y-96640905D01*
X169048323Y-96640905D01*
X168899895Y-96492217D01*
X168596047Y-96366049D01*
X168267046Y-96365762D01*
X167962979Y-96491400D01*
X167813214Y-96640903D01*
X167366715Y-96640903D01*
X167155473Y-96682921D01*
X166976392Y-96802580D01*
X166796972Y-96982000D01*
X166431490Y-96982000D01*
X166338718Y-96843157D01*
X166021757Y-96631370D01*
X165647875Y-96557000D01*
X164284125Y-96557000D01*
X163910243Y-96631370D01*
X163593282Y-96843157D01*
X163381495Y-97160118D01*
X163307125Y-97534000D01*
X163381495Y-97907882D01*
X163593282Y-98224843D01*
X163910243Y-98436630D01*
X164284125Y-98511000D01*
X165647875Y-98511000D01*
X166021757Y-98436630D01*
X166338718Y-98224843D01*
X166431490Y-98086000D01*
X167025618Y-98086000D01*
X167236860Y-98043982D01*
X167415941Y-97924323D01*
X167595361Y-97744903D01*
X167813325Y-97744903D01*
X167961755Y-97893593D01*
X168265603Y-98019761D01*
X168594604Y-98020048D01*
X168898671Y-97894410D01*
X169048438Y-97744905D01*
X171382706Y-97744905D01*
X170929606Y-97932122D01*
X170316655Y-98544005D01*
X169984519Y-99343876D01*
X169983763Y-100209964D01*
X170314502Y-101010414D01*
X170926385Y-101623365D01*
X171726256Y-101955501D01*
X172592344Y-101956257D01*
X173392794Y-101625518D01*
X174005745Y-101013635D01*
X174190919Y-100567687D01*
X174190919Y-103362635D01*
X174156000Y-103362635D01*
X173997763Y-103392409D01*
X173852433Y-103485927D01*
X173754936Y-103628619D01*
X173720635Y-103798000D01*
X173720635Y-105389895D01*
X168353834Y-100023094D01*
X168429919Y-99947142D01*
X168556087Y-99643294D01*
X168556374Y-99314293D01*
X168430736Y-99010226D01*
X168198301Y-98777384D01*
X167894453Y-98651216D01*
X167565452Y-98650929D01*
X167261385Y-98776567D01*
X167055592Y-98982000D01*
X166431490Y-98982000D01*
X166338718Y-98843157D01*
X166021757Y-98631370D01*
X165647875Y-98557000D01*
X164284125Y-98557000D01*
X163910243Y-98631370D01*
X163593282Y-98843157D01*
X163381495Y-99160118D01*
X163307125Y-99534000D01*
X163381495Y-99907882D01*
X163593282Y-100224843D01*
X163910243Y-100436630D01*
X164284125Y-100511000D01*
X165647875Y-100511000D01*
X166021757Y-100436630D01*
X166338718Y-100224843D01*
X166431490Y-100086000D01*
X167167563Y-100086000D01*
X167177231Y-100095685D01*
X167177231Y-100179137D01*
X167219249Y-100390379D01*
X167338908Y-100569460D01*
X167751448Y-100982000D01*
X166431490Y-100982000D01*
X166338718Y-100843157D01*
X166021757Y-100631370D01*
X165647875Y-100557000D01*
X164284125Y-100557000D01*
X163910243Y-100631370D01*
X163593282Y-100843157D01*
X163381495Y-101160118D01*
X163307125Y-101534000D01*
X163381495Y-101907882D01*
X163593282Y-102224843D01*
X163910243Y-102436630D01*
X164284125Y-102511000D01*
X165647875Y-102511000D01*
X166021757Y-102436630D01*
X166338718Y-102224843D01*
X166431490Y-102086000D01*
X167771331Y-102086000D01*
X172557994Y-106872663D01*
X172557994Y-108547960D01*
X172600012Y-108759202D01*
X172719671Y-108938283D01*
X173752300Y-109970912D01*
X173801188Y-110216687D01*
X174078007Y-110630975D01*
X174492295Y-110907794D01*
X174945791Y-110998000D01*
X174492295Y-111088206D01*
X174338104Y-111191233D01*
X172321030Y-109174159D01*
X172321030Y-107220134D01*
X172279012Y-107008893D01*
X172279012Y-107008892D01*
X172159353Y-106829811D01*
X168473219Y-103143677D01*
X168294138Y-103024018D01*
X168082896Y-102982000D01*
X166431490Y-102982000D01*
X166338718Y-102843157D01*
X166021757Y-102631370D01*
X165647875Y-102557000D01*
X164284125Y-102557000D01*
X163910243Y-102631370D01*
X163593282Y-102843157D01*
X163381495Y-103160118D01*
X163307125Y-103534000D01*
X163381495Y-103907882D01*
X163593282Y-104224843D01*
X163910243Y-104436630D01*
X164284125Y-104511000D01*
X165647875Y-104511000D01*
X166021757Y-104436630D01*
X166338718Y-104224843D01*
X166431490Y-104086000D01*
X167854250Y-104086000D01*
X171217030Y-107448780D01*
X171217030Y-109402805D01*
X171259048Y-109614047D01*
X171378707Y-109793128D01*
X173728802Y-112143223D01*
X173703982Y-112268000D01*
X173801188Y-112756687D01*
X174078007Y-113170975D01*
X174492295Y-113447794D01*
X174945791Y-113538000D01*
X174492295Y-113628206D01*
X174407762Y-113684690D01*
X171196050Y-110472978D01*
X171196050Y-108575683D01*
X171154032Y-108364442D01*
X171154032Y-108364441D01*
X171034373Y-108185360D01*
X168591517Y-105742504D01*
X168591700Y-105532411D01*
X168466062Y-105228344D01*
X168233627Y-104995502D01*
X167929779Y-104869334D01*
X167600778Y-104869047D01*
X167327411Y-104982000D01*
X166431490Y-104982000D01*
X166338718Y-104843157D01*
X166021757Y-104631370D01*
X165647875Y-104557000D01*
X164284125Y-104557000D01*
X163910243Y-104631370D01*
X163593282Y-104843157D01*
X163381495Y-105160118D01*
X163307125Y-105534000D01*
X163381495Y-105907882D01*
X163593282Y-106224843D01*
X163910243Y-106436630D01*
X164284125Y-106511000D01*
X165647875Y-106511000D01*
X166021757Y-106436630D01*
X166338718Y-106224843D01*
X166431490Y-106086000D01*
X167030808Y-106086000D01*
X167063052Y-106164036D01*
X167295487Y-106396878D01*
X167599335Y-106523046D01*
X167810952Y-106523231D01*
X170092050Y-108804329D01*
X170092050Y-110701624D01*
X170134068Y-110912866D01*
X170253727Y-111091947D01*
X173748081Y-114586301D01*
X173703982Y-114808000D01*
X173801188Y-115296687D01*
X174078007Y-115710975D01*
X174492295Y-115987794D01*
X174945791Y-116078000D01*
X174492295Y-116168206D01*
X174078007Y-116445025D01*
X174051000Y-116485444D01*
X169869082Y-112303526D01*
X169869082Y-110472082D01*
X169827064Y-110260841D01*
X169827064Y-110260840D01*
X169707405Y-110081759D01*
X168930323Y-109304677D01*
X168751242Y-109185018D01*
X168725365Y-109179871D01*
X168725365Y-108945000D01*
X168695591Y-108786763D01*
X168602073Y-108641433D01*
X168459381Y-108543936D01*
X168290000Y-108509635D01*
X166990000Y-108509635D01*
X166831763Y-108539409D01*
X166686433Y-108632927D01*
X166588936Y-108775619D01*
X166554635Y-108945000D01*
X166554635Y-108982000D01*
X166431490Y-108982000D01*
X166338718Y-108843157D01*
X166021757Y-108631370D01*
X165647875Y-108557000D01*
X164284125Y-108557000D01*
X163910243Y-108631370D01*
X163593282Y-108843157D01*
X163381495Y-109160118D01*
X163307125Y-109534000D01*
X163381495Y-109907882D01*
X163593282Y-110224843D01*
X163910243Y-110436630D01*
X164284125Y-110511000D01*
X165647875Y-110511000D01*
X166021757Y-110436630D01*
X166338718Y-110224843D01*
X166431490Y-110086000D01*
X166554635Y-110086000D01*
X166554635Y-110445000D01*
X166584409Y-110603237D01*
X166677927Y-110748567D01*
X166820619Y-110846064D01*
X166990000Y-110880365D01*
X168290000Y-110880365D01*
X168448237Y-110850591D01*
X168593567Y-110757073D01*
X168686059Y-110621705D01*
X168765082Y-110700728D01*
X168765082Y-112532172D01*
X168807100Y-112743414D01*
X168926759Y-112922495D01*
X173742587Y-117738323D01*
X173787606Y-117768403D01*
X173801188Y-117836687D01*
X174078007Y-118250975D01*
X174492295Y-118527794D01*
X174945791Y-118618000D01*
X174492295Y-118708206D01*
X174408705Y-118764059D01*
X170560379Y-114915733D01*
X170381298Y-114796074D01*
X170170056Y-114754056D01*
X165561096Y-114754056D01*
X165412668Y-114605368D01*
X165108820Y-114479200D01*
X164779819Y-114478913D01*
X164475752Y-114604551D01*
X164242910Y-114836986D01*
X164116742Y-115140834D01*
X164116455Y-115469835D01*
X164242093Y-115773902D01*
X164306091Y-115838012D01*
X164229623Y-115838012D01*
X164081195Y-115689324D01*
X163777347Y-115563156D01*
X163448346Y-115562869D01*
X163144279Y-115688507D01*
X162911437Y-115920942D01*
X162785269Y-116224790D01*
X162784982Y-116553791D01*
X162910620Y-116857858D01*
X163143055Y-117090700D01*
X163446903Y-117216868D01*
X163775904Y-117217155D01*
X164079971Y-117091517D01*
X164229738Y-116942012D01*
X168485366Y-116942012D01*
X173748342Y-122204988D01*
X173703982Y-122428000D01*
X173801188Y-122916687D01*
X174078007Y-123330975D01*
X174492295Y-123607794D01*
X174945791Y-123698000D01*
X174492295Y-123788206D01*
X174078007Y-124065025D01*
X173801188Y-124479313D01*
X173703982Y-124968000D01*
X173801188Y-125456687D01*
X174078007Y-125870975D01*
X174492295Y-126147794D01*
X174945791Y-126238000D01*
X174492295Y-126328206D01*
X174078007Y-126605025D01*
X173927015Y-126831000D01*
X170333422Y-126831000D01*
X169388711Y-125886289D01*
X169326557Y-125844759D01*
X169169077Y-125739534D01*
X168910000Y-125688000D01*
X165380423Y-125688000D01*
X165221510Y-125529087D01*
X165293237Y-125515591D01*
X165438567Y-125422073D01*
X165536064Y-125279381D01*
X165570365Y-125110000D01*
X165570365Y-123810000D01*
X165540591Y-123651763D01*
X165447073Y-123506433D01*
X165304381Y-123408936D01*
X165135000Y-123374635D01*
X163635000Y-123374635D01*
X163476763Y-123404409D01*
X163331433Y-123497927D01*
X163233936Y-123640619D01*
X163205103Y-123783000D01*
X161570422Y-123783000D01*
X161052152Y-123264730D01*
X160832519Y-123117976D01*
X160573442Y-123066442D01*
X155976342Y-123066442D01*
X155283972Y-122374072D01*
X155334975Y-122339993D01*
X155611794Y-121925705D01*
X155702000Y-121472209D01*
X155792206Y-121925705D01*
X156069025Y-122339993D01*
X156483313Y-122616812D01*
X156972000Y-122714018D01*
X157460687Y-122616812D01*
X157874975Y-122339993D01*
X158151794Y-121925705D01*
X158209768Y-121634250D01*
X158281000Y-121634250D01*
X158281000Y-122337786D01*
X158339004Y-122477820D01*
X158446181Y-122584996D01*
X158586215Y-122643000D01*
X159289750Y-122643000D01*
X159385000Y-122547750D01*
X159385000Y-121539000D01*
X159639000Y-121539000D01*
X159639000Y-122547750D01*
X159734250Y-122643000D01*
X160437785Y-122643000D01*
X160577819Y-122584996D01*
X160684996Y-122477820D01*
X160743000Y-122337786D01*
X160743000Y-121634250D01*
X160647750Y-121539000D01*
X159639000Y-121539000D01*
X159385000Y-121539000D01*
X158376250Y-121539000D01*
X158281000Y-121634250D01*
X158209768Y-121634250D01*
X158249000Y-121437018D01*
X158249000Y-121386982D01*
X158151794Y-120898295D01*
X157876450Y-120486214D01*
X158281000Y-120486214D01*
X158281000Y-121189750D01*
X158376250Y-121285000D01*
X159385000Y-121285000D01*
X159385000Y-120276250D01*
X159639000Y-120276250D01*
X159639000Y-121285000D01*
X160647750Y-121285000D01*
X160662750Y-121270000D01*
X163199635Y-121270000D01*
X163199635Y-122570000D01*
X163229409Y-122728237D01*
X163322927Y-122873567D01*
X163465619Y-122971064D01*
X163635000Y-123005365D01*
X165135000Y-123005365D01*
X165293237Y-122975591D01*
X165438567Y-122882073D01*
X165536064Y-122739381D01*
X165570365Y-122570000D01*
X165570365Y-121270000D01*
X165899635Y-121270000D01*
X165899635Y-122570000D01*
X165929409Y-122728237D01*
X166022927Y-122873567D01*
X166165619Y-122971064D01*
X166335000Y-123005365D01*
X166533000Y-123005365D01*
X166533000Y-123374635D01*
X166335000Y-123374635D01*
X166176763Y-123404409D01*
X166031433Y-123497927D01*
X165933936Y-123640619D01*
X165899635Y-123810000D01*
X165899635Y-125110000D01*
X165929409Y-125268237D01*
X166022927Y-125413567D01*
X166165619Y-125511064D01*
X166335000Y-125545365D01*
X167835000Y-125545365D01*
X167993237Y-125515591D01*
X168138567Y-125422073D01*
X168236064Y-125279381D01*
X168270365Y-125110000D01*
X168270365Y-123810000D01*
X168240591Y-123651763D01*
X168147073Y-123506433D01*
X168004381Y-123408936D01*
X167835000Y-123374635D01*
X167637000Y-123374635D01*
X167637000Y-123005365D01*
X167835000Y-123005365D01*
X167993237Y-122975591D01*
X168138567Y-122882073D01*
X168236064Y-122739381D01*
X168270365Y-122570000D01*
X168270365Y-121270000D01*
X168240591Y-121111763D01*
X168147073Y-120966433D01*
X168004381Y-120868936D01*
X167835000Y-120834635D01*
X166335000Y-120834635D01*
X166176763Y-120864409D01*
X166031433Y-120957927D01*
X165933936Y-121100619D01*
X165899635Y-121270000D01*
X165570365Y-121270000D01*
X165540591Y-121111763D01*
X165447073Y-120966433D01*
X165304381Y-120868936D01*
X165135000Y-120834635D01*
X164937000Y-120834635D01*
X164937000Y-118787522D01*
X165039096Y-118787611D01*
X165343163Y-118661973D01*
X165576005Y-118429538D01*
X165702173Y-118125690D01*
X165702460Y-117796689D01*
X165576822Y-117492622D01*
X165344387Y-117259780D01*
X165040539Y-117133612D01*
X164711538Y-117133325D01*
X164407471Y-117258963D01*
X164174629Y-117491398D01*
X164048461Y-117795246D01*
X164048276Y-118006863D01*
X163994677Y-118060462D01*
X163875018Y-118239543D01*
X163875018Y-118239544D01*
X163833000Y-118450785D01*
X163833000Y-120834635D01*
X163635000Y-120834635D01*
X163476763Y-120864409D01*
X163331433Y-120957927D01*
X163233936Y-121100619D01*
X163199635Y-121270000D01*
X160662750Y-121270000D01*
X160743000Y-121189750D01*
X160743000Y-120486214D01*
X160684996Y-120346180D01*
X160577819Y-120239004D01*
X160437785Y-120181000D01*
X159734250Y-120181000D01*
X159639000Y-120276250D01*
X159385000Y-120276250D01*
X159289750Y-120181000D01*
X158586215Y-120181000D01*
X158446181Y-120239004D01*
X158339004Y-120346180D01*
X158281000Y-120486214D01*
X157876450Y-120486214D01*
X157874975Y-120484007D01*
X157460687Y-120207188D01*
X156972000Y-120109982D01*
X156483313Y-120207188D01*
X156069025Y-120484007D01*
X155792206Y-120898295D01*
X155702000Y-121351791D01*
X155611794Y-120898295D01*
X155334975Y-120484007D01*
X154920687Y-120207188D01*
X154432000Y-120109982D01*
X153943313Y-120207188D01*
X153529025Y-120484007D01*
X153252206Y-120898295D01*
X153155000Y-121386982D01*
X152049805Y-121386982D01*
X154779724Y-118657063D01*
X159767854Y-118657063D01*
X159979096Y-118615045D01*
X160158177Y-118495386D01*
X162346323Y-116307240D01*
X162465982Y-116128159D01*
X162508000Y-115916917D01*
X162508000Y-114749490D01*
X162646843Y-114656718D01*
X162858630Y-114339757D01*
X162933000Y-113965875D01*
X162933000Y-112617250D01*
X166609000Y-112617250D01*
X166609000Y-113220786D01*
X166667004Y-113360820D01*
X166774181Y-113467996D01*
X166914215Y-113526000D01*
X167417750Y-113526000D01*
X167513000Y-113430750D01*
X167513000Y-112522000D01*
X167767000Y-112522000D01*
X167767000Y-113430750D01*
X167862250Y-113526000D01*
X168365785Y-113526000D01*
X168505819Y-113467996D01*
X168612996Y-113360820D01*
X168671000Y-113220786D01*
X168671000Y-112617250D01*
X168575750Y-112522000D01*
X167767000Y-112522000D01*
X167513000Y-112522000D01*
X166704250Y-112522000D01*
X166609000Y-112617250D01*
X162933000Y-112617250D01*
X162933000Y-112602125D01*
X162858630Y-112228243D01*
X162646843Y-111911282D01*
X162485858Y-111803715D01*
X163424925Y-111803715D01*
X163567881Y-112102514D01*
X163842389Y-112345531D01*
X164189000Y-112465000D01*
X164839000Y-112465000D01*
X164839000Y-111661000D01*
X165093000Y-111661000D01*
X165093000Y-112465000D01*
X165743000Y-112465000D01*
X166089611Y-112345531D01*
X166364119Y-112102514D01*
X166507075Y-111803715D01*
X166442044Y-111661000D01*
X165093000Y-111661000D01*
X164839000Y-111661000D01*
X163489956Y-111661000D01*
X163424925Y-111803715D01*
X162485858Y-111803715D01*
X162329882Y-111699495D01*
X161956000Y-111625125D01*
X161582118Y-111699495D01*
X161265157Y-111911282D01*
X161053370Y-112228243D01*
X160979000Y-112602125D01*
X160979000Y-113965875D01*
X161053370Y-114339757D01*
X161265157Y-114656718D01*
X161404000Y-114749490D01*
X161404000Y-115688271D01*
X160508000Y-116584271D01*
X160508000Y-114749490D01*
X160646843Y-114656718D01*
X160858630Y-114339757D01*
X160933000Y-113965875D01*
X160933000Y-112602125D01*
X160858630Y-112228243D01*
X160646843Y-111911282D01*
X160329882Y-111699495D01*
X159956000Y-111625125D01*
X159582118Y-111699495D01*
X159265157Y-111911282D01*
X159053370Y-112228243D01*
X158979000Y-112602125D01*
X158979000Y-113965875D01*
X159053370Y-114339757D01*
X159265157Y-114656718D01*
X159404000Y-114749490D01*
X159404000Y-115939509D01*
X159350702Y-115886118D01*
X159046854Y-115759950D01*
X158986560Y-115759897D01*
X158986802Y-115482274D01*
X158861164Y-115178207D01*
X158628729Y-114945365D01*
X158508000Y-114895234D01*
X158508000Y-114749490D01*
X158646843Y-114656718D01*
X158858630Y-114339757D01*
X158933000Y-113965875D01*
X158933000Y-112602125D01*
X158858630Y-112228243D01*
X158646843Y-111911282D01*
X158329882Y-111699495D01*
X157956000Y-111625125D01*
X157582118Y-111699495D01*
X157265157Y-111911282D01*
X157053370Y-112228243D01*
X156979000Y-112602125D01*
X156979000Y-113965875D01*
X157053370Y-114339757D01*
X157265157Y-114656718D01*
X157404000Y-114749490D01*
X157404000Y-115309369D01*
X157377011Y-115374365D01*
X156651858Y-114649212D01*
X156858630Y-114339757D01*
X156933000Y-113965875D01*
X156933000Y-112602125D01*
X156858630Y-112228243D01*
X156646843Y-111911282D01*
X156329882Y-111699495D01*
X155956000Y-111625125D01*
X155582118Y-111699495D01*
X155265157Y-111911282D01*
X155053370Y-112228243D01*
X154979000Y-112602125D01*
X154979000Y-113965875D01*
X155053370Y-114339757D01*
X155265157Y-114656718D01*
X155407553Y-114751864D01*
X155446018Y-114945242D01*
X155565677Y-115124323D01*
X157418483Y-116977129D01*
X157492595Y-117026649D01*
X154508000Y-117026649D01*
X154508000Y-114749490D01*
X154646843Y-114656718D01*
X154858630Y-114339757D01*
X154933000Y-113965875D01*
X154933000Y-112602125D01*
X154858630Y-112228243D01*
X154646843Y-111911282D01*
X154329882Y-111699495D01*
X153956000Y-111625125D01*
X153582118Y-111699495D01*
X153265157Y-111911282D01*
X153053370Y-112228243D01*
X152979000Y-112602125D01*
X152979000Y-113965875D01*
X153053370Y-114339757D01*
X153265157Y-114656718D01*
X153404000Y-114749490D01*
X153404000Y-117091979D01*
X152508000Y-117987979D01*
X152508000Y-114749490D01*
X152646843Y-114656718D01*
X152858630Y-114339757D01*
X152933000Y-113965875D01*
X152933000Y-112602125D01*
X152858630Y-112228243D01*
X152646843Y-111911282D01*
X152329882Y-111699495D01*
X151956000Y-111625125D01*
X151582118Y-111699495D01*
X151265157Y-111911282D01*
X151053370Y-112228243D01*
X150979000Y-112602125D01*
X150979000Y-113965875D01*
X151053370Y-114339757D01*
X151265157Y-114656718D01*
X151404000Y-114749490D01*
X151404000Y-118414009D01*
X148944965Y-120873044D01*
X142465105Y-120873044D01*
X141089738Y-119497677D01*
X140910657Y-119378018D01*
X140699415Y-119336000D01*
X140608508Y-119336000D01*
X140373993Y-118985025D01*
X139959705Y-118708206D01*
X139506209Y-118618000D01*
X139959705Y-118527794D01*
X140373993Y-118250975D01*
X140650812Y-117836687D01*
X140657264Y-117804250D01*
X146314000Y-117804250D01*
X146314000Y-118407786D01*
X146372004Y-118547820D01*
X146479181Y-118654996D01*
X146619215Y-118713000D01*
X147097750Y-118713000D01*
X147193000Y-118617750D01*
X147193000Y-117709000D01*
X147447000Y-117709000D01*
X147447000Y-118617750D01*
X147542250Y-118713000D01*
X148020785Y-118713000D01*
X148160819Y-118654996D01*
X148267996Y-118547820D01*
X148326000Y-118407786D01*
X148326000Y-117804250D01*
X148854000Y-117804250D01*
X148854000Y-118407786D01*
X148912004Y-118547820D01*
X149019181Y-118654996D01*
X149159215Y-118713000D01*
X149637750Y-118713000D01*
X149733000Y-118617750D01*
X149733000Y-117709000D01*
X149987000Y-117709000D01*
X149987000Y-118617750D01*
X150082250Y-118713000D01*
X150560785Y-118713000D01*
X150700819Y-118654996D01*
X150807996Y-118547820D01*
X150866000Y-118407786D01*
X150866000Y-117804250D01*
X150770750Y-117709000D01*
X149987000Y-117709000D01*
X149733000Y-117709000D01*
X148949250Y-117709000D01*
X148854000Y-117804250D01*
X148326000Y-117804250D01*
X148230750Y-117709000D01*
X147447000Y-117709000D01*
X147193000Y-117709000D01*
X146409250Y-117709000D01*
X146314000Y-117804250D01*
X140657264Y-117804250D01*
X140748018Y-117348000D01*
X140703321Y-117123293D01*
X141070400Y-116756214D01*
X146314000Y-116756214D01*
X146314000Y-117359750D01*
X146409250Y-117455000D01*
X147193000Y-117455000D01*
X147193000Y-116546250D01*
X147447000Y-116546250D01*
X147447000Y-117455000D01*
X148230750Y-117455000D01*
X148326000Y-117359750D01*
X148326000Y-116756214D01*
X148854000Y-116756214D01*
X148854000Y-117359750D01*
X148949250Y-117455000D01*
X149733000Y-117455000D01*
X149733000Y-116546250D01*
X149987000Y-116546250D01*
X149987000Y-117455000D01*
X150770750Y-117455000D01*
X150866000Y-117359750D01*
X150866000Y-116756214D01*
X150807996Y-116616180D01*
X150700819Y-116509004D01*
X150560785Y-116451000D01*
X150082250Y-116451000D01*
X149987000Y-116546250D01*
X149733000Y-116546250D01*
X149637750Y-116451000D01*
X149159215Y-116451000D01*
X149019181Y-116509004D01*
X148912004Y-116616180D01*
X148854000Y-116756214D01*
X148326000Y-116756214D01*
X148267996Y-116616180D01*
X148160819Y-116509004D01*
X148020785Y-116451000D01*
X147542250Y-116451000D01*
X147447000Y-116546250D01*
X147193000Y-116546250D01*
X147097750Y-116451000D01*
X146619215Y-116451000D01*
X146479181Y-116509004D01*
X146372004Y-116616180D01*
X146314000Y-116756214D01*
X141070400Y-116756214D01*
X147598371Y-110228243D01*
X147910243Y-110436630D01*
X148284125Y-110511000D01*
X149647875Y-110511000D01*
X150021757Y-110436630D01*
X150338718Y-110224843D01*
X150550505Y-109907882D01*
X150624875Y-109534000D01*
X150550505Y-109160118D01*
X150338718Y-108843157D01*
X150021757Y-108631370D01*
X149647875Y-108557000D01*
X148284125Y-108557000D01*
X147910243Y-108631370D01*
X147593282Y-108843157D01*
X147498754Y-108984628D01*
X147300726Y-109024018D01*
X147121645Y-109143677D01*
X140042077Y-116223245D01*
X139959705Y-116168206D01*
X139506209Y-116078000D01*
X139959705Y-115987794D01*
X140373993Y-115710975D01*
X140650812Y-115296687D01*
X140726991Y-114913711D01*
X147522216Y-108118486D01*
X147593282Y-108224843D01*
X147910243Y-108436630D01*
X148284125Y-108511000D01*
X149647875Y-108511000D01*
X150021757Y-108436630D01*
X150338718Y-108224843D01*
X150550505Y-107907882D01*
X150624875Y-107534000D01*
X150550505Y-107160118D01*
X150338718Y-106843157D01*
X150021757Y-106631370D01*
X149647875Y-106557000D01*
X148284125Y-106557000D01*
X147910243Y-106631370D01*
X147593282Y-106843157D01*
X147500510Y-106982000D01*
X147326056Y-106982000D01*
X147114815Y-107024018D01*
X147034597Y-107077618D01*
X146935733Y-107143677D01*
X140254337Y-113825073D01*
X139959705Y-113628206D01*
X139506209Y-113538000D01*
X139959705Y-113447794D01*
X140373993Y-113170975D01*
X140650812Y-112756687D01*
X140748018Y-112268000D01*
X140739271Y-112224024D01*
X146877295Y-106086000D01*
X147500510Y-106086000D01*
X147593282Y-106224843D01*
X147910243Y-106436630D01*
X148284125Y-106511000D01*
X149647875Y-106511000D01*
X150021757Y-106436630D01*
X150338718Y-106224843D01*
X150550505Y-105907882D01*
X150624875Y-105534000D01*
X150550505Y-105160118D01*
X150338718Y-104843157D01*
X150021757Y-104631370D01*
X149647875Y-104557000D01*
X148284125Y-104557000D01*
X147910243Y-104631370D01*
X147593282Y-104843157D01*
X147500510Y-104982000D01*
X146648649Y-104982000D01*
X146437407Y-105024018D01*
X146258326Y-105143677D01*
X140171967Y-111230036D01*
X139959705Y-111088206D01*
X139506209Y-110998000D01*
X139959705Y-110907794D01*
X140373993Y-110630975D01*
X140608508Y-110280000D01*
X140669711Y-110280000D01*
X140880953Y-110237982D01*
X141060034Y-110118323D01*
X147092357Y-104086000D01*
X147500510Y-104086000D01*
X147593282Y-104224843D01*
X147910243Y-104436630D01*
X148284125Y-104511000D01*
X149647875Y-104511000D01*
X150021757Y-104436630D01*
X150338718Y-104224843D01*
X150550505Y-103907882D01*
X150624875Y-103534000D01*
X150550505Y-103160118D01*
X150338718Y-102843157D01*
X150021757Y-102631370D01*
X149647875Y-102557000D01*
X148284125Y-102557000D01*
X147910243Y-102631370D01*
X147593282Y-102843157D01*
X147500510Y-102982000D01*
X146863711Y-102982000D01*
X146652469Y-103024018D01*
X146473388Y-103143677D01*
X140541439Y-109075626D01*
X140373993Y-108825025D01*
X139959705Y-108548206D01*
X139583454Y-108473365D01*
X140296000Y-108473365D01*
X140454237Y-108443591D01*
X140599567Y-108350073D01*
X140697064Y-108207381D01*
X140731365Y-108038000D01*
X140731365Y-107665701D01*
X140862134Y-107578323D01*
X147585191Y-100855266D01*
X147381495Y-101160118D01*
X147307125Y-101534000D01*
X147381495Y-101907882D01*
X147593282Y-102224843D01*
X147910243Y-102436630D01*
X148284125Y-102511000D01*
X149647875Y-102511000D01*
X150021757Y-102436630D01*
X150338718Y-102224843D01*
X150347968Y-102211000D01*
X150385578Y-102211000D01*
X150707000Y-102532423D01*
X150707000Y-110330470D01*
X150252154Y-110785317D01*
X150021757Y-110631370D01*
X149647875Y-110557000D01*
X148284125Y-110557000D01*
X147910243Y-110631370D01*
X147593282Y-110843157D01*
X147381495Y-111160118D01*
X147307125Y-111534000D01*
X147381495Y-111907882D01*
X147593282Y-112224843D01*
X147910243Y-112436630D01*
X148284125Y-112511000D01*
X148289000Y-112511000D01*
X148289000Y-112584000D01*
X148340534Y-112843077D01*
X148374344Y-112893677D01*
X148487289Y-113062711D01*
X149183000Y-113758422D01*
X149183000Y-113906419D01*
X149076763Y-113926409D01*
X148931433Y-114019927D01*
X148833936Y-114162619D01*
X148799635Y-114332000D01*
X148799635Y-114405000D01*
X148380365Y-114405000D01*
X148380365Y-114332000D01*
X148350591Y-114173763D01*
X148257073Y-114028433D01*
X148114381Y-113930936D01*
X147945000Y-113896635D01*
X146695000Y-113896635D01*
X146536763Y-113926409D01*
X146391433Y-114019927D01*
X146293936Y-114162619D01*
X146259635Y-114332000D01*
X146259635Y-115832000D01*
X146289409Y-115990237D01*
X146382927Y-116135567D01*
X146525619Y-116233064D01*
X146695000Y-116267365D01*
X147945000Y-116267365D01*
X148103237Y-116237591D01*
X148248567Y-116144073D01*
X148346064Y-116001381D01*
X148380365Y-115832000D01*
X148380365Y-115759000D01*
X148799635Y-115759000D01*
X148799635Y-115832000D01*
X148829409Y-115990237D01*
X148922927Y-116135567D01*
X149065619Y-116233064D01*
X149235000Y-116267365D01*
X150485000Y-116267365D01*
X150643237Y-116237591D01*
X150788567Y-116144073D01*
X150886064Y-116001381D01*
X150920365Y-115832000D01*
X150920365Y-114332000D01*
X150890591Y-114173763D01*
X150797073Y-114028433D01*
X150654381Y-113930936D01*
X150537000Y-113907165D01*
X150537000Y-113478000D01*
X150485466Y-113218923D01*
X150338711Y-112999289D01*
X149816817Y-112477395D01*
X150021757Y-112436630D01*
X150338718Y-112224843D01*
X150347968Y-112211000D01*
X150460893Y-112211000D01*
X150719970Y-112159466D01*
X150939604Y-112012711D01*
X151383101Y-111569214D01*
X166609000Y-111569214D01*
X166609000Y-112172750D01*
X166704250Y-112268000D01*
X167513000Y-112268000D01*
X167513000Y-111359250D01*
X167767000Y-111359250D01*
X167767000Y-112268000D01*
X168575750Y-112268000D01*
X168671000Y-112172750D01*
X168671000Y-111569214D01*
X168612996Y-111429180D01*
X168505819Y-111322004D01*
X168365785Y-111264000D01*
X167862250Y-111264000D01*
X167767000Y-111359250D01*
X167513000Y-111359250D01*
X167417750Y-111264000D01*
X166914215Y-111264000D01*
X166774181Y-111322004D01*
X166667004Y-111429180D01*
X166609000Y-111569214D01*
X151383101Y-111569214D01*
X151688030Y-111264285D01*
X163424925Y-111264285D01*
X163489956Y-111407000D01*
X164839000Y-111407000D01*
X164839000Y-110603000D01*
X165093000Y-110603000D01*
X165093000Y-111407000D01*
X166442044Y-111407000D01*
X166507075Y-111264285D01*
X166364119Y-110965486D01*
X166089611Y-110722469D01*
X165743000Y-110603000D01*
X165093000Y-110603000D01*
X164839000Y-110603000D01*
X164189000Y-110603000D01*
X163842389Y-110722469D01*
X163567881Y-110965486D01*
X163424925Y-111264285D01*
X151688030Y-111264285D01*
X151862711Y-111089605D01*
X151945644Y-110965486D01*
X152009466Y-110869970D01*
X152061000Y-110610893D01*
X152061000Y-107534000D01*
X163307125Y-107534000D01*
X163381495Y-107907882D01*
X163593282Y-108224843D01*
X163910243Y-108436630D01*
X164284125Y-108511000D01*
X165647875Y-108511000D01*
X166021757Y-108436630D01*
X166338718Y-108224843D01*
X166431433Y-108086086D01*
X166513832Y-108168629D01*
X166817680Y-108294797D01*
X167146681Y-108295084D01*
X167450748Y-108169446D01*
X167683590Y-107937011D01*
X167809758Y-107633163D01*
X167810045Y-107304162D01*
X167684407Y-107000095D01*
X167451972Y-106767253D01*
X167148124Y-106641085D01*
X166819123Y-106640798D01*
X166515056Y-106766436D01*
X166378523Y-106902730D01*
X166338718Y-106843157D01*
X166021757Y-106631370D01*
X165647875Y-106557000D01*
X164284125Y-106557000D01*
X163910243Y-106631370D01*
X163593282Y-106843157D01*
X163381495Y-107160118D01*
X163307125Y-107534000D01*
X152061000Y-107534000D01*
X152061000Y-106456722D01*
X158875162Y-106456722D01*
X158983387Y-106565136D01*
X159323975Y-106706561D01*
X159692759Y-106706883D01*
X160033593Y-106566053D01*
X160294590Y-106305511D01*
X160436015Y-105964923D01*
X160436337Y-105596139D01*
X160295507Y-105255305D01*
X160034965Y-104994308D01*
X159694377Y-104852883D01*
X159325593Y-104852561D01*
X158984759Y-104993391D01*
X158875237Y-105102722D01*
X152061000Y-105102722D01*
X152061000Y-102252000D01*
X152009466Y-101992923D01*
X151875933Y-101793077D01*
X151862711Y-101773288D01*
X151144711Y-101055289D01*
X151035026Y-100982000D01*
X150925077Y-100908534D01*
X150666000Y-100857000D01*
X150347968Y-100857000D01*
X150338718Y-100843157D01*
X150021757Y-100631370D01*
X149647875Y-100557000D01*
X148284125Y-100557000D01*
X147910243Y-100631370D01*
X147605391Y-100835066D01*
X147988300Y-100452157D01*
X148284125Y-100511000D01*
X149647875Y-100511000D01*
X150021757Y-100436630D01*
X150338718Y-100224843D01*
X150550505Y-99907882D01*
X150624875Y-99534000D01*
X150550505Y-99160118D01*
X150338718Y-98843157D01*
X150021757Y-98631370D01*
X149647875Y-98557000D01*
X148284125Y-98557000D01*
X147910243Y-98631370D01*
X147593282Y-98843157D01*
X147381495Y-99160118D01*
X147307125Y-99534000D01*
X147313436Y-99565729D01*
X140700734Y-106178431D01*
X140608073Y-106034433D01*
X140465381Y-105936936D01*
X140296000Y-105902635D01*
X138596000Y-105902635D01*
X138437763Y-105932409D01*
X138292433Y-106025927D01*
X138194936Y-106168619D01*
X138160635Y-106338000D01*
X138160635Y-108038000D01*
X138190409Y-108196237D01*
X138283927Y-108341567D01*
X138426619Y-108439064D01*
X138596000Y-108473365D01*
X139308546Y-108473365D01*
X138932295Y-108548206D01*
X138518007Y-108825025D01*
X138241188Y-109239313D01*
X138143982Y-109728000D01*
X137777500Y-109728000D01*
X137777500Y-100209964D01*
X139983823Y-100209964D01*
X140314562Y-101010414D01*
X140926445Y-101623365D01*
X141726316Y-101955501D01*
X142592404Y-101956257D01*
X143392854Y-101625518D01*
X144005805Y-101013635D01*
X144337941Y-100213764D01*
X144338697Y-99347676D01*
X144007958Y-98547226D01*
X143396075Y-97934275D01*
X142888565Y-97723538D01*
X144882964Y-97723538D01*
X145008602Y-98027605D01*
X145241037Y-98260447D01*
X145544885Y-98386615D01*
X145873886Y-98386902D01*
X146177953Y-98261264D01*
X146353524Y-98086000D01*
X147331011Y-98086000D01*
X147360409Y-98242237D01*
X147453927Y-98387567D01*
X147596619Y-98485064D01*
X147766000Y-98519365D01*
X150166000Y-98519365D01*
X150324237Y-98489591D01*
X150469567Y-98396073D01*
X150567064Y-98253381D01*
X150601365Y-98084000D01*
X150601365Y-96984000D01*
X150571591Y-96825763D01*
X150478073Y-96680433D01*
X150335381Y-96582936D01*
X150166000Y-96548635D01*
X147766000Y-96548635D01*
X147607763Y-96578409D01*
X147462433Y-96671927D01*
X147364936Y-96814619D01*
X147331040Y-96982000D01*
X146301891Y-96982000D01*
X146179177Y-96859071D01*
X145875329Y-96732903D01*
X145546328Y-96732616D01*
X145242261Y-96858254D01*
X145009419Y-97090689D01*
X144883251Y-97394537D01*
X144882964Y-97723538D01*
X142888565Y-97723538D01*
X142596204Y-97602139D01*
X141730116Y-97601383D01*
X140929666Y-97932122D01*
X140316715Y-98544005D01*
X139984579Y-99343876D01*
X139983823Y-100209964D01*
X137777500Y-100209964D01*
X137777500Y-95397600D01*
X176505994Y-95397600D01*
X176542420Y-95434026D01*
M02*
